<svg xmlns="http://www.w3.org/2000/svg" xmlns:xlink="http://www.w3.org/1999/xlink" viewBox="22 -2 1445 715">
  <defs>
    <style>
      .cls-1 {
        clip-path: url(#clip-hero_bg);
      }

      .cls-2 {
        fill: #ffd949;
      }

      .cls-3 {
        fill: #f4bf1a;
      }

      .cls-4 {
        fill: #dca815;
      }
    </style>
    <clipPath id="clip-hero_bg">
      <rect x="22" y="-2" width="1445" height="715"/>
    </clipPath>
  </defs>
  <g id="hero_bg" class="cls-1">
    <g id="coin" transform="translate(31.5 13)">
      <path id="XMLID_99_" class="cls-2" d="M51.921,104.668C26.835,104.668,6.5,81.237,6.5,52.334S26.835,0,51.921,0,97.341,23.431,97.341,52.334s-20.335,52.334-45.421,52.334" transform="translate(5.123)"/>
      <path id="XMLID_132_" class="cls-3" d="M11.623,52.334C11.623,25.6,29.022,3.566,51.482.4A39.962,39.962,0,0,0,45.921,0C20.835,0,.5,23.431.5,52.334s20.335,52.334,45.421,52.334a39.961,39.961,0,0,0,5.562-.4c-22.46-3.162-39.859-25.2-39.859-51.93" transform="translate(0)"/>
      <path id="XMLID_115_" class="cls-3" d="M48.094,89.674h-.159a32.775,32.775,0,0,1-3.884-.232,1.869,1.869,0,0,1,.439-3.712,28.955,28.955,0,0,0,3.445.206A1.93,1.93,0,0,1,49.868,87.8a1.794,1.794,0,0,1-1.774,1.869m10.78-2.013a1.871,1.871,0,0,1-.654-3.619,30.359,30.359,0,0,0,3.163-1.415,1.844,1.844,0,0,1,2.5.809,1.876,1.876,0,0,1-.8,2.516,34.314,34.314,0,0,1-3.548,1.587,1.809,1.809,0,0,1-.653.121M33.782,86.233a1.829,1.829,0,0,1-.838-.2A35.277,35.277,0,0,1,29.59,84.07a1.878,1.878,0,0,1-.536-2.587,1.849,1.849,0,0,1,2.568-.54,31.33,31.33,0,0,0,3,1.753,1.877,1.877,0,0,1,.814,2.512,1.85,1.85,0,0,1-1.654,1.024m37.282-6.65a1.845,1.845,0,0,1-1.305-.542,1.88,1.88,0,0,1-.011-2.643c.806-.819,1.591-1.7,2.33-2.62a1.846,1.846,0,0,1,2.608-.271,1.88,1.88,0,0,1,.269,2.63c-.818,1.013-1.683,1.987-2.575,2.893a1.847,1.847,0,0,1-1.316.553M22.458,76.951a1.851,1.851,0,0,1-1.435-.682c-.8-.991-1.578-2.037-2.3-3.112a1.88,1.88,0,0,1,.5-2.6,1.842,1.842,0,0,1,2.573.5c.654.979,1.357,1.933,2.089,2.832a1.882,1.882,0,0,1-.258,2.632,1.84,1.84,0,0,1-1.175.422m56.755-9.6a1.851,1.851,0,0,1-.74-.155,1.877,1.877,0,0,1-.96-2.462c.465-1.073.89-2.187,1.263-3.306a1.853,1.853,0,0,1,2.349-1.176,1.874,1.874,0,0,1,1.166,2.368c-.408,1.22-.871,2.435-1.377,3.607a1.86,1.86,0,0,1-1.7,1.123m-63.822-3.3a1.861,1.861,0,0,1-1.756-1.267c-.41-1.211-.773-2.458-1.081-3.706a1.854,1.854,0,1,1,3.6-.9c.284,1.146.617,2.291.994,3.4a1.873,1.873,0,0,1-1.155,2.372,1.81,1.81,0,0,1-.6.1M82.715,53.025q-.072,0-.145-.006a1.866,1.866,0,0,1-1.706-2.009c.087-1.133.132-2.29.132-3.435a1.915,1.915,0,0,1,1.854-1.929A1.81,1.81,0,0,1,84.7,47.453v.121c0,1.243-.048,2.5-.143,3.725a1.861,1.861,0,0,1-1.846,1.725m-69.7-3.561a1.845,1.845,0,0,1-1.854-1.849v-.041c0-1.275.05-2.557.148-3.807a1.854,1.854,0,1,1,3.7.3c-.091,1.155-.137,2.336-.137,3.512a1.88,1.88,0,0,1-1.854,1.89M81.5,38.319A1.855,1.855,0,0,1,79.7,36.908c-.287-1.149-.623-2.293-1-3.4a1.874,1.874,0,0,1,1.153-2.374,1.845,1.845,0,0,1,2.354,1.163c.412,1.207.777,2.452,1.088,3.7a1.87,1.87,0,0,1-1.344,2.269,1.716,1.716,0,0,1-.456.058m-66.129-3.4a1.854,1.854,0,0,1-.6-.1,1.873,1.873,0,0,1-1.161-2.37c.41-1.215.875-2.428,1.385-3.6a1.849,1.849,0,0,1,2.442-.964,1.876,1.876,0,0,1,.957,2.462c-.469,1.078-.9,2.192-1.27,3.306a1.859,1.859,0,0,1-1.756,1.271m60.2-10.08a1.848,1.848,0,0,1-1.537-.822c-.656-.976-1.361-1.927-2.095-2.826a1.881,1.881,0,0,1,.252-2.632,1.845,1.845,0,0,1,2.61.254c.806.989,1.581,2.034,2.3,3.108a1.879,1.879,0,0,1-.495,2.6,1.837,1.837,0,0,1-1.038.321M22.4,22a1.837,1.837,0,0,1-1.172-.422,1.878,1.878,0,0,1-.261-2.63c.818-1.009,1.685-1.981,2.579-2.888a1.846,1.846,0,0,1,2.621-.007,1.88,1.88,0,0,1,.009,2.643c-.808.821-1.6,1.7-2.34,2.619A1.836,1.836,0,0,1,22.4,22M65.2,14.468a1.823,1.823,0,0,1-1.009-.3,31.473,31.473,0,0,0-3.007-1.746,1.876,1.876,0,0,1-.818-2.51,1.847,1.847,0,0,1,2.49-.826,34.725,34.725,0,0,1,3.357,1.949,1.878,1.878,0,0,1,.541,2.587,1.843,1.843,0,0,1-1.555.849M33.715,12.692a1.852,1.852,0,0,1-1.654-1.021,1.876,1.876,0,0,1,.81-2.514,34.123,34.123,0,0,1,3.552-1.577,1.849,1.849,0,0,1,2.386,1.1,1.875,1.875,0,0,1-1.088,2.405,30.213,30.213,0,0,0-3.168,1.407,1.823,1.823,0,0,1-.838.2M51.524,9.423a1.689,1.689,0,0,1-.217-.013,29.073,29.073,0,0,0-3.372-.2,1.9,1.9,0,0,1-1.893-1.869,1.83,1.83,0,0,1,1.815-1.869h.078a32.706,32.706,0,0,1,3.8.222,1.87,1.87,0,0,1-.211,3.725" transform="translate(9.108 4.759)"/>
      <path id="XMLID_114_" class="cls-4" d="M11.62,29H.5c.037,1.258.108,2.5.221,3.738H11.85q-.172-1.85-.23-3.738" transform="translate(0 25.203)"/>
      <path id="XMLID_113_" class="cls-4" d="M12,24H.888C.734,25.232.623,26.48.547,27.738H11.669c.078-1.258.182-2.506.336-3.738" transform="translate(0.04 20.858)"/>
      <path id="XMLID_112_" class="cls-4" d="M12.172,34H1.047q.362,1.9.836,3.738H13Q12.532,35.9,12.172,34" transform="translate(0.467 29.548)"/>
      <path id="XMLID_111_" class="cls-4" d="M13.574,39H2.443c.473,1.275,1,2.518,1.552,3.738H15.12Q14.286,40.91,13.574,39" transform="translate(1.659 33.894)"/>
      <path id="XMLID_110_" class="cls-4" d="M13.341,19H2.231c-.362,1.228-.7,2.471-.981,3.738H12.386c.282-1.263.6-2.514.955-3.738" transform="translate(0.64 16.512)"/>
      <path id="XMLID_109_" class="cls-4" d="M15.677,14H4.554c-.612,1.217-1.188,2.462-1.715,3.738H13.97q.79-1.912,1.707-3.738" transform="translate(1.997 12.167)"/>
      <path id="XMLID_108_" class="cls-4" d="M20.359,8H9.223Q7.641,9.783,6.216,11.738H17.349Q18.775,9.784,20.359,8" transform="translate(4.881 6.953)"/>
      <path id="XMLID_107_" class="cls-4" d="M27.6,3H16.454a44.567,44.567,0,0,0-5.443,3.738h11.14A44.648,44.648,0,0,1,27.6,3" transform="translate(8.975 2.607)"/>
      <path id="XMLID_106_" class="cls-4" d="M16.645,45H5.516q1.29,1.943,2.729,3.738H19.381Q17.941,46.944,16.645,45" transform="translate(4.283 39.108)"/>
      <path id="XMLID_105_" class="cls-4" d="M9.832,50a46.041,46.041,0,0,0,4.679,3.738H25.661A45.67,45.67,0,0,1,20.952,50Z" transform="translate(7.969 43.454)"/>
    </g>
    <g id="coin-2" data-name="coin" transform="matrix(0.485, -0.875, 0.875, 0.485, 1209.759, 527.421)">
      <path id="XMLID_99_2" data-name="XMLID_99_" class="cls-2" d="M22.891,37.772C13.839,37.772,6.5,29.317,6.5,18.886S13.839,0,22.891,0,39.283,8.456,39.283,18.886,31.944,37.772,22.891,37.772" transform="translate(-1.986)"/>
      <path id="XMLID_132_2" data-name="XMLID_132_" class="cls-3" d="M4.514,18.886c0-9.647,6.279-17.6,14.384-18.74A14.421,14.421,0,0,0,16.891,0C7.839,0,.5,8.456.5,18.886S7.839,37.772,16.891,37.772a14.421,14.421,0,0,0,2.007-.146c-8.105-1.141-14.384-9.094-14.384-18.74" transform="translate(0)"/>
      <path id="XMLID_115_2" data-name="XMLID_115_" class="cls-3" d="M24.492,35.861h-.058a11.828,11.828,0,0,1-1.4-.084.674.674,0,0,1,.159-1.34,10.449,10.449,0,0,0,1.243.074.7.7,0,0,1,.7.675.647.647,0,0,1-.64.675m3.89-.726a.675.675,0,0,1-.236-1.306,10.957,10.957,0,0,0,1.141-.511.666.666,0,0,1,.9.292.677.677,0,0,1-.29.908,12.384,12.384,0,0,1-1.281.573.653.653,0,0,1-.236.044m-9.055-.515a.66.66,0,0,1-.3-.074,12.73,12.73,0,0,1-1.21-.707.678.678,0,0,1-.193-.934.667.667,0,0,1,.927-.195,11.307,11.307,0,0,0,1.082.633.677.677,0,0,1,.294.907.668.668,0,0,1-.6.37m13.454-2.4a.666.666,0,0,1-.471-.2.678.678,0,0,1,0-.954c.291-.3.574-.614.841-.946a.666.666,0,0,1,.941-.1.678.678,0,0,1,.1.949c-.3.366-.607.717-.929,1.044a.667.667,0,0,1-.475.2m-17.541-.95a.668.668,0,0,1-.518-.246c-.29-.357-.569-.735-.828-1.123a.678.678,0,0,1,.181-.937.665.665,0,0,1,.929.182c.236.353.49.7.754,1.022a.679.679,0,0,1-.093.95.664.664,0,0,1-.424.152M35.723,27.8a.668.668,0,0,1-.267-.056.677.677,0,0,1-.347-.888c.168-.387.321-.789.456-1.193a.669.669,0,0,1,.848-.424.676.676,0,0,1,.421.855c-.147.44-.314.879-.5,1.3a.671.671,0,0,1-.614.405M12.691,26.613a.671.671,0,0,1-.634-.457c-.148-.437-.279-.887-.39-1.338a.669.669,0,1,1,1.3-.326c.1.413.223.827.359,1.228a.676.676,0,0,1-.417.856.653.653,0,0,1-.216.037m24.3-3.978-.052,0a.674.674,0,0,1-.616-.725c.031-.409.048-.826.048-1.24a.691.691,0,0,1,.669-.7.653.653,0,0,1,.669.652v.044c0,.449-.017.9-.052,1.344a.671.671,0,0,1-.666.623M11.835,21.351a.666.666,0,0,1-.669-.667v-.015c0-.46.018-.923.054-1.374a.669.669,0,1,1,1.334.107c-.033.417-.05.843-.05,1.267a.678.678,0,0,1-.669.682m24.711-4.022a.669.669,0,0,1-.648-.509c-.1-.415-.225-.828-.361-1.228a.676.676,0,0,1,.416-.857.666.666,0,0,1,.85.42c.149.436.28.885.393,1.335a.675.675,0,0,1-.485.819.619.619,0,0,1-.165.021M12.682,16.1a.669.669,0,0,1-.215-.036.676.676,0,0,1-.419-.855c.148-.438.316-.876.5-1.3a.667.667,0,0,1,.881-.348.677.677,0,0,1,.345.888c-.169.389-.323.791-.458,1.193a.671.671,0,0,1-.634.459m21.723-3.638a.667.667,0,0,1-.555-.3c-.237-.352-.491-.7-.756-1.02a.679.679,0,0,1,.091-.95.666.666,0,0,1,.942.092c.291.357.571.734.831,1.122a.678.678,0,0,1-.179.937.663.663,0,0,1-.375.116M15.222,11.439a.663.663,0,0,1-.423-.152.678.678,0,0,1-.094-.949c.3-.364.608-.715.931-1.042a.666.666,0,0,1,.946,0,.678.678,0,0,1,0,.954c-.292.3-.576.614-.844.945a.663.663,0,0,1-.518.248M30.664,8.721a.658.658,0,0,1-.364-.109,11.358,11.358,0,0,0-1.085-.63.677.677,0,0,1-.3-.906.667.667,0,0,1,.9-.3,12.531,12.531,0,0,1,1.212.7.678.678,0,0,1,.2.934.665.665,0,0,1-.561.306M19.3,8.08a.668.668,0,0,1-.6-.368A.677.677,0,0,1,19,6.8a12.314,12.314,0,0,1,1.282-.569.667.667,0,0,1,.861.4.676.676,0,0,1-.393.868,10.9,10.9,0,0,0-1.143.508.658.658,0,0,1-.3.074M25.73,6.9a.61.61,0,0,1-.078,0,10.492,10.492,0,0,0-1.217-.071.684.684,0,0,1-.683-.675.66.66,0,0,1,.655-.675h.028a11.8,11.8,0,0,1,1.372.08A.675.675,0,0,1,25.73,6.9" transform="translate(-3.53 -1.782)"/>
      <path id="XMLID_114_2" data-name="XMLID_114_" class="cls-4" d="M4.513,29H.5c.013.454.039.9.08,1.349H4.6Q4.534,29.681,4.513,29" transform="translate(0 -9.439)"/>
      <path id="XMLID_113_2" data-name="XMLID_113_" class="cls-4" d="M4.682,24H.67c-.056.445-.1.9-.123,1.349H4.561c.028-.454.066-.9.121-1.349" transform="translate(-0.016 -7.812)"/>
      <path id="XMLID_112_2" data-name="XMLID_112_" class="cls-4" d="M5.062,34H1.047q.13.684.3,1.349H5.362q-.171-.665-.3-1.349" transform="translate(-0.181 -11.067)"/>
      <path id="XMLID_111_2" data-name="XMLID_111_" class="cls-4" d="M6.46,39H2.443c.171.46.359.909.56,1.349H7.018q-.3-.66-.558-1.349" transform="translate(-0.643 -12.694)"/>
      <path id="XMLID_110_2" data-name="XMLID_110_" class="cls-4" d="M5.613,19H1.6c-.13.443-.252.892-.354,1.349H5.269c.1-.456.215-.907.345-1.349" transform="translate(-0.248 -6.184)"/>
      <path id="XMLID_109_2" data-name="XMLID_109_" class="cls-4" d="M7.472,14H3.458c-.221.439-.429.888-.619,1.349H6.856q.285-.69.616-1.349" transform="translate(-0.774 -4.557)"/>
      <path id="XMLID_108_2" data-name="XMLID_108_" class="cls-4" d="M11.32,8H7.3q-.571.643-1.085,1.349h4.018Q10.748,8.644,11.32,8" transform="translate(-1.892 -2.604)"/>
      <path id="XMLID_107_2" data-name="XMLID_107_" class="cls-4" d="M17,3H12.975a16.083,16.083,0,0,0-1.964,1.349h4.02A16.112,16.112,0,0,1,17,3" transform="translate(-3.479 -0.976)"/>
      <path id="XMLID_106_2" data-name="XMLID_106_" class="cls-4" d="M9.532,45H5.516q.466.7.985,1.349H10.52Q10,45.7,9.532,45" transform="translate(-1.66 -14.647)"/>
      <path id="XMLID_105_2" data-name="XMLID_105_" class="cls-4" d="M9.832,50a16.616,16.616,0,0,0,1.689,1.349h4.024A16.481,16.481,0,0,1,13.845,50Z" transform="translate(-3.089 -16.275)"/>
    </g>
    <g id="coin-3" data-name="coin" transform="matrix(0.485, -0.875, 0.875, 0.485, 206.925, 368.181)">
      <path id="XMLID_99_3" data-name="XMLID_99_" class="cls-2" d="M36.521,69.18C19.941,69.18,6.5,53.694,6.5,34.59S19.941,0,36.521,0,66.541,15.486,66.541,34.59,53.1,69.18,36.521,69.18" transform="translate(1.352)"/>
      <path id="XMLID_132_3" data-name="XMLID_132_" class="cls-3" d="M7.852,34.59C7.852,16.922,19.352,2.357,34.2.267A26.413,26.413,0,0,0,30.521,0C13.941,0,.5,15.486.5,34.59S13.941,69.18,30.521,69.18a26.413,26.413,0,0,0,3.676-.267C19.352,66.823,7.852,52.258,7.852,34.59" transform="translate(0)"/>
      <path id="XMLID_115_3" data-name="XMLID_115_" class="cls-3" d="M35.573,61.127h-.105a21.664,21.664,0,0,1-2.567-.153,1.235,1.235,0,0,1,.29-2.453,19.138,19.138,0,0,0,2.277.136,1.276,1.276,0,0,1,1.278,1.235,1.186,1.186,0,0,1-1.173,1.235M42.7,59.8a1.237,1.237,0,0,1-.433-2.392,20.067,20.067,0,0,0,2.09-.935A1.219,1.219,0,0,1,46.007,57a1.24,1.24,0,0,1-.532,1.663,22.681,22.681,0,0,1-2.345,1.049,1.2,1.2,0,0,1-.431.08m-16.585-.944a1.209,1.209,0,0,1-.554-.135,23.314,23.314,0,0,1-2.217-1.295,1.241,1.241,0,0,1-.354-1.71,1.222,1.222,0,0,1,1.7-.357,20.709,20.709,0,0,0,1.983,1.159,1.24,1.24,0,0,1,.538,1.66,1.223,1.223,0,0,1-1.093.677m24.641-4.4a1.219,1.219,0,0,1-.863-.358,1.242,1.242,0,0,1-.007-1.747c.533-.541,1.051-1.124,1.54-1.732a1.22,1.22,0,0,1,1.724-.179,1.242,1.242,0,0,1,.178,1.738c-.54.67-1.113,1.313-1.7,1.912a1.221,1.221,0,0,1-.87.366M18.63,52.717a1.223,1.223,0,0,1-.948-.451c-.532-.655-1.043-1.347-1.517-2.057a1.242,1.242,0,0,1,.331-1.716,1.218,1.218,0,0,1,1.7.334c.433.647.9,1.277,1.381,1.872a1.244,1.244,0,0,1-.17,1.739,1.216,1.216,0,0,1-.777.279m37.512-6.346a1.223,1.223,0,0,1-.489-.1,1.241,1.241,0,0,1-.635-1.627c.308-.709.588-1.445.834-2.185a1.225,1.225,0,0,1,1.552-.777,1.239,1.239,0,0,1,.771,1.565c-.27.807-.576,1.61-.91,2.384a1.229,1.229,0,0,1-1.124.742M13.959,44.189a1.23,1.23,0,0,1-1.16-.838c-.271-.8-.511-1.625-.714-2.45a1.225,1.225,0,1,1,2.377-.6c.187.757.408,1.515.657,2.248a1.238,1.238,0,0,1-.763,1.568,1.2,1.2,0,0,1-.4.068m44.5-7.285q-.048,0-.1,0a1.234,1.234,0,0,1-1.127-1.328c.058-.749.087-1.513.087-2.271a1.265,1.265,0,0,1,1.225-1.275,1.2,1.2,0,0,1,1.225,1.195v.08c0,.822-.032,1.649-.094,2.462a1.23,1.23,0,0,1-1.22,1.14M12.391,34.55a1.219,1.219,0,0,1-1.225-1.222V33.3c0-.843.033-1.69.1-2.516a1.226,1.226,0,1,1,2.443.2c-.06.763-.091,1.544-.091,2.321a1.243,1.243,0,0,1-1.225,1.249M57.65,27.184a1.226,1.226,0,0,1-1.186-.933c-.19-.76-.412-1.516-.662-2.25a1.238,1.238,0,0,1,.762-1.569,1.22,1.22,0,0,1,1.556.768c.272.8.513,1.621.719,2.445a1.236,1.236,0,0,1-.888,1.5,1.134,1.134,0,0,1-.3.038M13.943,24.939a1.225,1.225,0,0,1-.395-.067,1.238,1.238,0,0,1-.767-1.566c.271-.8.578-1.6.915-2.382a1.222,1.222,0,0,1,1.614-.637,1.24,1.24,0,0,1,.632,1.627c-.31.713-.592,1.449-.839,2.185a1.229,1.229,0,0,1-1.16.84m39.787-6.662a1.221,1.221,0,0,1-1.016-.544c-.434-.645-.9-1.274-1.385-1.868a1.243,1.243,0,0,1,.167-1.739,1.22,1.22,0,0,1,1.725.168c.533.654,1.045,1.344,1.522,2.054a1.242,1.242,0,0,1-.327,1.716,1.214,1.214,0,0,1-.686.212M18.594,16.4a1.214,1.214,0,0,1-.774-.279,1.241,1.241,0,0,1-.173-1.738c.54-.667,1.114-1.309,1.7-1.909a1.22,1.22,0,0,1,1.733,0,1.242,1.242,0,0,1,.006,1.747c-.534.542-1.055,1.124-1.546,1.731a1.213,1.213,0,0,1-.95.453m28.283-4.979a1.205,1.205,0,0,1-.667-.2,20.8,20.8,0,0,0-1.988-1.154,1.24,1.24,0,0,1-.54-1.659,1.221,1.221,0,0,1,1.646-.546,22.951,22.951,0,0,1,2.219,1.288,1.241,1.241,0,0,1,.358,1.71,1.218,1.218,0,0,1-1.028.561M26.07,10.246a1.224,1.224,0,0,1-1.093-.675,1.24,1.24,0,0,1,.535-1.662A22.554,22.554,0,0,1,27.86,6.867a1.222,1.222,0,0,1,1.577.724,1.239,1.239,0,0,1-.719,1.59,19.968,19.968,0,0,0-2.094.93,1.2,1.2,0,0,1-.554.135M37.84,8.085a1.117,1.117,0,0,1-.143-.009,19.216,19.216,0,0,0-2.229-.13,1.253,1.253,0,0,1-1.251-1.235,1.209,1.209,0,0,1,1.2-1.235h.051a21.617,21.617,0,0,1,2.512.147,1.236,1.236,0,0,1-.14,2.462" transform="translate(2.403 1.289)"/>
      <path id="XMLID_114_3" data-name="XMLID_114_" class="cls-4" d="M7.85,29H.5c.025.831.071,1.655.146,2.471H8Q7.888,30.248,7.85,29" transform="translate(0 6.825)"/>
      <path id="XMLID_113_3" data-name="XMLID_113_" class="cls-4" d="M8.12,24H.772c-.1.814-.175,1.639-.225,2.471H7.9c.051-.831.12-1.657.222-2.471" transform="translate(0.011 5.649)"/>
      <path id="XMLID_112_3" data-name="XMLID_112_" class="cls-4" d="M8.4,34H1.047q.239,1.253.553,2.471H8.95Q8.638,35.253,8.4,34" transform="translate(0.123 8.002)"/>
      <path id="XMLID_111_3" data-name="XMLID_111_" class="cls-4" d="M9.8,39H2.443c.312.843.658,1.664,1.026,2.471h7.353Q10.27,40.263,9.8,39" transform="translate(0.438 9.179)"/>
      <path id="XMLID_110_3" data-name="XMLID_110_" class="cls-4" d="M9.242,19H1.9c-.239.812-.462,1.633-.648,2.471H8.611C8.8,20.636,9,19.809,9.242,19" transform="translate(0.169 4.472)"/>
      <path id="XMLID_109_3" data-name="XMLID_109_" class="cls-4" d="M11.324,14H3.972c-.4.8-.785,1.627-1.133,2.471H10.2q.522-1.264,1.129-2.471" transform="translate(0.527 3.295)"/>
      <path id="XMLID_108_3" data-name="XMLID_108_" class="cls-4" d="M15.564,8H8.2Q7.158,9.179,6.216,10.471h7.358Q14.517,9.179,15.564,8" transform="translate(1.288 1.883)"/>
      <path id="XMLID_107_3" data-name="XMLID_107_" class="cls-4" d="M21.977,3H14.609a29.457,29.457,0,0,0-3.6,2.471h7.363A29.51,29.51,0,0,1,21.977,3" transform="translate(2.368 0.706)"/>
      <path id="XMLID_106_3" data-name="XMLID_106_" class="cls-4" d="M12.872,45H5.516q.853,1.284,1.8,2.471H14.68Q13.728,46.285,12.872,45" transform="translate(1.13 10.591)"/>
      <path id="XMLID_105_3" data-name="XMLID_105_" class="cls-4" d="M9.832,50a30.431,30.431,0,0,0,3.093,2.471h7.369A30.185,30.185,0,0,1,17.182,50Z" transform="translate(2.103 11.768)"/>
    </g>
    <g id="coin-4" data-name="coin" transform="translate(1283.949 162.007) rotate(-110)">
      <path id="XMLID_99_4" data-name="XMLID_99_" class="cls-2" d="M36.521,69.18C19.941,69.18,6.5,53.694,6.5,34.59S19.941,0,36.521,0,66.541,15.486,66.541,34.59,53.1,69.18,36.521,69.18" transform="translate(1.352)"/>
      <path id="XMLID_132_4" data-name="XMLID_132_" class="cls-3" d="M7.852,34.59C7.852,16.922,19.352,2.357,34.2.267A26.413,26.413,0,0,0,30.521,0C13.941,0,.5,15.486.5,34.59S13.941,69.18,30.521,69.18a26.413,26.413,0,0,0,3.676-.267C19.352,66.823,7.852,52.258,7.852,34.59" transform="translate(0)"/>
      <path id="XMLID_115_4" data-name="XMLID_115_" class="cls-3" d="M35.573,61.127h-.105a21.664,21.664,0,0,1-2.567-.153,1.235,1.235,0,0,1,.29-2.453,19.138,19.138,0,0,0,2.277.136,1.276,1.276,0,0,1,1.278,1.235,1.186,1.186,0,0,1-1.173,1.235M42.7,59.8a1.237,1.237,0,0,1-.433-2.392,20.067,20.067,0,0,0,2.09-.935A1.219,1.219,0,0,1,46.007,57a1.24,1.24,0,0,1-.532,1.663,22.681,22.681,0,0,1-2.345,1.049,1.2,1.2,0,0,1-.431.08m-16.585-.944a1.209,1.209,0,0,1-.554-.135,23.314,23.314,0,0,1-2.217-1.295,1.241,1.241,0,0,1-.354-1.71,1.222,1.222,0,0,1,1.7-.357,20.709,20.709,0,0,0,1.983,1.159,1.24,1.24,0,0,1,.538,1.66,1.223,1.223,0,0,1-1.093.677m24.641-4.4a1.219,1.219,0,0,1-.863-.358,1.242,1.242,0,0,1-.007-1.747c.533-.541,1.051-1.124,1.54-1.732a1.22,1.22,0,0,1,1.724-.179,1.242,1.242,0,0,1,.178,1.738c-.54.67-1.113,1.313-1.7,1.912a1.221,1.221,0,0,1-.87.366M18.63,52.717a1.223,1.223,0,0,1-.948-.451c-.532-.655-1.043-1.347-1.517-2.057a1.242,1.242,0,0,1,.331-1.716,1.218,1.218,0,0,1,1.7.334c.433.647.9,1.277,1.381,1.872a1.244,1.244,0,0,1-.17,1.739,1.216,1.216,0,0,1-.777.279m37.512-6.346a1.223,1.223,0,0,1-.489-.1,1.241,1.241,0,0,1-.635-1.627c.308-.709.588-1.445.834-2.185a1.225,1.225,0,0,1,1.552-.777,1.239,1.239,0,0,1,.771,1.565c-.27.807-.576,1.61-.91,2.384a1.229,1.229,0,0,1-1.124.742M13.959,44.189a1.23,1.23,0,0,1-1.16-.838c-.271-.8-.511-1.625-.714-2.45a1.225,1.225,0,1,1,2.377-.6c.187.757.408,1.515.657,2.248a1.238,1.238,0,0,1-.763,1.568,1.2,1.2,0,0,1-.4.068m44.5-7.285q-.048,0-.1,0a1.234,1.234,0,0,1-1.127-1.328c.058-.749.087-1.513.087-2.271a1.265,1.265,0,0,1,1.225-1.275,1.2,1.2,0,0,1,1.225,1.195v.08c0,.822-.032,1.649-.094,2.462a1.23,1.23,0,0,1-1.22,1.14M12.391,34.55a1.219,1.219,0,0,1-1.225-1.222V33.3c0-.843.033-1.69.1-2.516a1.226,1.226,0,1,1,2.443.2c-.06.763-.091,1.544-.091,2.321a1.243,1.243,0,0,1-1.225,1.249M57.65,27.184a1.226,1.226,0,0,1-1.186-.933c-.19-.76-.412-1.516-.662-2.25a1.238,1.238,0,0,1,.762-1.569,1.22,1.22,0,0,1,1.556.768c.272.8.513,1.621.719,2.445a1.236,1.236,0,0,1-.888,1.5,1.134,1.134,0,0,1-.3.038M13.943,24.939a1.225,1.225,0,0,1-.395-.067,1.238,1.238,0,0,1-.767-1.566c.271-.8.578-1.6.915-2.382a1.222,1.222,0,0,1,1.614-.637,1.24,1.24,0,0,1,.632,1.627c-.31.713-.592,1.449-.839,2.185a1.229,1.229,0,0,1-1.16.84m39.787-6.662a1.221,1.221,0,0,1-1.016-.544c-.434-.645-.9-1.274-1.385-1.868a1.243,1.243,0,0,1,.167-1.739,1.22,1.22,0,0,1,1.725.168c.533.654,1.045,1.344,1.522,2.054a1.242,1.242,0,0,1-.327,1.716,1.214,1.214,0,0,1-.686.212M18.594,16.4a1.214,1.214,0,0,1-.774-.279,1.241,1.241,0,0,1-.173-1.738c.54-.667,1.114-1.309,1.7-1.909a1.22,1.22,0,0,1,1.733,0,1.242,1.242,0,0,1,.006,1.747c-.534.542-1.055,1.124-1.546,1.731a1.213,1.213,0,0,1-.95.453m28.283-4.979a1.205,1.205,0,0,1-.667-.2,20.8,20.8,0,0,0-1.988-1.154,1.24,1.24,0,0,1-.54-1.659,1.221,1.221,0,0,1,1.646-.546,22.951,22.951,0,0,1,2.219,1.288,1.241,1.241,0,0,1,.358,1.71,1.218,1.218,0,0,1-1.028.561M26.07,10.246a1.224,1.224,0,0,1-1.093-.675,1.24,1.24,0,0,1,.535-1.662A22.554,22.554,0,0,1,27.86,6.867a1.222,1.222,0,0,1,1.577.724,1.239,1.239,0,0,1-.719,1.59,19.968,19.968,0,0,0-2.094.93,1.2,1.2,0,0,1-.554.135M37.84,8.085a1.117,1.117,0,0,1-.143-.009,19.216,19.216,0,0,0-2.229-.13,1.253,1.253,0,0,1-1.251-1.235,1.209,1.209,0,0,1,1.2-1.235h.051a21.617,21.617,0,0,1,2.512.147,1.236,1.236,0,0,1-.14,2.462" transform="translate(2.403 1.289)"/>
      <path id="XMLID_114_4" data-name="XMLID_114_" class="cls-4" d="M7.85,29H.5c.025.831.071,1.655.146,2.471H8Q7.888,30.248,7.85,29" transform="translate(0 6.825)"/>
      <path id="XMLID_113_4" data-name="XMLID_113_" class="cls-4" d="M8.12,24H.772c-.1.814-.175,1.639-.225,2.471H7.9c.051-.831.12-1.657.222-2.471" transform="translate(0.011 5.649)"/>
      <path id="XMLID_112_4" data-name="XMLID_112_" class="cls-4" d="M8.4,34H1.047q.239,1.253.553,2.471H8.95Q8.638,35.253,8.4,34" transform="translate(0.123 8.002)"/>
      <path id="XMLID_111_4" data-name="XMLID_111_" class="cls-4" d="M9.8,39H2.443c.312.843.658,1.664,1.026,2.471h7.353Q10.27,40.263,9.8,39" transform="translate(0.438 9.179)"/>
      <path id="XMLID_110_4" data-name="XMLID_110_" class="cls-4" d="M9.242,19H1.9c-.239.812-.462,1.633-.648,2.471H8.611C8.8,20.636,9,19.809,9.242,19" transform="translate(0.169 4.472)"/>
      <path id="XMLID_109_4" data-name="XMLID_109_" class="cls-4" d="M11.324,14H3.972c-.4.8-.785,1.627-1.133,2.471H10.2q.522-1.264,1.129-2.471" transform="translate(0.527 3.295)"/>
      <path id="XMLID_108_4" data-name="XMLID_108_" class="cls-4" d="M15.564,8H8.2Q7.158,9.179,6.216,10.471h7.358Q14.517,9.179,15.564,8" transform="translate(1.288 1.883)"/>
      <path id="XMLID_107_4" data-name="XMLID_107_" class="cls-4" d="M21.977,3H14.609a29.457,29.457,0,0,0-3.6,2.471h7.363A29.51,29.51,0,0,1,21.977,3" transform="translate(2.368 0.706)"/>
      <path id="XMLID_106_4" data-name="XMLID_106_" class="cls-4" d="M12.872,45H5.516q.853,1.284,1.8,2.471H14.68Q13.728,46.285,12.872,45" transform="translate(1.13 10.591)"/>
      <path id="XMLID_105_4" data-name="XMLID_105_" class="cls-4" d="M9.832,50a30.431,30.431,0,0,0,3.093,2.471h7.369A30.185,30.185,0,0,1,17.182,50Z" transform="translate(2.103 11.768)"/>
    </g>
    <g id="coin-5" data-name="coin" transform="translate(1313.788 649.17) rotate(-76)">
      <path id="XMLID_99_5" data-name="XMLID_99_" class="cls-2" d="M54.06,109.6C27.793,109.6,6.5,85.063,6.5,54.8S27.793,0,54.06,0s47.56,24.534,47.56,54.8-21.293,54.8-47.56,54.8" transform="translate(5.647 0)"/>
      <path id="XMLID_132_5" data-name="XMLID_132_" class="cls-3" d="M12.147,54.8c0-27.99,18.218-51.065,41.736-54.376A41.844,41.844,0,0,0,48.06,0C21.793,0,.5,24.534.5,54.8s21.293,54.8,47.56,54.8a41.844,41.844,0,0,0,5.824-.423C30.366,105.863,12.147,82.789,12.147,54.8" transform="translate(0)"/>
      <path id="XMLID_115_5" data-name="XMLID_115_" class="cls-3" d="M49.833,93.639h-.167A34.321,34.321,0,0,1,45.6,93.4a1.957,1.957,0,0,1,.46-3.887,30.318,30.318,0,0,0,3.607.215,2.021,2.021,0,0,1,2.025,1.957,1.878,1.878,0,0,1-1.858,1.957m11.288-2.108a1.959,1.959,0,0,1-.685-3.789,31.79,31.79,0,0,0,3.312-1.482,1.931,1.931,0,0,1,2.615.847,1.964,1.964,0,0,1-.842,2.634A35.933,35.933,0,0,1,61.8,91.4a1.894,1.894,0,0,1-.683.127m-26.274-1.5a1.915,1.915,0,0,1-.877-.213,36.934,36.934,0,0,1-3.512-2.051,1.966,1.966,0,0,1-.561-2.709,1.936,1.936,0,0,1,2.689-.566,32.806,32.806,0,0,0,3.141,1.836,1.965,1.965,0,0,1,.852,2.63,1.937,1.937,0,0,1-1.732,1.072m39.038-6.963a1.931,1.931,0,0,1-1.367-.568,1.968,1.968,0,0,1-.012-2.767c.844-.857,1.666-1.781,2.44-2.744a1.933,1.933,0,0,1,2.731-.284,1.968,1.968,0,0,1,.281,2.754c-.856,1.061-1.763,2.08-2.7,3.03a1.934,1.934,0,0,1-1.378.579M22.99,80.317a1.938,1.938,0,0,1-1.5-.714c-.842-1.037-1.652-2.133-2.4-3.259a1.968,1.968,0,0,1,.524-2.718,1.929,1.929,0,0,1,2.694.528c.685,1.026,1.421,2.024,2.188,2.965a1.97,1.97,0,0,1-.27,2.756,1.926,1.926,0,0,1-1.231.442M82.418,70.264a1.938,1.938,0,0,1-.775-.162,1.965,1.965,0,0,1-1.006-2.577c.487-1.123.932-2.29,1.322-3.462a1.94,1.94,0,0,1,2.46-1.231,1.963,1.963,0,0,1,1.221,2.48c-.427,1.278-.912,2.55-1.442,3.777a1.947,1.947,0,0,1-1.78,1.176M15.59,66.806a1.948,1.948,0,0,1-1.838-1.327c-.429-1.268-.809-2.574-1.132-3.881a1.941,1.941,0,1,1,3.766-.945c.3,1.2.646,2.4,1.04,3.562A1.961,1.961,0,0,1,16.217,66.7a1.9,1.9,0,0,1-.627.108m70.5-11.541q-.076,0-.151-.006a1.954,1.954,0,0,1-1.786-2.1c.091-1.186.138-2.4.138-3.6a2,2,0,0,1,1.941-2.02,1.9,1.9,0,0,1,1.941,1.893v.127c0,1.3-.05,2.613-.149,3.9a1.948,1.948,0,0,1-1.933,1.806M13.107,51.536A1.932,1.932,0,0,1,11.166,49.6v-.043c0-1.335.052-2.677.155-3.987a1.942,1.942,0,1,1,3.871.309c-.1,1.209-.144,2.446-.144,3.677a1.969,1.969,0,0,1-1.941,1.979m71.7-11.67a1.943,1.943,0,0,1-1.879-1.478c-.3-1.2-.652-2.4-1.048-3.564a1.962,1.962,0,0,1,1.207-2.486,1.932,1.932,0,0,1,2.465,1.217c.431,1.264.813,2.568,1.14,3.873a1.958,1.958,0,0,1-1.407,2.376,1.8,1.8,0,0,1-.478.061M15.565,36.31a1.941,1.941,0,0,1-.625-.106,1.961,1.961,0,0,1-1.215-2.482c.429-1.272.916-2.542,1.45-3.773a1.936,1.936,0,0,1,2.557-1.01,1.964,1.964,0,0,1,1,2.577c-.491,1.129-.938,2.3-1.33,3.462a1.947,1.947,0,0,1-1.838,1.331M78.6,25.755a1.935,1.935,0,0,1-1.609-.861c-.687-1.022-1.425-2.018-2.194-2.959a1.97,1.97,0,0,1,.264-2.756,1.932,1.932,0,0,1,2.733.266c.844,1.035,1.656,2.129,2.411,3.255a1.968,1.968,0,0,1-.518,2.718,1.924,1.924,0,0,1-1.087.337M22.934,22.779a1.924,1.924,0,0,1-1.227-.442,1.966,1.966,0,0,1-.274-2.754c.856-1.057,1.765-2.075,2.7-3.024a1.933,1.933,0,0,1,2.745-.008,1.968,1.968,0,0,1,.01,2.767c-.846.859-1.671,1.781-2.45,2.742a1.922,1.922,0,0,1-1.5.718m44.807-7.887a1.909,1.909,0,0,1-1.056-.317,32.956,32.956,0,0,0-3.149-1.828,1.965,1.965,0,0,1-.856-2.628,1.934,1.934,0,0,1,2.607-.865A36.359,36.359,0,0,1,68.8,11.294,1.966,1.966,0,0,1,69.369,14a1.93,1.93,0,0,1-1.629.889M34.777,13.032a1.939,1.939,0,0,1-1.732-1.069,1.965,1.965,0,0,1,.848-2.632A35.731,35.731,0,0,1,37.613,7.68a1.936,1.936,0,0,1,2.5,1.147,1.963,1.963,0,0,1-1.139,2.519,31.634,31.634,0,0,0-3.318,1.474,1.909,1.909,0,0,1-.877.213M53.424,9.609A1.769,1.769,0,0,1,53.2,9.6a30.442,30.442,0,0,0-3.531-.205,1.985,1.985,0,0,1-1.982-1.957,1.916,1.916,0,0,1,1.9-1.957h.082a34.247,34.247,0,0,1,3.979.233,1.958,1.958,0,0,1-.221,3.9" transform="translate(10.039 5.241)"/>
      <path id="XMLID_114_5" data-name="XMLID_114_" class="cls-4" d="M12.143,29H.5c.039,1.317.113,2.623.231,3.914H12.384Q12.2,30.977,12.143,29" transform="translate(0 27.756)"/>
      <path id="XMLID_113_5" data-name="XMLID_113_" class="cls-4" d="M12.544,24H.9C.743,25.29.627,26.6.547,27.914H12.192c.082-1.317.19-2.624.351-3.914" transform="translate(0.044 22.97)"/>
      <path id="XMLID_112_5" data-name="XMLID_112_" class="cls-4" d="M12.7,34H1.047q.379,1.984.875,3.914H13.568q-.5-1.929-.872-3.914" transform="translate(0.515 32.541)"/>
      <path id="XMLID_111_5" data-name="XMLID_111_" class="cls-4" d="M14.1,39H2.443c.5,1.335,1.042,2.636,1.625,3.914H15.717Q14.843,41,14.1,39" transform="translate(1.829 37.327)"/>
      <path id="XMLID_110_5" data-name="XMLID_110_" class="cls-4" d="M13.911,19H2.277c-.379,1.286-.732,2.587-1.027,3.914H12.911c.3-1.323.623-2.632,1-3.914" transform="translate(0.706 18.185)"/>
      <path id="XMLID_109_5" data-name="XMLID_109_" class="cls-4" d="M16.282,14H4.635c-.641,1.274-1.244,2.577-1.8,3.914H14.494q.827-2,1.788-3.914" transform="translate(2.201 13.399)"/>
      <path id="XMLID_108_5" data-name="XMLID_108_" class="cls-4" d="M21.026,8H9.365Q7.708,9.867,6.216,11.914H17.873Q19.367,9.868,21.026,8" transform="translate(5.38 7.657)"/>
      <path id="XMLID_107_5" data-name="XMLID_107_" class="cls-4" d="M28.383,3H16.71a46.666,46.666,0,0,0-5.7,3.914H22.676A46.751,46.751,0,0,1,28.383,3" transform="translate(9.893 2.871)"/>
      <path id="XMLID_106_5" data-name="XMLID_106_" class="cls-4" d="M17.169,45H5.516q1.351,2.034,2.857,3.914H20.034Q18.526,47.035,17.169,45" transform="translate(4.721 43.069)"/>
      <path id="XMLID_105_5" data-name="XMLID_105_" class="cls-4" d="M9.832,50a48.209,48.209,0,0,0,4.9,3.914H26.406A47.819,47.819,0,0,1,21.475,50Z" transform="translate(8.783 47.855)"/>
    </g>
    <g id="coin-6" data-name="coin" transform="translate(1260.788 375.17) rotate(-76)">
      <path id="XMLID_99_6" data-name="XMLID_99_" class="cls-2" d="M54.06,109.6C27.793,109.6,6.5,85.063,6.5,54.8S27.793,0,54.06,0s47.56,24.534,47.56,54.8-21.293,54.8-47.56,54.8" transform="translate(5.647 0)"/>
      <path id="XMLID_132_6" data-name="XMLID_132_" class="cls-3" d="M12.147,54.8c0-27.99,18.218-51.065,41.736-54.376A41.844,41.844,0,0,0,48.06,0C21.793,0,.5,24.534.5,54.8s21.293,54.8,47.56,54.8a41.844,41.844,0,0,0,5.824-.423C30.366,105.863,12.147,82.789,12.147,54.8" transform="translate(0)"/>
      <path id="XMLID_115_6" data-name="XMLID_115_" class="cls-3" d="M49.833,93.639h-.167A34.321,34.321,0,0,1,45.6,93.4a1.957,1.957,0,0,1,.46-3.887,30.318,30.318,0,0,0,3.607.215,2.021,2.021,0,0,1,2.025,1.957,1.878,1.878,0,0,1-1.858,1.957m11.288-2.108a1.959,1.959,0,0,1-.685-3.789,31.79,31.79,0,0,0,3.312-1.482,1.931,1.931,0,0,1,2.615.847,1.964,1.964,0,0,1-.842,2.634A35.933,35.933,0,0,1,61.8,91.4a1.894,1.894,0,0,1-.683.127m-26.274-1.5a1.915,1.915,0,0,1-.877-.213,36.934,36.934,0,0,1-3.512-2.051,1.966,1.966,0,0,1-.561-2.709,1.936,1.936,0,0,1,2.689-.566,32.806,32.806,0,0,0,3.141,1.836,1.965,1.965,0,0,1,.852,2.63,1.937,1.937,0,0,1-1.732,1.072m39.038-6.963a1.931,1.931,0,0,1-1.367-.568,1.968,1.968,0,0,1-.012-2.767c.844-.857,1.666-1.781,2.44-2.744a1.933,1.933,0,0,1,2.731-.284,1.968,1.968,0,0,1,.281,2.754c-.856,1.061-1.763,2.08-2.7,3.03a1.934,1.934,0,0,1-1.378.579M22.99,80.317a1.938,1.938,0,0,1-1.5-.714c-.842-1.037-1.652-2.133-2.4-3.259a1.968,1.968,0,0,1,.524-2.718,1.929,1.929,0,0,1,2.694.528c.685,1.026,1.421,2.024,2.188,2.965a1.97,1.97,0,0,1-.27,2.756,1.926,1.926,0,0,1-1.231.442M82.418,70.264a1.938,1.938,0,0,1-.775-.162,1.965,1.965,0,0,1-1.006-2.577c.487-1.123.932-2.29,1.322-3.462a1.94,1.94,0,0,1,2.46-1.231,1.963,1.963,0,0,1,1.221,2.48c-.427,1.278-.912,2.55-1.442,3.777a1.947,1.947,0,0,1-1.78,1.176M15.59,66.806a1.948,1.948,0,0,1-1.838-1.327c-.429-1.268-.809-2.574-1.132-3.881a1.941,1.941,0,1,1,3.766-.945c.3,1.2.646,2.4,1.04,3.562A1.961,1.961,0,0,1,16.217,66.7a1.9,1.9,0,0,1-.627.108m70.5-11.541q-.076,0-.151-.006a1.954,1.954,0,0,1-1.786-2.1c.091-1.186.138-2.4.138-3.6a2,2,0,0,1,1.941-2.02,1.9,1.9,0,0,1,1.941,1.893v.127c0,1.3-.05,2.613-.149,3.9a1.948,1.948,0,0,1-1.933,1.806M13.107,51.536A1.932,1.932,0,0,1,11.166,49.6v-.043c0-1.335.052-2.677.155-3.987a1.942,1.942,0,1,1,3.871.309c-.1,1.209-.144,2.446-.144,3.677a1.969,1.969,0,0,1-1.941,1.979m71.7-11.67a1.943,1.943,0,0,1-1.879-1.478c-.3-1.2-.652-2.4-1.048-3.564a1.962,1.962,0,0,1,1.207-2.486,1.932,1.932,0,0,1,2.465,1.217c.431,1.264.813,2.568,1.14,3.873a1.958,1.958,0,0,1-1.407,2.376,1.8,1.8,0,0,1-.478.061M15.565,36.31a1.941,1.941,0,0,1-.625-.106,1.961,1.961,0,0,1-1.215-2.482c.429-1.272.916-2.542,1.45-3.773a1.936,1.936,0,0,1,2.557-1.01,1.964,1.964,0,0,1,1,2.577c-.491,1.129-.938,2.3-1.33,3.462a1.947,1.947,0,0,1-1.838,1.331M78.6,25.755a1.935,1.935,0,0,1-1.609-.861c-.687-1.022-1.425-2.018-2.194-2.959a1.97,1.97,0,0,1,.264-2.756,1.932,1.932,0,0,1,2.733.266c.844,1.035,1.656,2.129,2.411,3.255a1.968,1.968,0,0,1-.518,2.718,1.924,1.924,0,0,1-1.087.337M22.934,22.779a1.924,1.924,0,0,1-1.227-.442,1.966,1.966,0,0,1-.274-2.754c.856-1.057,1.765-2.075,2.7-3.024a1.933,1.933,0,0,1,2.745-.008,1.968,1.968,0,0,1,.01,2.767c-.846.859-1.671,1.781-2.45,2.742a1.922,1.922,0,0,1-1.5.718m44.807-7.887a1.909,1.909,0,0,1-1.056-.317,32.956,32.956,0,0,0-3.149-1.828,1.965,1.965,0,0,1-.856-2.628,1.934,1.934,0,0,1,2.607-.865A36.359,36.359,0,0,1,68.8,11.294,1.966,1.966,0,0,1,69.369,14a1.93,1.93,0,0,1-1.629.889M34.777,13.032a1.939,1.939,0,0,1-1.732-1.069,1.965,1.965,0,0,1,.848-2.632A35.731,35.731,0,0,1,37.613,7.68a1.936,1.936,0,0,1,2.5,1.147,1.963,1.963,0,0,1-1.139,2.519,31.634,31.634,0,0,0-3.318,1.474,1.909,1.909,0,0,1-.877.213M53.424,9.609A1.769,1.769,0,0,1,53.2,9.6a30.442,30.442,0,0,0-3.531-.205,1.985,1.985,0,0,1-1.982-1.957,1.916,1.916,0,0,1,1.9-1.957h.082a34.247,34.247,0,0,1,3.979.233,1.958,1.958,0,0,1-.221,3.9" transform="translate(10.039 5.241)"/>
      <path id="XMLID_114_6" data-name="XMLID_114_" class="cls-4" d="M12.143,29H.5c.039,1.317.113,2.623.231,3.914H12.384Q12.2,30.977,12.143,29" transform="translate(0 27.756)"/>
      <path id="XMLID_113_6" data-name="XMLID_113_" class="cls-4" d="M12.544,24H.9C.743,25.29.627,26.6.547,27.914H12.192c.082-1.317.19-2.624.351-3.914" transform="translate(0.044 22.97)"/>
      <path id="XMLID_112_6" data-name="XMLID_112_" class="cls-4" d="M12.7,34H1.047q.379,1.984.875,3.914H13.568q-.5-1.929-.872-3.914" transform="translate(0.515 32.541)"/>
      <path id="XMLID_111_6" data-name="XMLID_111_" class="cls-4" d="M14.1,39H2.443c.5,1.335,1.042,2.636,1.625,3.914H15.717Q14.843,41,14.1,39" transform="translate(1.829 37.327)"/>
      <path id="XMLID_110_6" data-name="XMLID_110_" class="cls-4" d="M13.911,19H2.277c-.379,1.286-.732,2.587-1.027,3.914H12.911c.3-1.323.623-2.632,1-3.914" transform="translate(0.706 18.185)"/>
      <path id="XMLID_109_6" data-name="XMLID_109_" class="cls-4" d="M16.282,14H4.635c-.641,1.274-1.244,2.577-1.8,3.914H14.494q.827-2,1.788-3.914" transform="translate(2.201 13.399)"/>
      <path id="XMLID_108_6" data-name="XMLID_108_" class="cls-4" d="M21.026,8H9.365Q7.708,9.867,6.216,11.914H17.873Q19.367,9.868,21.026,8" transform="translate(5.38 7.657)"/>
      <path id="XMLID_107_6" data-name="XMLID_107_" class="cls-4" d="M28.383,3H16.71a46.666,46.666,0,0,0-5.7,3.914H22.676A46.751,46.751,0,0,1,28.383,3" transform="translate(9.893 2.871)"/>
      <path id="XMLID_106_6" data-name="XMLID_106_" class="cls-4" d="M17.169,45H5.516q1.351,2.034,2.857,3.914H20.034Q18.526,47.035,17.169,45" transform="translate(4.721 43.069)"/>
      <path id="XMLID_105_6" data-name="XMLID_105_" class="cls-4" d="M9.832,50a48.209,48.209,0,0,0,4.9,3.914H26.406A47.819,47.819,0,0,1,21.475,50Z" transform="translate(8.783 47.855)"/>
    </g>
    <g id="coin-7" data-name="coin" transform="translate(35.585 608.924) rotate(-31)">
      <path id="XMLID_99_7" data-name="XMLID_99_" class="cls-2" d="M54.06,109.6C27.793,109.6,6.5,85.063,6.5,54.8S27.793,0,54.06,0s47.56,24.534,47.56,54.8-21.293,54.8-47.56,54.8" transform="translate(5.647 0)"/>
      <path id="XMLID_132_7" data-name="XMLID_132_" class="cls-3" d="M12.147,54.8c0-27.99,18.218-51.065,41.736-54.376A41.844,41.844,0,0,0,48.06,0C21.793,0,.5,24.534.5,54.8s21.293,54.8,47.56,54.8a41.844,41.844,0,0,0,5.824-.423C30.366,105.863,12.147,82.789,12.147,54.8" transform="translate(0)"/>
      <path id="XMLID_115_7" data-name="XMLID_115_" class="cls-3" d="M49.833,93.639h-.167A34.321,34.321,0,0,1,45.6,93.4a1.957,1.957,0,0,1,.46-3.887,30.318,30.318,0,0,0,3.607.215,2.021,2.021,0,0,1,2.025,1.957,1.878,1.878,0,0,1-1.858,1.957m11.288-2.108a1.959,1.959,0,0,1-.685-3.789,31.79,31.79,0,0,0,3.312-1.482,1.931,1.931,0,0,1,2.615.847,1.964,1.964,0,0,1-.842,2.634A35.933,35.933,0,0,1,61.8,91.4a1.894,1.894,0,0,1-.683.127m-26.274-1.5a1.915,1.915,0,0,1-.877-.213,36.934,36.934,0,0,1-3.512-2.051,1.966,1.966,0,0,1-.561-2.709,1.936,1.936,0,0,1,2.689-.566,32.806,32.806,0,0,0,3.141,1.836,1.965,1.965,0,0,1,.852,2.63,1.937,1.937,0,0,1-1.732,1.072m39.038-6.963a1.931,1.931,0,0,1-1.367-.568,1.968,1.968,0,0,1-.012-2.767c.844-.857,1.666-1.781,2.44-2.744a1.933,1.933,0,0,1,2.731-.284,1.968,1.968,0,0,1,.281,2.754c-.856,1.061-1.763,2.08-2.7,3.03a1.934,1.934,0,0,1-1.378.579M22.99,80.317a1.938,1.938,0,0,1-1.5-.714c-.842-1.037-1.652-2.133-2.4-3.259a1.968,1.968,0,0,1,.524-2.718,1.929,1.929,0,0,1,2.694.528c.685,1.026,1.421,2.024,2.188,2.965a1.97,1.97,0,0,1-.27,2.756,1.926,1.926,0,0,1-1.231.442M82.418,70.264a1.938,1.938,0,0,1-.775-.162,1.965,1.965,0,0,1-1.006-2.577c.487-1.123.932-2.29,1.322-3.462a1.94,1.94,0,0,1,2.46-1.231,1.963,1.963,0,0,1,1.221,2.48c-.427,1.278-.912,2.55-1.442,3.777a1.947,1.947,0,0,1-1.78,1.176M15.59,66.806a1.948,1.948,0,0,1-1.838-1.327c-.429-1.268-.809-2.574-1.132-3.881a1.941,1.941,0,1,1,3.766-.945c.3,1.2.646,2.4,1.04,3.562A1.961,1.961,0,0,1,16.217,66.7a1.9,1.9,0,0,1-.627.108m70.5-11.541q-.076,0-.151-.006a1.954,1.954,0,0,1-1.786-2.1c.091-1.186.138-2.4.138-3.6a2,2,0,0,1,1.941-2.02,1.9,1.9,0,0,1,1.941,1.893v.127c0,1.3-.05,2.613-.149,3.9a1.948,1.948,0,0,1-1.933,1.806M13.107,51.536A1.932,1.932,0,0,1,11.166,49.6v-.043c0-1.335.052-2.677.155-3.987a1.942,1.942,0,1,1,3.871.309c-.1,1.209-.144,2.446-.144,3.677a1.969,1.969,0,0,1-1.941,1.979m71.7-11.67a1.943,1.943,0,0,1-1.879-1.478c-.3-1.2-.652-2.4-1.048-3.564a1.962,1.962,0,0,1,1.207-2.486,1.932,1.932,0,0,1,2.465,1.217c.431,1.264.813,2.568,1.14,3.873a1.958,1.958,0,0,1-1.407,2.376,1.8,1.8,0,0,1-.478.061M15.565,36.31a1.941,1.941,0,0,1-.625-.106,1.961,1.961,0,0,1-1.215-2.482c.429-1.272.916-2.542,1.45-3.773a1.936,1.936,0,0,1,2.557-1.01,1.964,1.964,0,0,1,1,2.577c-.491,1.129-.938,2.3-1.33,3.462a1.947,1.947,0,0,1-1.838,1.331M78.6,25.755a1.935,1.935,0,0,1-1.609-.861c-.687-1.022-1.425-2.018-2.194-2.959a1.97,1.97,0,0,1,.264-2.756,1.932,1.932,0,0,1,2.733.266c.844,1.035,1.656,2.129,2.411,3.255a1.968,1.968,0,0,1-.518,2.718,1.924,1.924,0,0,1-1.087.337M22.934,22.779a1.924,1.924,0,0,1-1.227-.442,1.966,1.966,0,0,1-.274-2.754c.856-1.057,1.765-2.075,2.7-3.024a1.933,1.933,0,0,1,2.745-.008,1.968,1.968,0,0,1,.01,2.767c-.846.859-1.671,1.781-2.45,2.742a1.922,1.922,0,0,1-1.5.718m44.807-7.887a1.909,1.909,0,0,1-1.056-.317,32.956,32.956,0,0,0-3.149-1.828,1.965,1.965,0,0,1-.856-2.628,1.934,1.934,0,0,1,2.607-.865A36.359,36.359,0,0,1,68.8,11.294,1.966,1.966,0,0,1,69.369,14a1.93,1.93,0,0,1-1.629.889M34.777,13.032a1.939,1.939,0,0,1-1.732-1.069,1.965,1.965,0,0,1,.848-2.632A35.731,35.731,0,0,1,37.613,7.68a1.936,1.936,0,0,1,2.5,1.147,1.963,1.963,0,0,1-1.139,2.519,31.634,31.634,0,0,0-3.318,1.474,1.909,1.909,0,0,1-.877.213M53.424,9.609A1.769,1.769,0,0,1,53.2,9.6a30.442,30.442,0,0,0-3.531-.205,1.985,1.985,0,0,1-1.982-1.957,1.916,1.916,0,0,1,1.9-1.957h.082a34.247,34.247,0,0,1,3.979.233,1.958,1.958,0,0,1-.221,3.9" transform="translate(10.039 5.241)"/>
      <path id="XMLID_114_7" data-name="XMLID_114_" class="cls-4" d="M12.143,29H.5c.039,1.317.113,2.623.231,3.914H12.384Q12.2,30.977,12.143,29" transform="translate(0 27.756)"/>
      <path id="XMLID_113_7" data-name="XMLID_113_" class="cls-4" d="M12.544,24H.9C.743,25.29.627,26.6.547,27.914H12.192c.082-1.317.19-2.624.351-3.914" transform="translate(0.044 22.97)"/>
      <path id="XMLID_112_7" data-name="XMLID_112_" class="cls-4" d="M12.7,34H1.047q.379,1.984.875,3.914H13.568q-.5-1.929-.872-3.914" transform="translate(0.515 32.541)"/>
      <path id="XMLID_111_7" data-name="XMLID_111_" class="cls-4" d="M14.1,39H2.443c.5,1.335,1.042,2.636,1.625,3.914H15.717Q14.843,41,14.1,39" transform="translate(1.829 37.327)"/>
      <path id="XMLID_110_7" data-name="XMLID_110_" class="cls-4" d="M13.911,19H2.277c-.379,1.286-.732,2.587-1.027,3.914H12.911c.3-1.323.623-2.632,1-3.914" transform="translate(0.706 18.185)"/>
      <path id="XMLID_109_7" data-name="XMLID_109_" class="cls-4" d="M16.282,14H4.635c-.641,1.274-1.244,2.577-1.8,3.914H14.494q.827-2,1.788-3.914" transform="translate(2.201 13.399)"/>
      <path id="XMLID_108_7" data-name="XMLID_108_" class="cls-4" d="M21.026,8H9.365Q7.708,9.867,6.216,11.914H17.873Q19.367,9.868,21.026,8" transform="translate(5.38 7.657)"/>
      <path id="XMLID_107_7" data-name="XMLID_107_" class="cls-4" d="M28.383,3H16.71a46.666,46.666,0,0,0-5.7,3.914H22.676A46.751,46.751,0,0,1,28.383,3" transform="translate(9.893 2.871)"/>
      <path id="XMLID_106_7" data-name="XMLID_106_" class="cls-4" d="M17.169,45H5.516q1.351,2.034,2.857,3.914H20.034Q18.526,47.035,17.169,45" transform="translate(4.721 43.069)"/>
      <path id="XMLID_105_7" data-name="XMLID_105_" class="cls-4" d="M9.832,50a48.209,48.209,0,0,0,4.9,3.914H26.406A47.819,47.819,0,0,1,21.475,50Z" transform="translate(8.783 47.855)"/>
    </g>
    <g id="coin-8" data-name="coin" transform="translate(100.171 238.295) rotate(-124)">
      <path id="XMLID_99_8" data-name="XMLID_99_" class="cls-2" d="M19.788,30.62C12.449,30.62,6.5,23.766,6.5,15.31S12.449,0,19.788,0,33.075,6.855,33.075,15.31,27.126,30.62,19.788,30.62" transform="translate(-2.746 0)"/>
      <path id="XMLID_132_8" data-name="XMLID_132_" class="cls-3" d="M3.754,15.31c0-7.82,5.09-14.267,11.66-15.192A11.691,11.691,0,0,0,13.788,0C6.449,0,.5,6.855.5,15.31S6.449,30.62,13.788,30.62a11.691,11.691,0,0,0,1.627-.118C8.844,29.577,3.754,23.13,3.754,15.31" transform="translate(0)"/>
      <path id="XMLID_115_8" data-name="XMLID_115_" class="cls-3" d="M21.969,30.108h-.047a9.589,9.589,0,0,1-1.136-.068.547.547,0,0,1,.129-1.086,8.471,8.471,0,0,0,1.008.06.565.565,0,0,1,.566.547.525.525,0,0,1-.519.547m3.154-.589a.547.547,0,0,1-.191-1.059,8.882,8.882,0,0,0,.925-.414.54.54,0,0,1,.731.237.549.549,0,0,1-.235.736,10.039,10.039,0,0,1-1.038.464.529.529,0,0,1-.191.036M17.782,29.1a.535.535,0,0,1-.245-.06,10.319,10.319,0,0,1-.981-.573.549.549,0,0,1-.157-.757.541.541,0,0,1,.751-.158,9.165,9.165,0,0,0,.878.513.549.549,0,0,1,.238.735.541.541,0,0,1-.484.3m10.907-1.945A.54.54,0,0,1,28.307,27a.55.55,0,0,1,0-.773c.236-.239.465-.5.682-.767a.54.54,0,0,1,.763-.079.55.55,0,0,1,.079.769c-.239.3-.492.581-.753.846a.54.54,0,0,1-.385.162m-14.219-.77a.541.541,0,0,1-.42-.2c-.235-.29-.462-.6-.671-.91a.55.55,0,0,1,.146-.759.539.539,0,0,1,.753.148c.191.287.4.565.611.828a.55.55,0,0,1-.075.77.538.538,0,0,1-.344.124m16.6-2.809a.541.541,0,0,1-.216-.045.549.549,0,0,1-.281-.72c.136-.314.26-.64.369-.967a.542.542,0,0,1,.687-.344.548.548,0,0,1,.341.693c-.119.357-.255.712-.4,1.055a.544.544,0,0,1-.5.329M12.4,22.611a.544.544,0,0,1-.514-.371c-.12-.354-.226-.719-.316-1.084a.542.542,0,1,1,1.052-.264c.083.335.181.67.291,1a.548.548,0,0,1-.338.694.529.529,0,0,1-.175.03m19.7-3.224-.042,0a.546.546,0,0,1-.5-.588c.025-.331.039-.67.039-1a.56.56,0,0,1,.542-.564.53.53,0,0,1,.542.529v.036c0,.364-.014.73-.042,1.09a.544.544,0,0,1-.54.5M11.708,18.345a.54.54,0,0,1-.542-.541v-.012c0-.373.015-.748.043-1.114a.542.542,0,1,1,1.081.086c-.027.338-.04.683-.04,1.027a.55.55,0,0,1-.542.553m20.032-3.26a.543.543,0,0,1-.525-.413c-.084-.336-.182-.671-.293-1a.548.548,0,0,1,.337-.694.54.54,0,0,1,.689.34c.12.353.227.717.318,1.082a.547.547,0,0,1-.393.664.5.5,0,0,1-.133.017m-19.346-.994a.542.542,0,0,1-.175-.03.548.548,0,0,1-.34-.693c.12-.355.256-.71.405-1.054A.541.541,0,0,1,13,12.031a.549.549,0,0,1,.28.72c-.137.315-.262.641-.372.967a.544.544,0,0,1-.514.372m17.61-2.949a.541.541,0,0,1-.45-.241c-.192-.285-.4-.564-.613-.827a.55.55,0,0,1,.074-.77.54.54,0,0,1,.764.074c.236.289.463.595.674.909a.55.55,0,0,1-.145.759.537.537,0,0,1-.3.094M14.454,10.31a.538.538,0,0,1-.343-.124.549.549,0,0,1-.076-.769c.239-.3.493-.58.754-.845a.54.54,0,0,1,.767,0,.55.55,0,0,1,0,.773c-.236.24-.467.5-.684.766a.537.537,0,0,1-.42.2m12.518-2.2a.533.533,0,0,1-.3-.089,9.207,9.207,0,0,0-.88-.511.549.549,0,0,1-.239-.734.54.54,0,0,1,.728-.242,10.158,10.158,0,0,1,.982.57.549.549,0,0,1,.158.757.539.539,0,0,1-.455.248m-9.21-.519a.542.542,0,0,1-.484-.3.549.549,0,0,1,.237-.735,9.983,9.983,0,0,1,1.039-.461.541.541,0,0,1,.7.32.548.548,0,0,1-.318.7,8.838,8.838,0,0,0-.927.412.533.533,0,0,1-.245.06m5.21-.956a.494.494,0,0,1-.063,0,8.505,8.505,0,0,0-.987-.057.555.555,0,0,1-.554-.547.535.535,0,0,1,.531-.547h.023a9.568,9.568,0,0,1,1.112.065.547.547,0,0,1-.062,1.09" transform="translate(-4.881 -2.482)"/>
      <path id="XMLID_114_8" data-name="XMLID_114_" class="cls-4" d="M3.753,29H.5c.011.368.031.733.065,1.094H3.82Q3.77,29.552,3.753,29" transform="translate(0 -13.143)"/>
      <path id="XMLID_113_8" data-name="XMLID_113_" class="cls-4" d="M3.9,24H.647c-.045.36-.078.726-.1,1.094H3.8c.023-.368.053-.733.1-1.094" transform="translate(-0.022 -10.877)"/>
      <path id="XMLID_112_8" data-name="XMLID_112_" class="cls-4" d="M4.3,34H1.047q.106.554.245,1.094H4.545Q4.407,34.555,4.3,34" transform="translate(-0.25 -15.409)"/>
      <path id="XMLID_111_8" data-name="XMLID_111_" class="cls-4" d="M5.7,39H2.443c.138.373.291.737.454,1.094H6.152Q5.908,39.559,5.7,39" transform="translate(-0.889 -17.675)"/>
      <path id="XMLID_110_8" data-name="XMLID_110_" class="cls-4" d="M4.787,19H1.537c-.106.359-.2.723-.287,1.094H4.508c.082-.37.174-.735.279-1.094" transform="translate(-0.343 -8.611)"/>
      <path id="XMLID_109_8" data-name="XMLID_109_" class="cls-4" d="M6.595,14H3.341c-.179.356-.348.72-.5,1.094H6.1q.231-.559.5-1.094" transform="translate(-1.07 -6.345)"/>
      <path id="XMLID_108_8" data-name="XMLID_108_" class="cls-4" d="M10.354,8H7.1q-.463.522-.88,1.094H9.473Q9.89,8.522,10.354,8" transform="translate(-2.616 -3.626)"/>
      <path id="XMLID_107_8" data-name="XMLID_107_" class="cls-4" d="M15.864,3H12.6a13.038,13.038,0,0,0-1.592,1.094H14.27A13.062,13.062,0,0,1,15.864,3" transform="translate(-4.81 -1.36)"/>
      <path id="XMLID_106_8" data-name="XMLID_106_" class="cls-4" d="M8.772,45H5.516q.377.568.8,1.094H9.572q-.421-.525-.8-1.094" transform="translate(-2.296 -20.395)"/>
      <path id="XMLID_105_8" data-name="XMLID_105_" class="cls-4" d="M9.832,50A13.469,13.469,0,0,0,11.2,51.094h3.262A13.36,13.36,0,0,1,13.085,50Z" transform="translate(-4.271 -22.661)"/>
    </g>
    <g id="coin-9" data-name="coin" transform="matrix(0.777, -0.629, 0.629, 0.777, 194.63, 153.757)">
      <path id="XMLID_99_9" data-name="XMLID_99_" class="cls-2" d="M28.382,50.424C16.3,50.424,6.5,39.136,6.5,25.212S16.3,0,28.382,0,50.263,11.288,50.263,25.212s-9.8,25.212-21.882,25.212" transform="translate(-0.641 0)"/>
      <path id="XMLID_132_9" data-name="XMLID_132_" class="cls-3" d="M5.859,25.212c0-12.878,8.382-23.494,19.2-25.018A19.252,19.252,0,0,0,22.382,0C10.3,0,.5,11.288.5,25.212s9.8,25.212,21.882,25.212a19.252,19.252,0,0,0,2.679-.194c-10.82-1.524-19.2-12.14-19.2-25.018" transform="translate(0)"/>
      <path id="XMLID_115_9" data-name="XMLID_115_" class="cls-3" d="M28.956,46.039h-.077a15.79,15.79,0,0,1-1.871-.112.9.9,0,0,1,.212-1.788,13.949,13.949,0,0,0,1.659.1.93.93,0,0,1,.932.9.864.864,0,0,1-.855.9m5.194-.97a.9.9,0,0,1-.315-1.743,14.627,14.627,0,0,0,1.524-.682.889.889,0,0,1,1.2.39.9.9,0,0,1-.388,1.212,16.533,16.533,0,0,1-1.709.764.872.872,0,0,1-.314.059m-12.088-.688a.881.881,0,0,1-.4-.1,16.994,16.994,0,0,1-1.616-.944.9.9,0,0,1-.258-1.246.891.891,0,0,1,1.237-.26,15.093,15.093,0,0,0,1.445.845.9.9,0,0,1,.392,1.21.891.891,0,0,1-.8.493m17.961-3.2a.889.889,0,0,1-.629-.261.905.905,0,0,1-.005-1.273c.389-.394.766-.819,1.123-1.262a.889.889,0,0,1,1.257-.131.906.906,0,0,1,.13,1.267c-.394.488-.811.957-1.241,1.394a.89.89,0,0,1-.634.267M16.606,39.909a.892.892,0,0,1-.691-.329c-.388-.477-.76-.981-1.106-1.5a.906.906,0,0,1,.241-1.251.888.888,0,0,1,1.24.243c.315.472.654.931,1.007,1.364a.906.906,0,0,1-.124,1.268.886.886,0,0,1-.566.2m27.342-4.626a.892.892,0,0,1-.356-.075.9.9,0,0,1-.463-1.186c.224-.517.429-1.054.608-1.593a.893.893,0,0,1,1.132-.566A.9.9,0,0,1,45.431,33c-.2.588-.42,1.173-.664,1.738a.9.9,0,0,1-.819.541M13.2,33.693a.9.9,0,0,1-.846-.61c-.2-.583-.372-1.184-.521-1.786a.893.893,0,1,1,1.733-.435c.137.552.3,1.1.479,1.639a.9.9,0,0,1-.556,1.143.872.872,0,0,1-.288.05m32.434-5.31-.07,0a.9.9,0,0,1-.822-.968c.042-.546.063-1.1.063-1.655a.922.922,0,0,1,.893-.929.872.872,0,0,1,.893.871v.059c0,.6-.023,1.2-.069,1.795a.9.9,0,0,1-.89.831M12.059,26.668a.889.889,0,0,1-.893-.891v-.02c0-.614.024-1.232.071-1.834a.893.893,0,1,1,1.781.142c-.044.556-.066,1.126-.066,1.692a.906.906,0,0,1-.893.91M45.048,21.3a.894.894,0,0,1-.865-.68c-.138-.554-.3-1.1-.482-1.64a.9.9,0,0,1,.556-1.144.889.889,0,0,1,1.134.56c.2.582.374,1.181.524,1.782a.9.9,0,0,1-.648,1.093.826.826,0,0,1-.22.028M13.19,19.662a.893.893,0,0,1-.288-.049.9.9,0,0,1-.559-1.142c.2-.585.422-1.17.667-1.736a.891.891,0,0,1,1.176-.465.9.9,0,0,1,.461,1.186c-.226.52-.431,1.056-.612,1.593a.9.9,0,0,1-.846.612m29-4.856a.89.89,0,0,1-.74-.4c-.316-.47-.656-.928-1.009-1.361a.906.906,0,0,1,.121-1.268.889.889,0,0,1,1.258.122c.389.476.762.98,1.109,1.5a.905.905,0,0,1-.238,1.251.885.885,0,0,1-.5.155M16.58,13.437a.885.885,0,0,1-.564-.2.9.9,0,0,1-.126-1.267c.394-.486.812-.954,1.242-1.391a.889.889,0,0,1,1.263,0,.905.905,0,0,1,0,1.273c-.389.4-.769.819-1.127,1.262a.884.884,0,0,1-.692.33M37.2,9.808a.878.878,0,0,1-.486-.146,15.163,15.163,0,0,0-1.449-.841.9.9,0,0,1-.394-1.209.89.89,0,0,1,1.2-.4,16.728,16.728,0,0,1,1.617.939A.9.9,0,0,1,37.945,9.4a.888.888,0,0,1-.749.409M22.029,8.953a.892.892,0,0,1-.8-.492.9.9,0,0,1,.39-1.211,16.439,16.439,0,0,1,1.711-.76.891.891,0,0,1,1.149.528.9.9,0,0,1-.524,1.159,14.554,14.554,0,0,0-1.526.678.878.878,0,0,1-.4.1m8.579-1.575a.814.814,0,0,1-.1-.006,14.006,14.006,0,0,0-1.625-.095.913.913,0,0,1-.912-.9.881.881,0,0,1,.874-.9h.038a15.756,15.756,0,0,1,1.831.107.9.9,0,0,1-.1,1.795" transform="translate(-1.14 -0.545)"/>
      <path id="XMLID_114_9" data-name="XMLID_114_" class="cls-4" d="M5.857,29H.5c.018.606.052,1.207.106,1.8H5.968q-.083-.891-.111-1.8" transform="translate(0 -2.887)"/>
      <path id="XMLID_113_9" data-name="XMLID_113_" class="cls-4" d="M6.067,24H.711c-.074.593-.128,1.195-.164,1.8H5.9c.038-.606.088-1.207.162-1.8" transform="translate(-0.005 -2.39)"/>
      <path id="XMLID_112_9" data-name="XMLID_112_" class="cls-4" d="M6.407,34H1.047q.174.913.4,1.8H6.808q-.228-.887-.4-1.8" transform="translate(-0.058 -3.385)"/>
      <path id="XMLID_111_9" data-name="XMLID_111_" class="cls-4" d="M7.805,39H2.443c.228.614.48,1.213.748,1.8H8.55q-.4-.881-.745-1.8" transform="translate(-0.208 -3.883)"/>
      <path id="XMLID_110_9" data-name="XMLID_110_" class="cls-4" d="M7.075,19H1.722c-.174.592-.337,1.19-.472,1.8H6.615c.136-.609.287-1.211.46-1.8" transform="translate(-0.08 -1.892)"/>
      <path id="XMLID_109_9" data-name="XMLID_109_" class="cls-4" d="M9.024,14H3.665c-.295.586-.572,1.186-.826,1.8H8.2q.38-.921.823-1.8" transform="translate(-0.25 -1.394)"/>
      <path id="XMLID_108_9" data-name="XMLID_108_" class="cls-4" d="M13.03,8H7.665Q6.9,8.859,6.216,9.8h5.363q.687-.941,1.45-1.8" transform="translate(-0.611 -0.797)"/>
      <path id="XMLID_107_9" data-name="XMLID_107_" class="cls-4" d="M19,3h-5.37a21.47,21.47,0,0,0-2.622,1.8h5.367A21.509,21.509,0,0,1,19,3" transform="translate(-1.123 -0.299)"/>
      <path id="XMLID_106_9" data-name="XMLID_106_" class="cls-4" d="M10.877,45H5.516q.622.936,1.315,1.8H12.2q-.694-.864-1.318-1.8" transform="translate(-0.536 -4.481)"/>
      <path id="XMLID_105_9" data-name="XMLID_105_" class="cls-4" d="M9.832,50a22.179,22.179,0,0,0,2.254,1.8h5.371A22,22,0,0,1,15.189,50Z" transform="translate(-0.997 -4.978)"/>
    </g>
    <g id="coin-10" data-name="coin" transform="matrix(0.777, -0.629, 0.629, 0.777, 21.63, 473.757)">
      <path id="XMLID_99_10" data-name="XMLID_99_" class="cls-2" d="M28.382,50.424C16.3,50.424,6.5,39.136,6.5,25.212S16.3,0,28.382,0,50.263,11.288,50.263,25.212s-9.8,25.212-21.882,25.212" transform="translate(-0.641 0)"/>
      <path id="XMLID_132_10" data-name="XMLID_132_" class="cls-3" d="M5.859,25.212c0-12.878,8.382-23.494,19.2-25.018A19.252,19.252,0,0,0,22.382,0C10.3,0,.5,11.288.5,25.212s9.8,25.212,21.882,25.212a19.252,19.252,0,0,0,2.679-.194c-10.82-1.524-19.2-12.14-19.2-25.018" transform="translate(0)"/>
      <path id="XMLID_115_10" data-name="XMLID_115_" class="cls-3" d="M28.956,46.039h-.077a15.79,15.79,0,0,1-1.871-.112.9.9,0,0,1,.212-1.788,13.949,13.949,0,0,0,1.659.1.93.93,0,0,1,.932.9.864.864,0,0,1-.855.9m5.194-.97a.9.9,0,0,1-.315-1.743,14.627,14.627,0,0,0,1.524-.682.889.889,0,0,1,1.2.39.9.9,0,0,1-.388,1.212,16.533,16.533,0,0,1-1.709.764.872.872,0,0,1-.314.059m-12.088-.688a.881.881,0,0,1-.4-.1,16.994,16.994,0,0,1-1.616-.944.9.9,0,0,1-.258-1.246.891.891,0,0,1,1.237-.26,15.093,15.093,0,0,0,1.445.845.9.9,0,0,1,.392,1.21.891.891,0,0,1-.8.493m17.961-3.2a.889.889,0,0,1-.629-.261.905.905,0,0,1-.005-1.273c.389-.394.766-.819,1.123-1.262a.889.889,0,0,1,1.257-.131.906.906,0,0,1,.13,1.267c-.394.488-.811.957-1.241,1.394a.89.89,0,0,1-.634.267M16.606,39.909a.892.892,0,0,1-.691-.329c-.388-.477-.76-.981-1.106-1.5a.906.906,0,0,1,.241-1.251.888.888,0,0,1,1.24.243c.315.472.654.931,1.007,1.364a.906.906,0,0,1-.124,1.268.886.886,0,0,1-.566.2m27.342-4.626a.892.892,0,0,1-.356-.075.9.9,0,0,1-.463-1.186c.224-.517.429-1.054.608-1.593a.893.893,0,0,1,1.132-.566A.9.9,0,0,1,45.431,33c-.2.588-.42,1.173-.664,1.738a.9.9,0,0,1-.819.541M13.2,33.693a.9.9,0,0,1-.846-.61c-.2-.583-.372-1.184-.521-1.786a.893.893,0,1,1,1.733-.435c.137.552.3,1.1.479,1.639a.9.9,0,0,1-.556,1.143.872.872,0,0,1-.288.05m32.434-5.31-.07,0a.9.9,0,0,1-.822-.968c.042-.546.063-1.1.063-1.655a.922.922,0,0,1,.893-.929.872.872,0,0,1,.893.871v.059c0,.6-.023,1.2-.069,1.795a.9.9,0,0,1-.89.831M12.059,26.668a.889.889,0,0,1-.893-.891v-.02c0-.614.024-1.232.071-1.834a.893.893,0,1,1,1.781.142c-.044.556-.066,1.126-.066,1.692a.906.906,0,0,1-.893.91M45.048,21.3a.894.894,0,0,1-.865-.68c-.138-.554-.3-1.1-.482-1.64a.9.9,0,0,1,.556-1.144.889.889,0,0,1,1.134.56c.2.582.374,1.181.524,1.782a.9.9,0,0,1-.648,1.093.826.826,0,0,1-.22.028M13.19,19.662a.893.893,0,0,1-.288-.049.9.9,0,0,1-.559-1.142c.2-.585.422-1.17.667-1.736a.891.891,0,0,1,1.176-.465.9.9,0,0,1,.461,1.186c-.226.52-.431,1.056-.612,1.593a.9.9,0,0,1-.846.612m29-4.856a.89.89,0,0,1-.74-.4c-.316-.47-.656-.928-1.009-1.361a.906.906,0,0,1,.121-1.268.889.889,0,0,1,1.258.122c.389.476.762.98,1.109,1.5a.905.905,0,0,1-.238,1.251.885.885,0,0,1-.5.155M16.58,13.437a.885.885,0,0,1-.564-.2.9.9,0,0,1-.126-1.267c.394-.486.812-.954,1.242-1.391a.889.889,0,0,1,1.263,0,.905.905,0,0,1,0,1.273c-.389.4-.769.819-1.127,1.262a.884.884,0,0,1-.692.33M37.2,9.808a.878.878,0,0,1-.486-.146,15.163,15.163,0,0,0-1.449-.841.9.9,0,0,1-.394-1.209.89.89,0,0,1,1.2-.4,16.728,16.728,0,0,1,1.617.939A.9.9,0,0,1,37.945,9.4a.888.888,0,0,1-.749.409M22.029,8.953a.892.892,0,0,1-.8-.492.9.9,0,0,1,.39-1.211,16.439,16.439,0,0,1,1.711-.76.891.891,0,0,1,1.149.528.9.9,0,0,1-.524,1.159,14.554,14.554,0,0,0-1.526.678.878.878,0,0,1-.4.1m8.579-1.575a.814.814,0,0,1-.1-.006,14.006,14.006,0,0,0-1.625-.095.913.913,0,0,1-.912-.9.881.881,0,0,1,.874-.9h.038a15.756,15.756,0,0,1,1.831.107.9.9,0,0,1-.1,1.795" transform="translate(-1.14 -0.545)"/>
      <path id="XMLID_114_10" data-name="XMLID_114_" class="cls-4" d="M5.857,29H.5c.018.606.052,1.207.106,1.8H5.968q-.083-.891-.111-1.8" transform="translate(0 -2.887)"/>
      <path id="XMLID_113_10" data-name="XMLID_113_" class="cls-4" d="M6.067,24H.711c-.074.593-.128,1.195-.164,1.8H5.9c.038-.606.088-1.207.162-1.8" transform="translate(-0.005 -2.39)"/>
      <path id="XMLID_112_10" data-name="XMLID_112_" class="cls-4" d="M6.407,34H1.047q.174.913.4,1.8H6.808q-.228-.887-.4-1.8" transform="translate(-0.058 -3.385)"/>
      <path id="XMLID_111_10" data-name="XMLID_111_" class="cls-4" d="M7.805,39H2.443c.228.614.48,1.213.748,1.8H8.55q-.4-.881-.745-1.8" transform="translate(-0.208 -3.883)"/>
      <path id="XMLID_110_10" data-name="XMLID_110_" class="cls-4" d="M7.075,19H1.722c-.174.592-.337,1.19-.472,1.8H6.615c.136-.609.287-1.211.46-1.8" transform="translate(-0.08 -1.892)"/>
      <path id="XMLID_109_10" data-name="XMLID_109_" class="cls-4" d="M9.024,14H3.665c-.295.586-.572,1.186-.826,1.8H8.2q.38-.921.823-1.8" transform="translate(-0.25 -1.394)"/>
      <path id="XMLID_108_10" data-name="XMLID_108_" class="cls-4" d="M13.03,8H7.665Q6.9,8.859,6.216,9.8h5.363q.687-.941,1.45-1.8" transform="translate(-0.611 -0.797)"/>
      <path id="XMLID_107_10" data-name="XMLID_107_" class="cls-4" d="M19,3h-5.37a21.47,21.47,0,0,0-2.622,1.8h5.367A21.509,21.509,0,0,1,19,3" transform="translate(-1.123 -0.299)"/>
      <path id="XMLID_106_10" data-name="XMLID_106_" class="cls-4" d="M10.877,45H5.516q.622.936,1.315,1.8H12.2q-.694-.864-1.318-1.8" transform="translate(-0.536 -4.481)"/>
      <path id="XMLID_105_10" data-name="XMLID_105_" class="cls-4" d="M9.832,50a22.179,22.179,0,0,0,2.254,1.8h5.371A22,22,0,0,1,15.189,50Z" transform="translate(-0.997 -4.978)"/>
    </g>
  </g>
</svg>
