<svg xmlns="http://www.w3.org/2000/svg" viewBox="0 0 453.78 173.69"><defs><style>.cls-1{fill:#060e19;}.cls-2{fill:#fff;}</style></defs><title>Logo</title><g id="Capa_2" data-name="Capa 2"><g id="Capa_1-2" data-name="Capa 1"><path class="cls-1" d="M13.42,33.56H28.15a13.37,13.37,0,0,1,1.65.07,4,4,0,0,1,1.27.45c.86.45,1.29,1.69,1.29,3.73,0,2.23-.59,3.54-1.77,3.92A7.72,7.72,0,0,1,28.1,42H9.17c-2.24,0-3.54-.6-3.92-1.82A7.26,7.26,0,0,1,5,37.76V11.18c0-1.63.3-2.74.91-3.33S7.62,7,9.31,7H28.15A13.37,13.37,0,0,1,29.8,7a4,4,0,0,1,1.27.45c.86.45,1.29,1.69,1.29,3.73,0,2.24-.59,3.54-1.77,3.92a7.72,7.72,0,0,1-2.49.29H13.42v4.83h9.47a15.89,15.89,0,0,1,1.65.07,3.8,3.8,0,0,1,1.27.46c.86.44,1.29,1.69,1.29,3.73,0,2.23-.61,3.54-1.82,3.92a8,8,0,0,1-2.48.29H13.42Z"/><path class="cls-1" d="M35.47,9.17a13.37,13.37,0,0,1,.07-1.65A4.31,4.31,0,0,1,36,6.25C36.39,5.39,37.64,5,39.68,5s3.15.43,3.63,1.29a3.81,3.81,0,0,1,.46,1.29,16.64,16.64,0,0,1,.07,1.67V31.36a5,5,0,0,0,.28,2.17c.2.31.62.46,1.27.46a7.56,7.56,0,0,1,1.32.07,2.49,2.49,0,0,1,.81.4c.64.42,1,1.55,1,3.4,0,2-.32,3.24-1,3.68-.83.58-2.81.67-5.93.29q-3.69-.48-4.78-2.44c-.9-1.56-1.34-4-1.34-7.46Z"/><path class="cls-1" d="M89.08,14a12.66,12.66,0,0,1,1.24,5.65,12.5,12.5,0,0,1-1.24,5.62,11.06,11.06,0,0,1-3.21,4,13.29,13.29,0,0,1-8.22,3.06h-6v5.4a13.37,13.37,0,0,1-.07,1.65,3.8,3.8,0,0,1-.46,1.27c-.44.86-1.69,1.29-3.73,1.29-2.23,0-3.53-.59-3.92-1.77a8,8,0,0,1-.28-2.48V11.18a13.67,13.67,0,0,1,.07-1.66,4,4,0,0,1,.45-1.26C64.18,7.4,65.42,7,67.46,7H77.7A13.24,13.24,0,0,1,85.87,10,11,11,0,0,1,89.08,14Zm-8.56,8.8a3.71,3.71,0,0,0,1.38-3.15,3.78,3.78,0,0,0-1.38-3.18,4.63,4.63,0,0,0-2.87-1.08h-6V23.9h6A4.62,4.62,0,0,0,80.52,22.84Z"/><path class="cls-1" d="M116.29,26.41a5.81,5.81,0,0,1-1.46,4.35,4.55,4.55,0,0,1-3.23,1.41H100.27a2.62,2.62,0,0,0,1.58,2.25,6.32,6.32,0,0,0,3.15.91,13.19,13.19,0,0,0,4.35-.58l.53-.19a4.86,4.86,0,0,1,1.91-.53c1,0,1.9.72,2.63,2.16a5.21,5.21,0,0,1,.63,2.2q0,4.24-10.19,4.25a15.25,15.25,0,0,1-6.29-1.22,10.74,10.74,0,0,1-4.28-3.22,13.76,13.76,0,0,1-3-8.66,12.51,12.51,0,0,1,3.9-9.64,13.78,13.78,0,0,1,9.73-3.61q6.65,0,9.75,4.69A9.69,9.69,0,0,1,116.29,26.41ZM106.2,27.82c1.21,0,1.82-.51,1.82-1.53a2.14,2.14,0,0,0-.84-1.77,3.74,3.74,0,0,0-2.39-.67,4.82,4.82,0,0,0-3.09,1.27,3.54,3.54,0,0,0-1.53,2.7Z"/><path class="cls-1" d="M135.28,19.35q.28-2.54,3.73-2.53a8.76,8.76,0,0,1,2.67.29,2,2,0,0,1,1.22,1,3.62,3.62,0,0,1,.43,1.21,13.11,13.11,0,0,1,.07,1.63V48.86a13.11,13.11,0,0,1-.07,1.63,3.46,3.46,0,0,1-.43,1.19,2,2,0,0,1-1.24,1,8,8,0,0,1-2.37.28,7.68,7.68,0,0,1-2.34-.28,2,2,0,0,1-1.22-1,3.9,3.9,0,0,1-.43-1.22,13,13,0,0,1-.07-1.63V39.15a6.78,6.78,0,0,1-5.41,2.2,10.39,10.39,0,0,1-7.7-3.68,12.18,12.18,0,0,1-3.44-8.56,12,12,0,0,1,3.49-8.56c2.33-2.46,4.79-3.68,7.39-3.68S134.06,17.7,135.28,19.35ZM128.08,32A4,4,0,0,0,131,33.22,3.7,3.7,0,0,0,133.89,32,4.07,4.07,0,0,0,135,29.18a4.35,4.35,0,0,0-1.1-2.82A3.66,3.66,0,0,0,131,25a3.85,3.85,0,0,0-3,1.27,4.12,4.12,0,0,0-1.15,2.85A3.9,3.9,0,0,0,128.08,32Z"/><path class="cls-1" d="M158.42,41.93a10.16,10.16,0,0,1-8-3.66,13.12,13.12,0,0,1-3.18-8.92V21a13.61,13.61,0,0,1,.07-1.68,4.35,4.35,0,0,1,.41-1.24c.44-.86,1.69-1.29,3.73-1.29,2.23,0,3.54.61,3.92,1.82a7.53,7.53,0,0,1,.29,2.44V29.4a3.84,3.84,0,0,0,4.13,4.16,4.21,4.21,0,0,0,3.06-1.15,4,4,0,0,0,1.18-3V20.93a13.59,13.59,0,0,1,.07-1.65,4.06,4.06,0,0,1,.45-1.27c.42-.83,1.64-1.24,3.68-1.24s3.24.43,3.69,1.29a4.25,4.25,0,0,1,.4,1.27,13.16,13.16,0,0,1,.08,1.65V37.91a12.59,12.59,0,0,1-.08,1.6,3.34,3.34,0,0,1-.45,1.22c-.48.83-1.71,1.24-3.68,1.24s-3.14-.38-3.59-1.14a3.83,3.83,0,0,1-.48-2,4.52,4.52,0,0,1-.86,1,11.05,11.05,0,0,1-1.29,1A6.39,6.39,0,0,1,158.42,41.93Z"/><path class="cls-1" d="M200.5,26.41a5.81,5.81,0,0,1-1.45,4.35,4.57,4.57,0,0,1-3.23,1.41H184.48a2.64,2.64,0,0,0,1.58,2.25,6.35,6.35,0,0,0,3.16.91,13.19,13.19,0,0,0,4.35-.58l.53-.19A4.82,4.82,0,0,1,196,34c1,0,1.9.72,2.63,2.16a5.32,5.32,0,0,1,.62,2.2q0,4.24-10.19,4.25a15.23,15.23,0,0,1-6.28-1.22,10.67,10.67,0,0,1-4.28-3.22,13.77,13.77,0,0,1-3-8.66,12.51,12.51,0,0,1,3.9-9.64,13.8,13.8,0,0,1,9.73-3.61q6.65,0,9.76,4.69A9.76,9.76,0,0,1,200.5,26.41Zm-10.09,1.41c1.22,0,1.82-.51,1.82-1.53a2.14,2.14,0,0,0-.84-1.77,3.7,3.7,0,0,0-2.39-.67,4.81,4.81,0,0,0-3.08,1.27,3.54,3.54,0,0,0-1.53,2.7Z"/><path class="cls-1" d="M217.63,16.82a10.12,10.12,0,0,1,8,3.66,13.12,13.12,0,0,1,3.18,8.92v8.41a15.75,15.75,0,0,1-.07,1.65,4,4,0,0,1-.41,1.22c-.45.86-1.69,1.29-3.73,1.29-2.26,0-3.57-.59-3.92-1.77a7.78,7.78,0,0,1-.29-2.44V29.35a4.07,4.07,0,0,0-1.12-3.06,4.11,4.11,0,0,0-3-1.1,4.16,4.16,0,0,0-3.06,1.15,4,4,0,0,0-1.17,3v8.46a13.37,13.37,0,0,1-.07,1.65,3.46,3.46,0,0,1-.45,1.22Q210.83,42,207.77,42c-2,0-3.23-.43-3.68-1.29a4.63,4.63,0,0,1-.41-1.27,15.75,15.75,0,0,1-.07-1.65V20.84a15.44,15.44,0,0,1,.07-1.61,3.44,3.44,0,0,1,.46-1.22c.45-.79,1.67-1.19,3.68-1.19s3.14.36,3.59,1.1a3.77,3.77,0,0,1,.48,2,4.72,4.72,0,0,1,.86-1,7.78,7.78,0,0,1,1.29-1A6.21,6.21,0,0,1,217.63,16.82Zm6.55-11c1.15.8,1.72,1.56,1.72,2.3a2.5,2.5,0,0,1-.38,1.29c-.26.41-.43.71-.53.88a9,9,0,0,1-.67.94,7.44,7.44,0,0,1-1.19,1.19,6.21,6.21,0,0,1-3.69,1.34,6,6,0,0,1-2.94-.62,10.41,10.41,0,0,1-1.77-1.25,2,2,0,0,0-1.12-.62,1.74,1.74,0,0,0-1.25.58c-.73,1.27-1.41,1.91-2,1.91a3.75,3.75,0,0,1-2.25-1.15c-.87-.76-1.31-1.39-1.31-1.89a2.58,2.58,0,0,1,.38-1.36c.26-.41.43-.71.53-.88a5.69,5.69,0,0,1,.69-.91,8.44,8.44,0,0,1,1.22-1.17,6.12,6.12,0,0,1,3.68-1.3,6,6,0,0,1,3,.6A10.22,10.22,0,0,1,218,6.85a1.86,1.86,0,0,0,1.1.59,1.54,1.54,0,0,0,1.24-.57c.67-1.21,1.39-1.82,2.16-1.82A3.17,3.17,0,0,1,224.18,5.77Z"/><path class="cls-1" d="M235.89,20a13.15,13.15,0,0,1,9.19-3.73A13,13,0,0,1,254.21,20a12.35,12.35,0,0,1,4,9.45,12.44,12.44,0,0,1-2.06,7.05,12.82,12.82,0,0,1-5,4.54,13.52,13.52,0,0,1-6.1,1.46,13.05,13.05,0,0,1-6.12-1.55,13.59,13.59,0,0,1-5-4.59,12.05,12.05,0,0,1-2-6.87A12.4,12.4,0,0,1,235.89,20Zm6,12.89A5.09,5.09,0,0,0,245,34a5.22,5.22,0,0,0,3.16-1.19,4.17,4.17,0,0,0,1.57-3.54,4.13,4.13,0,0,0-1.48-3.49,5.09,5.09,0,0,0-3.2-1.15,5,5,0,0,0-3.21,1.2,4.26,4.26,0,0,0-1.48,3.51A4.11,4.11,0,0,0,241.87,32.86Z"/><path class="cls-1" d="M281.85,34.94h13a5.38,5.38,0,0,1,2.29.36,1.83,1.83,0,0,1,1,1.13,7,7,0,0,1,.24,2,7,7,0,0,1-.24,2,1.65,1.65,0,0,1-.81,1,5.4,5.4,0,0,1-2.49.48H277.59c-2.23,0-3.53-.6-3.92-1.82a7.59,7.59,0,0,1-.28-2.44V11.18a13.67,13.67,0,0,1,.07-1.66,4,4,0,0,1,.45-1.26C274.36,7.4,275.6,7,277.64,7c2.23,0,3.56.59,4,1.77a9.44,9.44,0,0,1,.24,2.48Z"/><path class="cls-1" d="M309.33,12.16a2.09,2.09,0,0,1-1.27,1,8.36,8.36,0,0,1-2.42.28,8.29,8.29,0,0,1-2.41-.28,2,2,0,0,1-1.27-1,4.13,4.13,0,0,1-.43-1.27,13.37,13.37,0,0,1-.07-1.65,13.59,13.59,0,0,1,.07-1.65,3.76,3.76,0,0,1,.41-1.21c.44-.87,1.69-1.3,3.73-1.3s3.22.43,3.63,1.3a3.75,3.75,0,0,1,.46,1.26,16,16,0,0,1,.07,1.65,15.75,15.75,0,0,1-.07,1.65A4.22,4.22,0,0,1,309.33,12.16ZM301.46,21a13.37,13.37,0,0,1,.07-1.65,4.31,4.31,0,0,1,.41-1.27c.44-.83,1.69-1.24,3.73-1.24a5.07,5.07,0,0,1,3.25.81,2.64,2.64,0,0,1,.86,2.06c0,.31.05.78.05,1.38V37.86a16,16,0,0,1-.07,1.65,3.8,3.8,0,0,1-.46,1.27c-.41.83-1.64,1.24-3.68,1.24s-3.24-.43-3.68-1.29a4.35,4.35,0,0,1-.41-1.24,13.5,13.5,0,0,1-.07-1.68Z"/><path class="cls-1" d="M327.47,16.87a10.62,10.62,0,0,1,7.82,3.77,12.58,12.58,0,0,1,0,17.53c-2.36,2.5-4.9,3.76-7.61,3.76s-4.64-.77-5.78-2.3Q321.54,42,317.81,42c-2,0-3.23-.43-3.68-1.29a4.63,4.63,0,0,1-.41-1.27,15.75,15.75,0,0,1-.07-1.65V9.21a16,16,0,0,1,.07-1.65,4,4,0,0,1,.41-1.21c.45-.87,1.69-1.3,3.73-1.3s3.22.43,3.64,1.3A3.94,3.94,0,0,1,322,7.61,13.59,13.59,0,0,1,322,9.26v10A6.64,6.64,0,0,1,327.47,16.87Zm-4.18,15.44a3.8,3.8,0,0,0,2.94,1.29,4.34,4.34,0,0,0,4.26-4.16,4.33,4.33,0,0,0-1.15-2.89,3.87,3.87,0,0,0-3.06-1.32,3.77,3.77,0,0,0-3,1.34,4.43,4.43,0,0,0-1.12,2.9A4.14,4.14,0,0,0,323.29,32.31Z"/><path class="cls-1" d="M359.08,17.11a3.16,3.16,0,0,1,1.51,1,3.35,3.35,0,0,1,.6,2.22,7.52,7.52,0,0,1-.91,3.35,2.85,2.85,0,0,1-2.63,1.81,3.69,3.69,0,0,1-1.65-.38,4.89,4.89,0,0,0-2.08-.38,3.77,3.77,0,0,0-2.42.91,2.73,2.73,0,0,0-1.12,2.2v10a13.59,13.59,0,0,1-.07,1.65,3.8,3.8,0,0,1-.46,1.27c-.47.83-1.72,1.24-3.73,1.24a5.29,5.29,0,0,1-3.3-.81,2.9,2.9,0,0,1-.86-2.06V21a16,16,0,0,1,.07-1.65,4.07,4.07,0,0,1,.41-1.22c.45-.86,1.69-1.29,3.73-1.29s3.11.36,3.59,1.1a2.75,2.75,0,0,1,.53,1.58,5.86,5.86,0,0,1,.69-.82,9.05,9.05,0,0,1,1.94-1.29,5.55,5.55,0,0,1,2.6-.81,12.49,12.49,0,0,1,1.89.12A10.36,10.36,0,0,1,359.08,17.11Z"/><path class="cls-1" d="M365.68,20a13.15,13.15,0,0,1,9.19-3.73A13,13,0,0,1,384,20a12.35,12.35,0,0,1,4,9.45,12.44,12.44,0,0,1-2.06,7.05,12.82,12.82,0,0,1-5,4.54,13.52,13.52,0,0,1-6.1,1.46,13.05,13.05,0,0,1-6.12-1.55,13.59,13.59,0,0,1-5-4.59,12.05,12.05,0,0,1-2-6.87A12.4,12.4,0,0,1,365.68,20Zm6,12.89A5.09,5.09,0,0,0,374.77,34a5.22,5.22,0,0,0,3.16-1.19,4.17,4.17,0,0,0,1.57-3.54A4.13,4.13,0,0,0,378,25.81a5.09,5.09,0,0,0-3.2-1.15,5,5,0,0,0-3.21,1.2,4.26,4.26,0,0,0-1.48,3.51A4.11,4.11,0,0,0,371.66,32.86Z"/><path class="cls-1" d="M90.87,47.41A3,3,0,0,1,92.72,46a14.92,14.92,0,0,1,7,0,2.88,2.88,0,0,1,1.84,1.46,6,6,0,0,1,.63,1.85,20.24,20.24,0,0,1,.1,2.4V93.25a20.24,20.24,0,0,1-.1,2.4,5,5,0,0,1-.66,1.78q-1.05,1.88-5.88,1.87c-3.23,0-5-1.13-5.4-3.41a10.24,10.24,0,0,1-8.14,3.35q-6.27,0-11.42-5.47a18.33,18.33,0,0,1,0-25.51q5.19-5.51,11.39-5.5a9.77,9.77,0,0,1,8,3.48V51.62a19.78,19.78,0,0,1,.11-2.4A5.48,5.48,0,0,1,90.87,47.41ZM79.56,85.24A5.85,5.85,0,0,0,84,87.12a5.53,5.53,0,0,0,4.28-1.88,6,6,0,0,0,1.7-4.14,6.42,6.42,0,0,0-1.63-4.21,5.48,5.48,0,0,0-4.42-2,5.63,5.63,0,0,0-4.46,1.91,6.29,6.29,0,0,0-1.67,4.22A5.86,5.86,0,0,0,79.56,85.24Z"/><path class="cls-1" d="M143.26,76.64q0,4.29-2.12,6.34a6.64,6.64,0,0,1-4.7,2h-16.5c0,1.3.76,2.39,2.29,3.28a9.2,9.2,0,0,0,4.6,1.32,19,19,0,0,0,6.33-.84l.77-.28a7,7,0,0,1,2.78-.76q2.23,0,3.83,3.13a7.59,7.59,0,0,1,.91,3.2q0,6.21-14.83,6.2a22.23,22.23,0,0,1-9.15-1.78,15.64,15.64,0,0,1-6.24-4.69,20,20,0,0,1-4.38-12.61q0-8.76,5.67-14a20,20,0,0,1,14.17-5.26q9.67,0,14.2,6.82A14.16,14.16,0,0,1,143.26,76.64ZM128.57,78.7c1.76,0,2.65-.74,2.65-2.23A3.16,3.16,0,0,0,130,73.89a5.48,5.48,0,0,0-3.48-1A7,7,0,0,0,122,74.77a5.16,5.16,0,0,0-2.23,3.93Z"/><path class="cls-1" d="M189.2,50.47a3.33,3.33,0,0,1,2-1.64,11.16,11.16,0,0,1,3.31-.42,12.06,12.06,0,0,1,3.2.35,5.1,5.1,0,0,1,1.81.84,2.74,2.74,0,0,1,.87,1.46,10.9,10.9,0,0,1,.42,3.55V93.25a20.46,20.46,0,0,1-.1,2.44,5.56,5.56,0,0,1-.66,1.8c-.66,1.26-2.47,1.88-5.44,1.88a11.39,11.39,0,0,1-3.75-.41,4,4,0,0,1-1.74-1.33q-15.67-20.88-20.61-27.29V93.25a20,20,0,0,1-.11,2.44,5.56,5.56,0,0,1-.66,1.8c-.65,1.26-2.46,1.88-5.43,1.88s-4.64-.62-5.29-1.88a5.55,5.55,0,0,1-.66-1.87,21.37,21.37,0,0,1-.1-2.44V54.33a8.49,8.49,0,0,1,.66-3.86,3.33,3.33,0,0,1,2-1.64,11.51,11.51,0,0,1,3.41-.42,11.25,11.25,0,0,1,3.31.39,4.08,4.08,0,0,1,1.7.87,17.94,17.94,0,0,1,1.61,1.81q14.68,20,19.63,26.38V54.33A8.49,8.49,0,0,1,189.2,50.47Z"/><path class="cls-1" d="M241.72,76.64c0,2.86-.7,5-2.12,6.34a6.6,6.6,0,0,1-4.7,2H218.4c0,1.3.77,2.39,2.3,3.28a9.14,9.14,0,0,0,4.6,1.32,19,19,0,0,0,6.33-.84l.77-.28a7,7,0,0,1,2.78-.76c1.49,0,2.76,1,3.83,3.13a7.7,7.7,0,0,1,.9,3.2q0,6.21-14.82,6.2a22.28,22.28,0,0,1-9.16-1.78,15.61,15.61,0,0,1-6.23-4.69,20.05,20.05,0,0,1-4.39-12.61q0-8.76,5.68-14a20,20,0,0,1,14.17-5.26q9.68,0,14.2,6.82A14.15,14.15,0,0,1,241.72,76.64ZM227,78.7c1.76,0,2.64-.74,2.64-2.23a3.16,3.16,0,0,0-1.22-2.58,5.44,5.44,0,0,0-3.48-1,7,7,0,0,0-4.49,1.85,5.19,5.19,0,0,0-2.23,3.93Z"/><path class="cls-1" d="M269.5,94.78q-2.64,3.48-8.42,3.48t-10.83-5.33a17.8,17.8,0,0,1,0-24.88q5.07-5.37,11.14-5.36a10.47,10.47,0,0,1,4.31.87,7.45,7.45,0,0,1,3.83,3,4.26,4.26,0,0,1,1.43-3,6.09,6.09,0,0,1,3.93-1,14,14,0,0,1,4,.41,3,3,0,0,1,1.78,1.43,5.84,5.84,0,0,1,.62,1.78,18.91,18.91,0,0,1,.11,2.36V97.36a16.39,16.39,0,0,1-5.57,12.91,18.49,18.49,0,0,1-12.53,4.91,21,21,0,0,1-10.1-2.58q-4.8-2.58-4.8-4.66a6.6,6.6,0,0,1,2.09-4.81,18.26,18.26,0,0,1,2.05-2,2.74,2.74,0,0,1,1.71-.55,3.27,3.27,0,0,1,2,.83,11.61,11.61,0,0,0,7.24,2.58,5.28,5.28,0,0,0,4.32-2.09,7.78,7.78,0,0,0,1.67-5ZM257.11,80.54a5.68,5.68,0,0,0,1.78,4.08,5.83,5.83,0,0,0,4.31,1.81,5.44,5.44,0,0,0,4.21-1.85,5.88,5.88,0,0,0,1.67-4,6.25,6.25,0,0,0-1.6-4.1,5.32,5.32,0,0,0-4.31-1.92,5.6,5.6,0,0,0-4.39,1.88A6.12,6.12,0,0,0,257.11,80.54Z"/><path class="cls-1" d="M291.78,67.28a19.11,19.11,0,0,1,26.66,0A18,18,0,0,1,324.22,81a18.09,18.09,0,0,1-3,10.26A18.78,18.78,0,0,1,314,97.88a19.8,19.8,0,0,1-8.88,2.12,19,19,0,0,1-8.91-2.26,19.85,19.85,0,0,1-7.27-6.68,17.59,17.59,0,0,1-3-10A18,18,0,0,1,291.78,67.28ZM300.48,86A7.39,7.39,0,0,0,305,87.75,7.58,7.58,0,0,0,309.6,86a6.07,6.07,0,0,0,2.3-5.15,6,6,0,0,0-2.16-5.09,7.49,7.49,0,0,0-4.67-1.67,7.28,7.28,0,0,0-4.66,1.74A6.2,6.2,0,0,0,298.25,81,6,6,0,0,0,300.48,86Z"/><path class="cls-1" d="M340.23,81a5.68,5.68,0,0,0,1.95,4.6,6.34,6.34,0,0,0,4.14,1.63A7.21,7.21,0,0,0,350.43,86a6.19,6.19,0,0,1,3.1-1.28q2.09,0,5.08,3.68a6.12,6.12,0,0,1,1.6,3.63q0,2.64-3.83,4.94a16.56,16.56,0,0,1-9.74,2.78,20.06,20.06,0,0,1-12.47-4.66,16.7,16.7,0,0,1-4.66-6,18.55,18.55,0,0,1-1.81-8.22,18,18,0,0,1,1.81-8.14,16.83,16.83,0,0,1,4.66-5.89,19.5,19.5,0,0,1,12.33-4.59,18.21,18.21,0,0,1,5.15.73,17.07,17.07,0,0,1,3.69,1.43l1.11.69c.84.56,1.49,1,1.95,1.33a4,4,0,0,1,1.81,3.16,7.57,7.57,0,0,1-1.46,4q-2.5,3.82-4.8,3.82a7.92,7.92,0,0,1-3.76-1.53,5,5,0,0,0-3.59-1.18,6.73,6.73,0,0,0-4.35,1.67A5.67,5.67,0,0,0,340.23,81Z"/><path class="cls-1" d="M376.19,55.9a3,3,0,0,1-1.85,1.43,15.27,15.27,0,0,1-7,0,2.92,2.92,0,0,1-1.84-1.47,5.91,5.91,0,0,1-.63-1.84,20.24,20.24,0,0,1-.1-2.4,20.24,20.24,0,0,1,.1-2.4,5.79,5.79,0,0,1,.59-1.78q1-1.87,5.43-1.88t5.29,1.88a5.66,5.66,0,0,1,.67,1.85,28.85,28.85,0,0,1,0,4.8A5.6,5.6,0,0,1,376.19,55.9ZM364.74,68.81a20.36,20.36,0,0,1,.1-2.4,6.56,6.56,0,0,1,.59-1.84q1-1.81,5.43-1.81c2.23,0,3.81.39,4.74,1.18a3.85,3.85,0,0,1,1.25,3c0,.47.07,1.14.07,2V93.32a22.69,22.69,0,0,1-.1,2.4,5.62,5.62,0,0,1-.67,1.84q-.9,1.81-5.36,1.81c-2.92,0-4.71-.62-5.36-1.88a6.56,6.56,0,0,1-.59-1.8,20.46,20.46,0,0,1-.1-2.44Z"/><path class="cls-1" d="M387.29,67.28a19.13,19.13,0,0,1,26.67,0A18,18,0,0,1,419.73,81a18,18,0,0,1-3,10.26,18.82,18.82,0,0,1-7.27,6.62,19.86,19.86,0,0,1-8.88,2.12,18.93,18.93,0,0,1-8.91-2.26,19.88,19.88,0,0,1-7.28-6.68,17.59,17.59,0,0,1-3-10A18,18,0,0,1,387.29,67.28ZM396,86a7.41,7.41,0,0,0,4.53,1.71A7.58,7.58,0,0,0,405.11,86a6,6,0,0,0,2.3-5.15,6,6,0,0,0-2.16-5.09,7.48,7.48,0,0,0-4.66-1.67,7.26,7.26,0,0,0-4.66,1.74A6.2,6.2,0,0,0,393.77,81,6,6,0,0,0,396,86Z"/><path class="cls-1" d="M424.54,96.1a2.88,2.88,0,0,1-1.33-2.64q0-1.81,2.65-5.5a2.72,2.72,0,0,1,2.47-1.19A10.14,10.14,0,0,1,433,88.48a10.68,10.68,0,0,0,5.29,1.7c2.83,0,4.25-.55,4.25-1.67q0-1.32-4.67-2a22.58,22.58,0,0,1-8.7-3.27,9.2,9.2,0,0,1-3.34-3.93A14.29,14.29,0,0,1,424.47,73q0-11,15.1-11a24.51,24.51,0,0,1,10.17,2.37c1.62.74,2.43,1.67,2.43,2.78a8.19,8.19,0,0,1-1.53,4.11c-1,1.62-2.06,2.44-3.13,2.44a9.38,9.38,0,0,1-3.1-1,11.65,11.65,0,0,0-4.91-1c-2.74,0-4.1.51-4.1,1.53,0,1.39,1.57,2.3,4.73,2.71A26,26,0,0,1,449,78.49a7.85,7.85,0,0,1,3.38,3.38,12.16,12.16,0,0,1,1.36,6,13,13,0,0,1-1.36,6.16,8.8,8.8,0,0,1-3.8,3.79A25.53,25.53,0,0,1,437.45,100,23.88,23.88,0,0,1,424.54,96.1Z"/><path class="cls-1" d="M154.56,132.86V109.17a10.77,10.77,0,0,1,.07-1.38,3.29,3.29,0,0,1,.34-1c.38-.73,1.28-1.09,2.72-1.09a5.38,5.38,0,0,1,2.9.54,2.2,2.2,0,0,1,.87,1.61,5.6,5.6,0,0,1,4.85-2.11,8.63,8.63,0,0,1,6.27,3.12,10.42,10.42,0,0,1,0,14.53,8.59,8.59,0,0,1-6.27,3.12q-3.33,0-4.83-1.86v8.19a11.24,11.24,0,0,1-.06,1.38,3.31,3.31,0,0,1-.36,1,1.73,1.73,0,0,1-1,.83,6.56,6.56,0,0,1-2,.24,6.77,6.77,0,0,1-2-.24,1.7,1.7,0,0,1-1.06-.81,3.14,3.14,0,0,1-.36-1A10.77,10.77,0,0,1,154.56,132.86Zm8-19.11a3.63,3.63,0,0,0-.93,2.4,3.48,3.48,0,0,0,1,2.37,3.1,3.1,0,0,0,2.43,1.08,3.41,3.41,0,0,0,2.52-1.06,3.33,3.33,0,0,0,1-2.39,3.52,3.52,0,0,0-1-2.42,3.24,3.24,0,0,0-2.54-1.07A3.1,3.1,0,0,0,162.6,113.75Z"/><path class="cls-1" d="M192.06,108c.16-1.52,1.23-2.27,3.21-2.27a8.49,8.49,0,0,1,2.35.24,1.7,1.7,0,0,1,1.07.85,3.37,3.37,0,0,1,.37,1.08,12,12,0,0,1,.06,1.4v14.2a12,12,0,0,1-.06,1.4,4.11,4.11,0,0,1-.34,1.08c-.38.7-1.31,1-2.78,1a5.44,5.44,0,0,1-3-.55,2.18,2.18,0,0,1-.87-1.6q-1.5,2.15-5,2.15a8.84,8.84,0,0,1-6.51-3.21,10.66,10.66,0,0,1,0-14.87,9,9,0,0,1,6.63-3.18,6.43,6.43,0,0,1,2.52.48,5.68,5.68,0,0,1,1.58.92A5.36,5.36,0,0,1,192.06,108Zm-7.39,8.44a3.37,3.37,0,0,0,1.06,2.41,3.45,3.45,0,0,0,2.56,1.08,3.22,3.22,0,0,0,2.49-1.1,3.52,3.52,0,0,0,1-2.41,3.75,3.75,0,0,0-1-2.46,3.18,3.18,0,0,0-2.55-1.13,3.31,3.31,0,0,0-2.6,1.13A3.73,3.73,0,0,0,184.67,116.39Z"/><path class="cls-1" d="M216.89,105.92a2.72,2.72,0,0,1,1.28.83,2.85,2.85,0,0,1,.51,1.89,6.49,6.49,0,0,1-.77,2.84,2.41,2.41,0,0,1-2.23,1.54,3.23,3.23,0,0,1-1.4-.32,4.05,4.05,0,0,0-1.77-.33,3.23,3.23,0,0,0-2,.77,2.35,2.35,0,0,0-1,1.87v8.52a12,12,0,0,1-.06,1.4,3.24,3.24,0,0,1-.39,1.08c-.4.7-1.46,1-3.16,1a4.48,4.48,0,0,1-2.8-.69,2.39,2.39,0,0,1-.73-1.74V109.21a11.85,11.85,0,0,1,.06-1.4,3.31,3.31,0,0,1,.34-1c.38-.73,1.44-1.09,3.17-1.09s2.64.31,3,.93a2.32,2.32,0,0,1,.45,1.34,5.79,5.79,0,0,1,.59-.69,7.25,7.25,0,0,1,1.64-1.1,4.76,4.76,0,0,1,2.21-.69,11.64,11.64,0,0,1,1.6.1A10.09,10.09,0,0,1,216.89,105.92Z"/><path class="cls-1" d="M233.57,108c.16-1.52,1.23-2.27,3.21-2.27a8.49,8.49,0,0,1,2.35.24,1.72,1.72,0,0,1,1.08.85,3.58,3.58,0,0,1,.36,1.08,12,12,0,0,1,.06,1.4v14.2a12,12,0,0,1-.06,1.4,3.77,3.77,0,0,1-.34,1.08c-.38.7-1.31,1-2.78,1a5.4,5.4,0,0,1-3-.55,2.15,2.15,0,0,1-.88-1.6q-1.5,2.15-5,2.15a8.84,8.84,0,0,1-6.51-3.21,10.69,10.69,0,0,1,0-14.87,9,9,0,0,1,6.63-3.18,6.43,6.43,0,0,1,2.52.48,5.53,5.53,0,0,1,1.58.92A5.36,5.36,0,0,1,233.57,108Zm-7.38,8.44a3.36,3.36,0,0,0,1.05,2.41,3.46,3.46,0,0,0,2.56,1.08,3.22,3.22,0,0,0,2.49-1.1,3.48,3.48,0,0,0,1-2.41,3.79,3.79,0,0,0-.95-2.46,3.2,3.2,0,0,0-2.56-1.13,3.31,3.31,0,0,0-2.6,1.13A3.71,3.71,0,0,0,226.19,116.39Z"/><path class="cls-1" d="M279.29,124.15a3.36,3.36,0,0,1,2-1.63,11.07,11.07,0,0,1,3.31-.42,12.11,12.11,0,0,1,3.2.35,5.2,5.2,0,0,1,1.81.83,3,3,0,0,1,.87,1.47,10.85,10.85,0,0,1,.42,3.55v38.63a19.73,19.73,0,0,1-.11,2.44,5.68,5.68,0,0,1-.66,1.81q-1,1.88-5.43,1.88a11.43,11.43,0,0,1-3.76-.42,4.05,4.05,0,0,1-1.74-1.32Q263.53,150.44,258.58,144v22.9a20.23,20.23,0,0,1-.1,2.44,5.68,5.68,0,0,1-.66,1.81q-1,1.88-5.43,1.88t-5.29-1.88a5.42,5.42,0,0,1-.67-1.88,24,24,0,0,1-.1-2.44V128a8.54,8.54,0,0,1,.66-3.87,3.3,3.3,0,0,1,2-1.63,14.28,14.28,0,0,1,6.71,0,4.39,4.39,0,0,1,1.71.87,20,20,0,0,1,1.6,1.81q14.69,20,19.63,26.39V128A8.54,8.54,0,0,1,279.29,124.15Z"/><path class="cls-1" d="M307.91,129.58a3,3,0,0,1-1.85,1.43,14.92,14.92,0,0,1-7,0,3,3,0,0,1-1.85-1.46,6.17,6.17,0,0,1-.62-1.85,26.24,26.24,0,0,1,0-4.8,5.83,5.83,0,0,1,.59-1.77c.65-1.26,2.46-1.88,5.43-1.88s4.69.62,5.29,1.88a5.57,5.57,0,0,1,.66,1.84,26.24,26.24,0,0,1,0,4.8A5.72,5.72,0,0,1,307.91,129.58ZM296.45,142.5a19.78,19.78,0,0,1,.11-2.4,6.61,6.61,0,0,1,.59-1.85q1-1.81,5.43-1.81c2.23,0,3.81.4,4.73,1.18a3.86,3.86,0,0,1,1.26,3c0,.46.07,1.14.07,2V167a20.09,20.09,0,0,1-.11,2.41,5.65,5.65,0,0,1-.66,1.84q-.9,1.81-5.36,1.81t-5.36-1.88a6.72,6.72,0,0,1-.59-1.81,19.73,19.73,0,0,1-.11-2.44Z"/><path class="cls-1" d="M334.6,136.37a14.74,14.74,0,0,1,11.6,5.33,19.13,19.13,0,0,1,4.62,13v12.25a20.55,20.55,0,0,1-.1,2.41,5.83,5.83,0,0,1-.59,1.77q-1,1.88-5.43,1.88-4.95,0-5.71-2.58a11.23,11.23,0,0,1-.42-3.55V154.61a5.93,5.93,0,0,0-1.63-4.45,6.76,6.76,0,0,0-8.84.07,5.84,5.84,0,0,0-1.71,4.38v12.32a20.55,20.55,0,0,1-.1,2.41,5,5,0,0,1-.67,1.77q-.9,1.88-5.36,1.88t-5.36-1.88a6.66,6.66,0,0,1-.59-1.84,20.55,20.55,0,0,1-.1-2.41V142.22a19.46,19.46,0,0,1,.1-2.33,5,5,0,0,1,.66-1.78q1-1.74,5.36-1.74c2.83,0,4.57.54,5.22,1.6a5.49,5.49,0,0,1,.7,2.86,7.21,7.21,0,0,1,1.25-1.4,12.5,12.5,0,0,1,1.88-1.46A9.18,9.18,0,0,1,334.6,136.37Zm9.54-16.08c1.67,1.16,2.51,2.27,2.51,3.34a3.54,3.54,0,0,1-.56,1.88c-.37.6-.63,1-.76,1.29a12.25,12.25,0,0,1-1,1.36,10.23,10.23,0,0,1-1.74,1.74,9,9,0,0,1-5.36,1.95,8.48,8.48,0,0,1-4.28-.91,15.13,15.13,0,0,1-2.58-1.81,2.85,2.85,0,0,0-1.63-.9,2.5,2.5,0,0,0-1.81.83c-1.07,1.86-2.06,2.79-3,2.79a5.46,5.46,0,0,1-3.27-1.67c-1.28-1.12-1.92-2-1.92-2.75a3.76,3.76,0,0,1,.56-2c.37-.6.63-1,.76-1.29a11,11,0,0,1,1-1.32,12.44,12.44,0,0,1,1.78-1.7,9.53,9.53,0,0,1,9.68-1,14.59,14.59,0,0,1,2.5,1.74,2.77,2.77,0,0,0,1.6.87,2.24,2.24,0,0,0,1.81-.84c1-1.76,2-2.64,3.14-2.64A4.54,4.54,0,0,1,344.14,120.29Z"/><path class="cls-1" d="M361.2,141a19.13,19.13,0,0,1,26.66,0,19.2,19.2,0,0,1,2.79,24,18.82,18.82,0,0,1-7.28,6.61,19.68,19.68,0,0,1-8.88,2.13,19,19,0,0,1-8.91-2.27,19.68,19.68,0,0,1-7.27-6.68,17.59,17.59,0,0,1-3-10A18,18,0,0,1,361.2,141Zm8.7,18.76a7.35,7.35,0,0,0,4.52,1.7,7.58,7.58,0,0,0,4.6-1.74,7,7,0,0,0,.14-10.23,7.49,7.49,0,0,0-4.67-1.67,7.28,7.28,0,0,0-4.66,1.74,6.19,6.19,0,0,0-2.16,5.12A6,6,0,0,0,369.9,159.73Z"/><path class="cls-1" d="M398.44,169.79a2.91,2.91,0,0,1-1.32-2.65c0-1.2.88-3,2.64-5.5a2.73,2.73,0,0,1,2.48-1.18,10.18,10.18,0,0,1,4.62,1.7,10.73,10.73,0,0,0,5.3,1.71c2.83,0,4.24-.56,4.24-1.67q0-1.32-4.66-1.95A22.79,22.79,0,0,1,403,157a9.38,9.38,0,0,1-3.35-3.94,14.23,14.23,0,0,1-1.32-6.37q0-11,15.11-11A24.49,24.49,0,0,1,423.64,138c1.63.74,2.44,1.67,2.44,2.79a8.2,8.2,0,0,1-1.53,4.1c-1,1.63-2.07,2.44-3.14,2.44a9.5,9.5,0,0,1-3.09-1,11.54,11.54,0,0,0-4.91-1.05q-4.11,0-4.11,1.53c0,1.4,1.58,2.3,4.74,2.72a26,26,0,0,1,8.91,2.64,8,8,0,0,1,3.37,3.38,12,12,0,0,1,1.36,6,12.83,12.83,0,0,1-1.36,6.16,8.8,8.8,0,0,1-3.79,3.8,25.56,25.56,0,0,1-11.17,2.16A23.91,23.91,0,0,1,398.44,169.79Z"/><path class="cls-2" d="M8.46,28.6H23.19a13.37,13.37,0,0,1,1.65.07,4,4,0,0,1,1.27.45c.86.45,1.29,1.69,1.29,3.73,0,2.24-.59,3.54-1.77,3.93a8,8,0,0,1-2.48.28H4.21C2,37.06.67,36.46.29,35.25A7.57,7.57,0,0,1,0,32.81V6.22C0,4.59.3,3.48.91,2.89S2.66,2,4.35,2H23.19a13.37,13.37,0,0,1,1.65.07,4,4,0,0,1,1.27.45C27,3,27.4,4.22,27.4,6.26c0,2.24-.59,3.54-1.77,3.93a8,8,0,0,1-2.48.28H8.46V15.3h9.47a12.93,12.93,0,0,1,1.65.08,3.54,3.54,0,0,1,1.27.45c.86.45,1.29,1.69,1.29,3.73,0,2.23-.6,3.54-1.82,3.92a8,8,0,0,1-2.48.29H8.46Z"/><path class="cls-2" d="M30.51,4.21a13.48,13.48,0,0,1,.07-1.65A4.63,4.63,0,0,1,31,1.29C31.43.43,32.68,0,34.72,0s3.16.43,3.63,1.29a3.81,3.81,0,0,1,.46,1.29,14.16,14.16,0,0,1,.07,1.68V26.4a5,5,0,0,0,.29,2.17c.19.31.61.46,1.26.46a7.48,7.48,0,0,1,1.32.07,2.36,2.36,0,0,1,.81.41q1,.61,1,3.39c0,2-.32,3.24-1,3.68-.83.58-2.8.67-5.93.29-2.45-.32-4.05-1.13-4.78-2.44Q30.52,32.09,30.51,27Z"/><path class="cls-2" d="M84.12,9.09a12.62,12.62,0,0,1,1.24,5.64,12.5,12.5,0,0,1-1.24,5.62,11.14,11.14,0,0,1-3.2,4,13.34,13.34,0,0,1-8.23,3.06h-6v5.41a13.59,13.59,0,0,1-.07,1.65,3.94,3.94,0,0,1-.45,1.26c-.45.86-1.69,1.3-3.73,1.3-2.24,0-3.54-.59-3.93-1.77a8.12,8.12,0,0,1-.28-2.49V6.22a13.37,13.37,0,0,1,.07-1.65,4,4,0,0,1,.45-1.27C59.22,2.44,60.46,2,62.5,2H72.74a13.29,13.29,0,0,1,8.18,3.06A11.09,11.09,0,0,1,84.12,9.09Zm-8.56,8.8A3.75,3.75,0,0,0,77,14.73a3.8,3.8,0,0,0-1.39-3.18,4.63,4.63,0,0,0-2.87-1.08h-6v8.47h6A4.66,4.66,0,0,0,75.56,17.89Z"/><path class="cls-2" d="M111.33,21.45a5.81,5.81,0,0,1-1.46,4.35,4.55,4.55,0,0,1-3.23,1.41H95.31a2.64,2.64,0,0,0,1.58,2.25,6.32,6.32,0,0,0,3.15.91,13,13,0,0,0,4.36-.58l.52-.19a4.86,4.86,0,0,1,1.92-.52c1,0,1.89.71,2.63,2.15a5.32,5.32,0,0,1,.62,2.2q0,4.26-10.19,4.25a15.28,15.28,0,0,1-6.29-1.22,10.65,10.65,0,0,1-4.28-3.22,13.76,13.76,0,0,1-3-8.66,12.51,12.51,0,0,1,3.9-9.64A13.8,13.8,0,0,1,100,11.33q6.64,0,9.76,4.69A9.76,9.76,0,0,1,111.33,21.45Zm-10.09,1.41c1.21,0,1.82-.51,1.82-1.53a2.16,2.16,0,0,0-.84-1.77,3.72,3.72,0,0,0-2.39-.67,4.82,4.82,0,0,0-3.09,1.27,3.54,3.54,0,0,0-1.53,2.7Z"/><path class="cls-2" d="M130.32,14.39c.19-1.68,1.43-2.53,3.73-2.53a9.22,9.22,0,0,1,2.68.29,2,2,0,0,1,1.21,1,4,4,0,0,1,.44,1.22,15.08,15.08,0,0,1,.07,1.62V43.9a15.3,15.3,0,0,1-.07,1.63,3.65,3.65,0,0,1-.44,1.19,2,2,0,0,1-1.24,1,8,8,0,0,1-2.37.29,7.69,7.69,0,0,1-2.34-.29,2,2,0,0,1-1.22-1,3.9,3.9,0,0,1-.43-1.22,12.9,12.9,0,0,1-.07-1.63V34.19a6.78,6.78,0,0,1-5.4,2.2,10.32,10.32,0,0,1-7.7-3.68,12.29,12.29,0,0,1,0-17.12q3.5-3.67,7.39-3.68T130.32,14.39ZM123.12,27a4,4,0,0,0,2.94,1.24A3.73,3.73,0,0,0,128.93,27a4,4,0,0,0,1.15-2.78A4.35,4.35,0,0,0,129,21.4,3.64,3.64,0,0,0,126,20.09a3.85,3.85,0,0,0-3,1.26,4.14,4.14,0,0,0-1.15,2.85A3.94,3.94,0,0,0,123.12,27Z"/><path class="cls-2" d="M153.46,37a10.16,10.16,0,0,1-8-3.66,13.12,13.12,0,0,1-3.18-8.92V16a15.76,15.76,0,0,1,.07-1.67,4.74,4.74,0,0,1,.41-1.25c.45-.86,1.69-1.29,3.73-1.29,2.23,0,3.54.61,3.92,1.82a7.53,7.53,0,0,1,.29,2.44v8.37a4.07,4.07,0,0,0,1.12,3.06,4.15,4.15,0,0,0,3,1.1,4.2,4.2,0,0,0,3.06-1.15,4,4,0,0,0,1.17-3V16a13.59,13.59,0,0,1,.07-1.65,3.94,3.94,0,0,1,.45-1.26c.42-.83,1.65-1.25,3.69-1.25s3.23.43,3.68,1.29a4.63,4.63,0,0,1,.41,1.27,16,16,0,0,1,.07,1.65V33a15.22,15.22,0,0,1-.07,1.6,3.31,3.31,0,0,1-.46,1.22c-.48.83-1.7,1.25-3.68,1.25s-3.14-.39-3.59-1.15a3.8,3.8,0,0,1-.48-2,4.49,4.49,0,0,1-.86,1A10.59,10.59,0,0,1,157,35.92,6.38,6.38,0,0,1,153.46,37Z"/><path class="cls-2" d="M195.55,21.45a5.81,5.81,0,0,1-1.46,4.35,4.55,4.55,0,0,1-3.23,1.41H179.53a2.63,2.63,0,0,0,1.57,2.25,6.38,6.38,0,0,0,3.16.91,12.93,12.93,0,0,0,4.35-.58l.53-.19a4.78,4.78,0,0,1,1.91-.52c1,0,1.9.71,2.63,2.15a5.17,5.17,0,0,1,.62,2.2q0,4.26-10.18,4.25a15.25,15.25,0,0,1-6.29-1.22,10.58,10.58,0,0,1-4.28-3.22,13.76,13.76,0,0,1-3-8.66,12.5,12.5,0,0,1,3.89-9.64,13.8,13.8,0,0,1,9.73-3.61q6.66,0,9.76,4.69A9.77,9.77,0,0,1,195.55,21.45Zm-10.09,1.41c1.21,0,1.81-.51,1.81-1.53a2.18,2.18,0,0,0-.83-1.77,3.74,3.74,0,0,0-2.39-.67A4.82,4.82,0,0,0,181,20.16a3.54,3.54,0,0,0-1.53,2.7Z"/><path class="cls-2" d="M212.67,11.86a10.1,10.1,0,0,1,8,3.66,13.12,13.12,0,0,1,3.18,8.92v8.41a13.37,13.37,0,0,1-.07,1.65,4,4,0,0,1-.41,1.22c-.44.86-1.69,1.3-3.73,1.3-2.26,0-3.57-.59-3.92-1.77a7.87,7.87,0,0,1-.29-2.44V24.39a4.07,4.07,0,0,0-1.12-3.06,4.66,4.66,0,0,0-6.07.05,4,4,0,0,0-1.18,3v8.46A13.37,13.37,0,0,1,207,34.5a3.46,3.46,0,0,1-.45,1.22c-.42.86-1.64,1.3-3.68,1.3s-3.24-.44-3.69-1.3a4.2,4.2,0,0,1-.4-1.26,13.16,13.16,0,0,1-.08-1.65V15.88a12.48,12.48,0,0,1,.08-1.6,3.27,3.27,0,0,1,.45-1.22c.45-.8,1.67-1.2,3.68-1.2s3.14.37,3.59,1.1a3.8,3.8,0,0,1,.48,2,5.07,5.07,0,0,1,.86-1,9.43,9.43,0,0,1,1.29-1A6.28,6.28,0,0,1,212.67,11.86Zm6.55-11c1.15.8,1.72,1.57,1.72,2.3a2.47,2.47,0,0,1-.38,1.29c-.26.41-.43.71-.53.88a7.62,7.62,0,0,1-.67.94,7.44,7.44,0,0,1-1.19,1.19,6.14,6.14,0,0,1-3.69,1.34,6,6,0,0,1-2.94-.62,11.28,11.28,0,0,1-1.77-1.24,1.92,1.92,0,0,0-1.12-.63,1.74,1.74,0,0,0-1.24.58c-.74,1.27-1.41,1.91-2,1.91a3.71,3.71,0,0,1-2.24-1.15q-1.32-1.14-1.32-1.89a2.61,2.61,0,0,1,.38-1.36c.26-.41.43-.71.53-.88a7.33,7.33,0,0,1,.69-.91,9,9,0,0,1,1.22-1.17A6.18,6.18,0,0,1,208.32.1a6,6,0,0,1,3,.59A9.83,9.83,0,0,1,213,1.89a1.91,1.91,0,0,0,1.1.6,1.54,1.54,0,0,0,1.25-.58C216,.7,216.73.1,217.5.1A3.12,3.12,0,0,1,219.22.81Z"/><path class="cls-2" d="M230.94,15a13.14,13.14,0,0,1,18.31,0,12.35,12.35,0,0,1,4,9.45,12.37,12.37,0,0,1-2.06,7,12.82,12.82,0,0,1-5,4.54,13.49,13.49,0,0,1-6.1,1.46A13,13,0,0,1,234,35.94a13.66,13.66,0,0,1-5-4.59,12.1,12.1,0,0,1-2-6.86A12.34,12.34,0,0,1,230.94,15Zm6,12.88A5,5,0,0,0,240,29.08a5.21,5.21,0,0,0,3.16-1.2,4.18,4.18,0,0,0,1.58-3.54,4.15,4.15,0,0,0-1.49-3.49,5.13,5.13,0,0,0-3.2-1.15,5,5,0,0,0-3.2,1.2,4.25,4.25,0,0,0-1.49,3.51A4.11,4.11,0,0,0,236.91,27.9Z"/><path class="cls-2" d="M276.89,30h13a5.46,5.46,0,0,1,2.3.36,1.84,1.84,0,0,1,.95,1.13,7,7,0,0,1,.24,2,7,7,0,0,1-.24,2,1.65,1.65,0,0,1-.81,1,5.4,5.4,0,0,1-2.49.48H272.64c-2.24,0-3.54-.6-3.92-1.81a7.3,7.3,0,0,1-.29-2.44V6.22a13.37,13.37,0,0,1,.07-1.65A4,4,0,0,1,269,3.3c.45-.86,1.69-1.29,3.73-1.29,2.24,0,3.56.59,4,1.77a9.44,9.44,0,0,1,.24,2.48Z"/><path class="cls-2" d="M304.37,7.2a2.05,2.05,0,0,1-1.27,1,8.36,8.36,0,0,1-2.42.28,8.29,8.29,0,0,1-2.41-.28,2,2,0,0,1-1.27-1,4.17,4.17,0,0,1-.43-1.26,13.59,13.59,0,0,1-.07-1.65,13.37,13.37,0,0,1,.07-1.65A3.73,3.73,0,0,1,297,1.39C297.42.53,298.67.1,300.71.1s3.22.43,3.63,1.29a3.75,3.75,0,0,1,.46,1.26,13.59,13.59,0,0,1,.07,1.65A13.37,13.37,0,0,1,304.8,6,3.87,3.87,0,0,1,304.37,7.2Zm-7.87,8.87a13.59,13.59,0,0,1,.07-1.65,4.31,4.31,0,0,1,.41-1.27c.44-.83,1.69-1.24,3.73-1.24a5.07,5.07,0,0,1,3.25.81,2.64,2.64,0,0,1,.86,2.06c0,.32.05.78.05,1.38V32.9a13.37,13.37,0,0,1-.07,1.65,3.8,3.8,0,0,1-.46,1.27c-.41.83-1.64,1.24-3.68,1.24s-3.24-.43-3.68-1.29a4.35,4.35,0,0,1-.41-1.24,13.5,13.5,0,0,1-.07-1.68Z"/><path class="cls-2" d="M322.52,11.91a10.6,10.6,0,0,1,7.81,3.78,12.57,12.57,0,0,1,0,17.52Q326.82,37,322.75,37c-2.71,0-4.63-.77-5.78-2.3-.26,1.56-1.63,2.35-4.12,2.35-2,0-3.23-.44-3.68-1.3a4.2,4.2,0,0,1-.4-1.26,13.16,13.16,0,0,1-.08-1.65V4.26a12.93,12.93,0,0,1,.08-1.65,3.69,3.69,0,0,1,.4-1.22C309.62.53,310.86.1,312.9.1s3.22.43,3.64,1.29A3.94,3.94,0,0,1,317,2.65a13.59,13.59,0,0,1,.07,1.65v10A6.66,6.66,0,0,1,322.52,11.91Zm-4.19,15.44a3.78,3.78,0,0,0,2.94,1.3,4,4,0,0,0,3-1.3,4,4,0,0,0,1.25-2.86,4.29,4.29,0,0,0-1.15-2.9,3.88,3.88,0,0,0-3.06-1.31,3.74,3.74,0,0,0-3,1.34,4.39,4.39,0,0,0-1.12,2.89A4.13,4.13,0,0,0,318.33,27.35Z"/><path class="cls-2" d="M354.13,12.15a3.25,3.25,0,0,1,1.5,1,3.35,3.35,0,0,1,.6,2.22,7.52,7.52,0,0,1-.91,3.35,2.85,2.85,0,0,1-2.63,1.82,3.7,3.7,0,0,1-1.65-.39,4.86,4.86,0,0,0-2.08-.38,3.72,3.72,0,0,0-2.41.91,2.75,2.75,0,0,0-1.13,2.2v10a13.37,13.37,0,0,1-.07,1.65,4,4,0,0,1-.45,1.27c-.48.83-1.72,1.24-3.73,1.24a5.29,5.29,0,0,1-3.3-.81,2.86,2.86,0,0,1-.86-2.06V16a13.59,13.59,0,0,1,.07-1.65,3.77,3.77,0,0,1,.4-1.22c.45-.86,1.69-1.29,3.73-1.29s3.11.37,3.59,1.1a2.77,2.77,0,0,1,.53,1.58,8.84,8.84,0,0,1,.69-.82A9.45,9.45,0,0,1,348,12.43a5.59,5.59,0,0,1,2.6-.81,12.49,12.49,0,0,1,1.89.12A12,12,0,0,1,354.13,12.15Z"/><path class="cls-2" d="M360.73,15A13.14,13.14,0,0,1,379,15a12.35,12.35,0,0,1,4,9.45,12.43,12.43,0,0,1-2.05,7A12.91,12.91,0,0,1,376,36a13.49,13.49,0,0,1-6.1,1.46,13,13,0,0,1-6.12-1.55,13.66,13.66,0,0,1-5-4.59,12.1,12.1,0,0,1-2-6.86A12.34,12.34,0,0,1,360.73,15Zm6,12.88a5,5,0,0,0,3.11,1.18,5.21,5.21,0,0,0,3.16-1.2,4.18,4.18,0,0,0,1.58-3.54,4.15,4.15,0,0,0-1.49-3.49,5.13,5.13,0,0,0-3.2-1.15,5,5,0,0,0-3.2,1.2,4.25,4.25,0,0,0-1.49,3.51A4.11,4.11,0,0,0,366.7,27.9Z"/><path class="cls-2" d="M85.91,42.45A3,3,0,0,1,87.76,41a14.92,14.92,0,0,1,7,0,3,3,0,0,1,1.85,1.46,6.17,6.17,0,0,1,.62,1.85,19.78,19.78,0,0,1,.11,2.4V88.29a19.78,19.78,0,0,1-.11,2.4,5,5,0,0,1-.66,1.78q-1,1.88-5.88,1.88t-5.4-3.41a10.27,10.27,0,0,1-8.14,3.34q-6.27,0-11.42-5.47a18.32,18.32,0,0,1,0-25.51Q71,57.8,77.18,57.8a9.77,9.77,0,0,1,8,3.48V46.66a19.78,19.78,0,0,1,.11-2.4A5.72,5.72,0,0,1,85.91,42.45ZM74.6,80.28A5.85,5.85,0,0,0,79,82.16a5.53,5.53,0,0,0,4.28-1.88A6,6,0,0,0,85,76.14a6.42,6.42,0,0,0-1.63-4.21,5.48,5.48,0,0,0-4.42-2,5.65,5.65,0,0,0-4.46,1.91,6.31,6.31,0,0,0-1.67,4.22A5.86,5.86,0,0,0,74.6,80.28Z"/><path class="cls-2" d="M138.3,71.69q0,4.28-2.12,6.33a6.65,6.65,0,0,1-4.7,2.06H115c0,1.3.77,2.39,2.3,3.27a9.14,9.14,0,0,0,4.59,1.32,19.45,19.45,0,0,0,6.34-.83l.76-.28a7.06,7.06,0,0,1,2.79-.77c1.48,0,2.76,1,3.83,3.13a7.74,7.74,0,0,1,.9,3.21q0,6.2-14.83,6.19a22.43,22.43,0,0,1-9.15-1.77,15.55,15.55,0,0,1-6.23-4.7,20,20,0,0,1-4.39-12.6q0-8.77,5.67-14A20,20,0,0,1,121.73,57q9.67,0,14.2,6.82A14.17,14.17,0,0,1,138.3,71.69Zm-14.69,2c1.76,0,2.65-.74,2.65-2.23A3.14,3.14,0,0,0,125,68.94a5.44,5.44,0,0,0-3.48-1,7,7,0,0,0-4.49,1.85,5.16,5.16,0,0,0-2.23,3.93Z"/><path class="cls-2" d="M184.24,45.51a3.32,3.32,0,0,1,2-1.64,11.41,11.41,0,0,1,3.3-.41,11.66,11.66,0,0,1,3.2.35,5.17,5.17,0,0,1,1.82.83,2.84,2.84,0,0,1,.86,1.46,10.9,10.9,0,0,1,.42,3.55V88.29a20.35,20.35,0,0,1-.1,2.44,5.68,5.68,0,0,1-.66,1.81q-1,1.88-5.43,1.88a11.39,11.39,0,0,1-3.76-.42,4.05,4.05,0,0,1-1.74-1.32q-15.67-20.9-20.61-27.29v22.9a20.35,20.35,0,0,1-.1,2.44,5.5,5.5,0,0,1-.67,1.81q-1,1.88-5.43,1.88c-2.87,0-4.64-.63-5.29-1.88a5.67,5.67,0,0,1-.66-1.88,21.37,21.37,0,0,1-.1-2.44V49.37a8.49,8.49,0,0,1,.66-3.86,3.33,3.33,0,0,1,2-1.64,11.89,11.89,0,0,1,3.41-.41,11.6,11.6,0,0,1,3.31.38,4.33,4.33,0,0,1,1.71.87,18.53,18.53,0,0,1,1.6,1.81q14.69,20,19.63,26.38V49.37A8.49,8.49,0,0,1,184.24,45.51Z"/><path class="cls-2" d="M236.77,71.69q0,4.28-2.13,6.33a6.61,6.61,0,0,1-4.7,2.06H213.45c0,1.3.76,2.39,2.29,3.27a9.14,9.14,0,0,0,4.6,1.32,19.34,19.34,0,0,0,6.33-.83l.77-.28a7,7,0,0,1,2.78-.77c1.49,0,2.76,1,3.83,3.13a7.78,7.78,0,0,1,.91,3.21q0,6.2-14.83,6.19A22.44,22.44,0,0,1,211,93.55a15.62,15.62,0,0,1-6.23-4.7,20,20,0,0,1-4.38-12.6q0-8.77,5.67-14A20,20,0,0,1,220.2,57q9.68,0,14.2,6.82A14.17,14.17,0,0,1,236.77,71.69Zm-14.69,2c1.76,0,2.64-.74,2.64-2.23a3.12,3.12,0,0,0-1.22-2.57A5.44,5.44,0,0,0,220,68a7,7,0,0,0-4.49,1.85,5.18,5.18,0,0,0-2.22,3.93Z"/><path class="cls-2" d="M264.54,89.82q-2.64,3.48-8.42,3.48T245.29,88a17.83,17.83,0,0,1,0-24.89q5.08-5.36,11.14-5.36a10.44,10.44,0,0,1,4.31.87,7.45,7.45,0,0,1,3.83,3,4.26,4.26,0,0,1,1.43-3,6.15,6.15,0,0,1,3.93-1,13.56,13.56,0,0,1,4,.42,2.94,2.94,0,0,1,1.78,1.42,5.66,5.66,0,0,1,.62,1.78,19,19,0,0,1,.11,2.37V92.4a16.39,16.39,0,0,1-5.57,12.91,18.49,18.49,0,0,1-12.53,4.91,21.08,21.08,0,0,1-10.1-2.58c-3.2-1.71-4.8-3.27-4.8-4.66a6.6,6.6,0,0,1,2.09-4.8,16.62,16.62,0,0,1,2.05-2,2.7,2.7,0,0,1,1.71-.56,3.27,3.27,0,0,1,2,.84A11.64,11.64,0,0,0,258.56,99a5.24,5.24,0,0,0,4.31-2.09,7.73,7.73,0,0,0,1.67-5ZM252.15,75.59a5.67,5.67,0,0,0,1.78,4.07,5.79,5.79,0,0,0,4.31,1.81,5.43,5.43,0,0,0,4.21-1.85,5.87,5.87,0,0,0,1.68-4,6.27,6.27,0,0,0-1.61-4.11,5.31,5.31,0,0,0-4.31-1.92,5.61,5.61,0,0,0-4.39,1.88A6.14,6.14,0,0,0,252.15,75.59Z"/><path class="cls-2" d="M286.82,62.32a19.09,19.09,0,0,1,13.37-5.43,18.89,18.89,0,0,1,13.29,5.4A18,18,0,0,1,319.26,76a18.15,18.15,0,0,1-3,10.27A18.83,18.83,0,0,1,309,92.92,19.65,19.65,0,0,1,300.12,95a18.9,18.9,0,0,1-8.91-2.26,19.8,19.8,0,0,1-7.28-6.68,17.59,17.59,0,0,1-3-10A18,18,0,0,1,286.82,62.32Zm8.7,18.76a7.41,7.41,0,0,0,4.53,1.71,7.58,7.58,0,0,0,4.59-1.74,6.07,6.07,0,0,0,2.3-5.15,6,6,0,0,0-2.16-5.08,7.42,7.42,0,0,0-4.66-1.67,7.31,7.31,0,0,0-4.67,1.74A6.17,6.17,0,0,0,293.29,76,6,6,0,0,0,295.52,81.08Z"/><path class="cls-2" d="M335.27,76.07a5.67,5.67,0,0,0,2,4.6,6.34,6.34,0,0,0,4.14,1.63A7.25,7.25,0,0,0,345.47,81a6.13,6.13,0,0,1,3.1-1.29c1.39,0,3.09,1.23,5.08,3.69a6.07,6.07,0,0,1,1.6,3.62c0,1.76-1.27,3.41-3.83,4.94a16.49,16.49,0,0,1-9.74,2.78,20,20,0,0,1-12.46-4.66,16.61,16.61,0,0,1-4.67-5.95,18.63,18.63,0,0,1-1.81-8.22,18.16,18.16,0,0,1,1.81-8.14,16.61,16.61,0,0,1,4.67-5.88,19.43,19.43,0,0,1,12.32-4.6,18.21,18.21,0,0,1,5.15.73,17.07,17.07,0,0,1,3.69,1.43l1.11.69c.84.56,1.49,1,1.95,1.33a4,4,0,0,1,1.81,3.17,7.49,7.49,0,0,1-1.46,4q-2.51,3.82-4.8,3.83A8.06,8.06,0,0,1,345.23,71a5,5,0,0,0-3.59-1.19,6.73,6.73,0,0,0-4.35,1.67A5.71,5.71,0,0,0,335.27,76.07Z"/><path class="cls-2" d="M371.23,50.94a3,3,0,0,1-1.84,1.43,15.32,15.32,0,0,1-7,0,2.94,2.94,0,0,1-1.84-1.46,6,6,0,0,1-.63-1.85,20.24,20.24,0,0,1-.1-2.4,20.24,20.24,0,0,1,.1-2.4,5.79,5.79,0,0,1,.59-1.78q1-1.87,5.43-1.88c2.93,0,4.69.63,5.3,1.88a5.61,5.61,0,0,1,.66,1.85,20.24,20.24,0,0,1,.1,2.4,20.24,20.24,0,0,1-.1,2.4A5.6,5.6,0,0,1,371.23,50.94ZM359.78,63.85a20.47,20.47,0,0,1,.1-2.4,6.56,6.56,0,0,1,.59-1.84q1-1.81,5.43-1.81c2.23,0,3.81.39,4.74,1.18a3.85,3.85,0,0,1,1.25,3c.05.47.07,1.14.07,2V88.36a20.24,20.24,0,0,1-.1,2.4,5.61,5.61,0,0,1-.66,1.85c-.61,1.2-2.4,1.81-5.37,1.81s-4.71-.63-5.36-1.88a6.72,6.72,0,0,1-.59-1.81,20.35,20.35,0,0,1-.1-2.44Z"/><path class="cls-2" d="M382.33,62.32a19.13,19.13,0,0,1,26.67,0A18,18,0,0,1,414.78,76a18.08,18.08,0,0,1-3,10.27,18.8,18.8,0,0,1-7.27,6.61A19.73,19.73,0,0,1,395.63,95a19,19,0,0,1-8.91-2.26,19.77,19.77,0,0,1-7.27-6.68,17.51,17.51,0,0,1-3-10A18,18,0,0,1,382.33,62.32ZM391,81.08a7.36,7.36,0,0,0,4.52,1.71,7.63,7.63,0,0,0,4.6-1.74,6.06,6.06,0,0,0,2.29-5.15,6,6,0,0,0-2.15-5.08,7.45,7.45,0,0,0-4.67-1.67A7.28,7.28,0,0,0,391,70.89,6.17,6.17,0,0,0,388.81,76,6,6,0,0,0,391,81.08Z"/><path class="cls-2" d="M419.58,91.14a2.88,2.88,0,0,1-1.32-2.64q0-1.81,2.64-5.5a2.71,2.71,0,0,1,2.47-1.18,10.09,10.09,0,0,1,4.63,1.7,10.7,10.7,0,0,0,5.29,1.71c2.83,0,4.25-.56,4.25-1.67q0-1.34-4.67-2a22.77,22.77,0,0,1-8.7-3.28,9.27,9.27,0,0,1-3.34-3.93A14.26,14.26,0,0,1,419.51,68q0-11,15.11-11a24.5,24.5,0,0,1,10.16,2.37c1.62.74,2.44,1.67,2.44,2.78a8.13,8.13,0,0,1-1.54,4.11c-1,1.63-2.06,2.44-3.13,2.44a9.38,9.38,0,0,1-3.1-1,11.61,11.61,0,0,0-4.9-1q-4.11,0-4.11,1.53,0,2.08,4.73,2.72a25.73,25.73,0,0,1,8.91,2.64,7.91,7.91,0,0,1,3.38,3.38,12.16,12.16,0,0,1,1.36,6,13,13,0,0,1-1.36,6.16,8.78,8.78,0,0,1-3.79,3.79A25.58,25.58,0,0,1,432.49,95,23.88,23.88,0,0,1,419.58,91.14Z"/><path class="cls-2" d="M149.61,127.91v-23.7a11.47,11.47,0,0,1,.06-1.38,3.29,3.29,0,0,1,.34-1c.38-.73,1.29-1.09,2.72-1.09a5.27,5.27,0,0,1,2.9.55,2.18,2.18,0,0,1,.87,1.6,5.6,5.6,0,0,1,4.85-2.11,8.63,8.63,0,0,1,6.27,3.12,10.4,10.4,0,0,1,0,14.53,8.61,8.61,0,0,1-6.27,3.13c-2.21,0-3.82-.63-4.82-1.87v8.2a9.35,9.35,0,0,1-.07,1.38,3.35,3.35,0,0,1-.36,1,1.7,1.7,0,0,1-1,.83,6.49,6.49,0,0,1-2,.25,6.76,6.76,0,0,1-2-.25,1.75,1.75,0,0,1-1.06-.81,3.17,3.17,0,0,1-.36-1A11.47,11.47,0,0,1,149.61,127.91Zm8-19.12a3.63,3.63,0,0,0-.93,2.4,3.51,3.51,0,0,0,.95,2.37,3.12,3.12,0,0,0,2.44,1.08,3.37,3.37,0,0,0,2.51-1.06,3.33,3.33,0,0,0,1-2.39,3.53,3.53,0,0,0-1-2.42,3.27,3.27,0,0,0-2.53-1.07A3.12,3.12,0,0,0,157.64,108.79Z"/><path class="cls-2" d="M187.1,103c.16-1.51,1.23-2.27,3.21-2.27a8.49,8.49,0,0,1,2.35.24,1.72,1.72,0,0,1,1.08.85,3.58,3.58,0,0,1,.36,1.08,12,12,0,0,1,.06,1.4v14.2a12,12,0,0,1-.06,1.4,3.77,3.77,0,0,1-.34,1.08c-.38.7-1.31,1-2.78,1a5.4,5.4,0,0,1-3-.55,2.14,2.14,0,0,1-.88-1.6c-1,1.44-2.67,2.15-5,2.15a8.86,8.86,0,0,1-6.51-3.2,10.58,10.58,0,0,1-3-7.45,10.45,10.45,0,0,1,3-7.43,9,9,0,0,1,6.63-3.18,6.26,6.26,0,0,1,2.52.49A4.5,4.5,0,0,1,187.1,103Zm-7.38,8.44a3.4,3.4,0,0,0,1.05,2.42,3.47,3.47,0,0,0,2.56,1.07,3.21,3.21,0,0,0,2.49-1.09,3.52,3.52,0,0,0,1-2.42,3.7,3.7,0,0,0-1-2.45,3.14,3.14,0,0,0-2.55-1.14,3.28,3.28,0,0,0-2.6,1.14A3.67,3.67,0,0,0,179.72,111.43Z"/><path class="cls-2" d="M211.94,101a2.69,2.69,0,0,1,1.27.83,2.87,2.87,0,0,1,.51,1.89,6.33,6.33,0,0,1-.77,2.84,2.41,2.41,0,0,1-2.23,1.54,3.12,3.12,0,0,1-1.4-.32,4.05,4.05,0,0,0-1.77-.33,3.19,3.19,0,0,0-2.05.78,2.32,2.32,0,0,0-.95,1.86v8.52a11.85,11.85,0,0,1-.06,1.4,3.24,3.24,0,0,1-.39,1.08c-.4.7-1.46,1-3.16,1a4.48,4.48,0,0,1-2.8-.69,2.41,2.41,0,0,1-.73-1.74V104.25a12,12,0,0,1,.06-1.4,3.35,3.35,0,0,1,.35-1c.37-.73,1.43-1.09,3.16-1.09s2.64.31,3,.93a2.32,2.32,0,0,1,.45,1.34,6.92,6.92,0,0,1,.59-.69,7.89,7.89,0,0,1,1.64-1.1,4.85,4.85,0,0,1,2.21-.68,10.47,10.47,0,0,1,1.61.1A9.3,9.3,0,0,1,211.94,101Z"/><path class="cls-2" d="M228.61,103c.17-1.51,1.24-2.27,3.21-2.27a8.45,8.45,0,0,1,2.35.24,1.7,1.7,0,0,1,1.08.85,3.58,3.58,0,0,1,.36,1.08,11.51,11.51,0,0,1,.07,1.4v14.2a11.51,11.51,0,0,1-.07,1.4,3.77,3.77,0,0,1-.34,1.08c-.38.7-1.31,1-2.78,1a5.4,5.4,0,0,1-3-.55,2.2,2.2,0,0,1-.88-1.6c-1,1.44-2.67,2.15-5,2.15a8.86,8.86,0,0,1-6.51-3.2,10.57,10.57,0,0,1-3-7.45,10.44,10.44,0,0,1,3-7.43,9,9,0,0,1,6.64-3.18,6.24,6.24,0,0,1,2.51.49,5.19,5.19,0,0,1,1.58.91A5.36,5.36,0,0,1,228.61,103Zm-7.38,8.44a3.4,3.4,0,0,0,1.05,2.42,3.49,3.49,0,0,0,2.56,1.07,3.25,3.25,0,0,0,2.5-1.09,3.55,3.55,0,0,0,1-2.42,3.74,3.74,0,0,0-1-2.45,3.17,3.17,0,0,0-2.56-1.14,3.3,3.3,0,0,0-2.6,1.14A3.67,3.67,0,0,0,221.23,111.43Z"/><path class="cls-2" d="M274.34,119.2a3.29,3.29,0,0,1,2-1.64,11.11,11.11,0,0,1,3.31-.42,12.06,12.06,0,0,1,3.2.35,4.93,4.93,0,0,1,1.81.84,2.87,2.87,0,0,1,.87,1.46,10.85,10.85,0,0,1,.42,3.55V162a19.65,19.65,0,0,1-.11,2.43,5.6,5.6,0,0,1-.66,1.81c-.65,1.26-2.46,1.88-5.43,1.88a11.43,11.43,0,0,1-3.76-.42,4.09,4.09,0,0,1-1.74-1.32q-15.66-20.88-20.61-27.29V162a20.15,20.15,0,0,1-.1,2.43,5.6,5.6,0,0,1-.66,1.81c-.65,1.26-2.46,1.88-5.43,1.88s-4.64-.62-5.29-1.88a5.52,5.52,0,0,1-.66-1.88,20.71,20.71,0,0,1-.11-2.43V123.06a8.49,8.49,0,0,1,.66-3.86,3.34,3.34,0,0,1,2-1.64,11.51,11.51,0,0,1,3.41-.42,11.69,11.69,0,0,1,3.31.38,4.34,4.34,0,0,1,1.7.87,18.42,18.42,0,0,1,1.6,1.81q14.7,20,19.64,26.39V123.06A8.49,8.49,0,0,1,274.34,119.2Z"/><path class="cls-2" d="M303,124.63a3,3,0,0,1-1.85,1.42,14.92,14.92,0,0,1-7,0,2.91,2.91,0,0,1-1.84-1.46,6,6,0,0,1-.63-1.84,29,29,0,0,1,0-4.81,5.83,5.83,0,0,1,.59-1.77c.65-1.26,2.46-1.88,5.43-1.88s4.69.62,5.29,1.88a5.35,5.35,0,0,1,.66,1.84,26.35,26.35,0,0,1,0,4.81A5.4,5.4,0,0,1,303,124.63ZM291.5,137.54a20.24,20.24,0,0,1,.1-2.4,6.61,6.61,0,0,1,.59-1.85c.65-1.2,2.46-1.81,5.43-1.81,2.23,0,3.81.4,4.74,1.19a3.86,3.86,0,0,1,1.25,3c.05.46.07,1.14.07,2v24.37a20,20,0,0,1-.11,2.4,5.35,5.35,0,0,1-.66,1.84q-.9,1.82-5.36,1.81c-2.92,0-4.71-.62-5.36-1.88a6.61,6.61,0,0,1-.59-1.81,20.15,20.15,0,0,1-.1-2.43Z"/><path class="cls-2" d="M329.65,131.41a14.73,14.73,0,0,1,11.59,5.33,19.13,19.13,0,0,1,4.63,13V162a20,20,0,0,1-.11,2.4,5.83,5.83,0,0,1-.59,1.77c-.65,1.26-2.46,1.88-5.43,1.88q-5,0-5.71-2.57a11.32,11.32,0,0,1-.42-3.55V149.65a5.58,5.58,0,0,0-6-6.05,6.05,6.05,0,0,0-4.45,1.67,5.84,5.84,0,0,0-1.71,4.38V162a20.47,20.47,0,0,1-.1,2.4,5,5,0,0,1-.66,1.77c-.61,1.26-2.4,1.88-5.37,1.88s-4.71-.62-5.36-1.88a6.56,6.56,0,0,1-.59-1.84,20.47,20.47,0,0,1-.1-2.4V137.26a19.46,19.46,0,0,1,.1-2.33,5,5,0,0,1,.66-1.78q1-1.74,5.36-1.74c2.84,0,4.58.54,5.23,1.6a5.58,5.58,0,0,1,.69,2.86,6.77,6.77,0,0,1,1.26-1.39,11.67,11.67,0,0,1,1.88-1.47A9.14,9.14,0,0,1,329.65,131.41Zm9.53-16.08c1.67,1.16,2.51,2.28,2.51,3.34a3.54,3.54,0,0,1-.56,1.88c-.37.61-.62,1-.76,1.29a12.25,12.25,0,0,1-1,1.36,10.23,10.23,0,0,1-1.74,1.74,9,9,0,0,1-5.36,2A8.48,8.48,0,0,1,328,126a15.37,15.37,0,0,1-2.58-1.81,2.82,2.82,0,0,0-1.63-.9,2.55,2.55,0,0,0-1.81.83c-1.07,1.86-2.06,2.79-3,2.79a5.46,5.46,0,0,1-3.27-1.67c-1.28-1.12-1.92-2-1.92-2.75a3.76,3.76,0,0,1,.56-2c.37-.6.63-1,.77-1.28a8.53,8.53,0,0,1,1-1.33,12.39,12.39,0,0,1,1.77-1.7,8.93,8.93,0,0,1,5.36-1.88,8.83,8.83,0,0,1,4.32.87,14.59,14.59,0,0,1,2.5,1.74,2.77,2.77,0,0,0,1.6.87,2.22,2.22,0,0,0,1.81-.84c1-1.76,2-2.64,3.14-2.64A4.62,4.62,0,0,1,339.18,115.33Z"/><path class="cls-2" d="M356.24,136a19.13,19.13,0,0,1,26.66,0,19.2,19.2,0,0,1,2.79,24,18.75,18.75,0,0,1-7.28,6.61,19.67,19.67,0,0,1-8.87,2.13,19.08,19.08,0,0,1-8.92-2.26,19.8,19.8,0,0,1-7.27-6.69,17.54,17.54,0,0,1-3-10A18,18,0,0,1,356.24,136Zm8.7,18.76a7.41,7.41,0,0,0,4.53,1.71,7.58,7.58,0,0,0,4.59-1.74,7,7,0,0,0,.14-10.24,7.48,7.48,0,0,0-4.66-1.67,7.31,7.31,0,0,0-4.67,1.74,6.19,6.19,0,0,0-2.16,5.12A6,6,0,0,0,364.94,154.77Z"/><path class="cls-2" d="M393.48,164.83a2.91,2.91,0,0,1-1.32-2.65q0-1.8,2.65-5.5a2.73,2.73,0,0,1,2.47-1.18,10.17,10.17,0,0,1,4.63,1.71,10.78,10.78,0,0,0,5.29,1.7c2.83,0,4.24-.56,4.24-1.67q0-1.32-4.66-2a22.85,22.85,0,0,1-8.7-3.27,9.26,9.26,0,0,1-3.34-3.93,14.15,14.15,0,0,1-1.33-6.37q0-11,15.11-11a24.69,24.69,0,0,1,10.17,2.36c1.62.75,2.43,1.67,2.43,2.79a8.26,8.26,0,0,1-1.53,4.11c-1,1.62-2.07,2.43-3.13,2.43a9.53,9.53,0,0,1-3.1-1,11.54,11.54,0,0,0-4.91-1.05c-2.74,0-4.11.52-4.11,1.54q0,2.08,4.74,2.71a26,26,0,0,1,8.91,2.65,7.86,7.86,0,0,1,3.37,3.37,12,12,0,0,1,1.36,6,12.9,12.9,0,0,1-1.36,6.17,8.83,8.83,0,0,1-3.79,3.79,25.53,25.53,0,0,1-11.17,2.16A23.91,23.91,0,0,1,393.48,164.83Z"/></g></g></svg>