<svg id="Capa_1" data-name="Capa 1" xmlns="http://www.w3.org/2000/svg" viewBox="0 0 612 792"><defs><style>.cls-1{fill:#0666ff;}.cls-2{fill:#060e19;}.cls-3{fill:#fff;}.cls-4{fill:#e8edee;}.cls-5{fill:#b0b6bb;}.cls-6{fill:#db1f47;}.cls-7{fill:#ffb61e;}.cls-8{fill:#ffd949;}.cls-9{fill:#f4bf1a;}.cls-10{fill:#dca815;}</style></defs><title>Portada</title><rect class="cls-1" width="612" height="792"/><path class="cls-2" d="M71.35,682.63a7.12,7.12,0,0,1,2.22.25,1.78,1.78,0,0,1,1,.83,5.61,5.61,0,0,1,.42,2.38V701a10.11,10.11,0,0,1-2.92,7.15,9.88,9.88,0,0,1-7.48,3.1,9,9,0,0,1-4.5-1.12,9.68,9.68,0,0,1-2.47-1.73l-.31-.31A3.94,3.94,0,0,1,56,705.64a3.78,3.78,0,0,1,1.34-2.4,3.67,3.67,0,0,1,2.39-1.39A3.49,3.49,0,0,1,62,703.12a3.85,3.85,0,0,0,2.76,1.27,3.22,3.22,0,0,0,2.44-1,3.69,3.69,0,0,0,1-2.66v-14.4c0-1.55.25-2.53.77-3A3.6,3.6,0,0,1,71.35,682.63Z"/><path class="cls-2" d="M80.75,693.1a10.59,10.59,0,0,1,14.76,0,10.63,10.63,0,0,1,1.54,13.28A10.38,10.38,0,0,1,93,710a10.82,10.82,0,0,1-4.91,1.18A10.55,10.55,0,0,1,83.18,710a11.09,11.09,0,0,1-4-3.7,9.71,9.71,0,0,1-1.63-5.53A10,10,0,0,1,80.75,693.1Zm4.82,10.39a4.06,4.06,0,0,0,2.5.94,4.18,4.18,0,0,0,2.54-1,3.86,3.86,0,0,0,.08-5.67,4.18,4.18,0,0,0-2.58-.92,4,4,0,0,0-2.58,1,3.42,3.42,0,0,0-1.19,2.83A3.33,3.33,0,0,0,85.57,703.49Z"/><path class="cls-2" d="M101.36,709.05a1.59,1.59,0,0,1-.73-1.46,6.35,6.35,0,0,1,1.46-3,1.5,1.5,0,0,1,1.37-.66,5.59,5.59,0,0,1,2.56.94,6,6,0,0,0,2.93.95c1.57,0,2.35-.31,2.35-.93s-.86-.84-2.58-1.08A12.52,12.52,0,0,1,103.9,702a5.16,5.16,0,0,1-1.85-2.17,8,8,0,0,1-.73-3.53q0-6.07,8.36-6.08a13.44,13.44,0,0,1,5.62,1.31c.9.41,1.35.92,1.35,1.54a4.59,4.59,0,0,1-.84,2.27q-.86,1.35-1.74,1.35a5.06,5.06,0,0,1-1.71-.58,6.51,6.51,0,0,0-2.72-.58c-1.51,0-2.27.29-2.27.85,0,.77.87,1.27,2.62,1.5a14.28,14.28,0,0,1,4.93,1.47,4.4,4.4,0,0,1,1.87,1.86,6.74,6.74,0,0,1,.75,3.34,7.19,7.19,0,0,1-.75,3.41,5,5,0,0,1-2.1,2.1,14.27,14.27,0,0,1-6.18,1.19A13.24,13.24,0,0,1,101.36,709.05Z"/><path class="cls-2" d="M139.61,698.29a4.7,4.7,0,0,1-1.17,3.5,3.67,3.67,0,0,1-2.6,1.14h-9.13a2.11,2.11,0,0,0,1.27,1.81,5,5,0,0,0,2.54.73A10.6,10.6,0,0,0,134,705l.42-.16a3.93,3.93,0,0,1,1.54-.42c.82,0,1.53.58,2.12,1.73a4.36,4.36,0,0,1,.5,1.77q0,3.44-8.21,3.43a12.28,12.28,0,0,1-5.06-1,8.52,8.52,0,0,1-3.45-2.6,11,11,0,0,1-2.42-7,10.07,10.07,0,0,1,3.13-7.76,11.11,11.11,0,0,1,7.84-2.91q5.35,0,7.86,3.77A7.89,7.89,0,0,1,139.61,698.29Zm-11.25-9.61a2.66,2.66,0,0,1-1.15.27q-1.15,0-1.89-2.28a5,5,0,0,1-.31-1.58,1.61,1.61,0,0,1,.27-1,2.54,2.54,0,0,1,1.39-.81l6.35-2a8.82,8.82,0,0,1,1.16-.27c.77,0,1.39.76,1.85,2.27a5.33,5.33,0,0,1,.31,1.56,1.57,1.57,0,0,1-.27,1,2.46,2.46,0,0,1-1.39.81Zm3.12,10.74q1.47,0,1.47-1.23a1.75,1.75,0,0,0-.68-1.43,3.07,3.07,0,0,0-1.92-.54,3.91,3.91,0,0,0-2.49,1,2.86,2.86,0,0,0-1.23,2.17Z"/><path class="cls-2" d="M172.7,688.33a10.15,10.15,0,0,1,1,4.54,10,10,0,0,1-1,4.53,9,9,0,0,1-2.58,3.22,10.74,10.74,0,0,1-6.63,2.46h-4.81v4.35a10.75,10.75,0,0,1-.06,1.33,3,3,0,0,1-.37,1c-.36.7-1.36,1-3,1-1.8,0-2.85-.47-3.16-1.42a6.61,6.61,0,0,1-.23-2V686a10.75,10.75,0,0,1,.06-1.33,3.14,3.14,0,0,1,.36-1c.36-.7,1.36-1,3-1h8.24a10.7,10.7,0,0,1,6.59,2.46A9,9,0,0,1,172.7,688.33Zm-6.9,7.09a3,3,0,0,0,1.12-2.55,3,3,0,0,0-1.12-2.56,3.69,3.69,0,0,0-2.31-.86h-4.81v6.81h4.85A3.74,3.74,0,0,0,165.8,695.42Z"/><path class="cls-2" d="M189.38,692.72c.15-1.44,1.16-2.16,3-2.16a8.08,8.08,0,0,1,2.23.23,1.64,1.64,0,0,1,1,.81,3.25,3.25,0,0,1,.35,1,10.86,10.86,0,0,1,.06,1.33v13.48a10.75,10.75,0,0,1-.06,1.33,3.52,3.52,0,0,1-.33,1c-.36.67-1.24,1-2.63,1a5.31,5.31,0,0,1-2.82-.52,2.09,2.09,0,0,1-.82-1.53q-1.42,2.06-4.76,2a8.4,8.4,0,0,1-6.18-3,10,10,0,0,1-2.85-7.07,9.91,9.91,0,0,1,2.87-7,8.57,8.57,0,0,1,6.29-3,6.13,6.13,0,0,1,2.39.46,5.26,5.26,0,0,1,1.5.87A4.9,4.9,0,0,1,189.38,692.72Zm-7,8a3.18,3.18,0,0,0,1,2.29,3.27,3.27,0,0,0,2.42,1,3.05,3.05,0,0,0,2.37-1,3.32,3.32,0,0,0,1-2.29,3.54,3.54,0,0,0-.91-2.33,3,3,0,0,0-2.42-1.08,3.12,3.12,0,0,0-2.47,1.08A3.49,3.49,0,0,0,182.37,700.73Z"/><path class="cls-2" d="M210.29,690.6a8.57,8.57,0,0,1,6.3,3,10.14,10.14,0,0,1,0,14.12,8.36,8.36,0,0,1-6.12,3c-2.19,0-3.74-.62-4.67-1.85-.2,1.25-1.3,1.88-3.31,1.88-1.62,0-2.6-.34-3-1a3.52,3.52,0,0,1-.33-1,10.75,10.75,0,0,1-.06-1.33v-23a10.86,10.86,0,0,1,.06-1.33,3.14,3.14,0,0,1,.33-1c.36-.7,1.36-1,3-1s2.59.34,2.93,1a2.92,2.92,0,0,1,.36,1,10.75,10.75,0,0,1,.06,1.33v8A5.34,5.34,0,0,1,210.29,690.6ZM206.92,703a3,3,0,0,0,2.37,1,3.49,3.49,0,0,0,3.43-3.35,3.46,3.46,0,0,0-.93-2.33,3.11,3.11,0,0,0-2.46-1.06,3,3,0,0,0-2.45,1.08,3.58,3.58,0,0,0-.9,2.33A3.31,3.31,0,0,0,206.92,703Z"/><path class="cls-2" d="M222,684.4a10.86,10.86,0,0,1,.06-1.33,3.62,3.62,0,0,1,.33-1c.36-.69,1.36-1,3-1s2.55.35,2.93,1a3,3,0,0,1,.37,1,11.35,11.35,0,0,1,.06,1.35v17.83a4,4,0,0,0,.23,1.76q.23.36,1,.36a6,6,0,0,1,1.06.06,2,2,0,0,1,.65.33c.51.33.77,1.24.77,2.73s-.26,2.61-.77,3c-.67.46-2.26.54-4.78.23-2-.26-3.26-.91-3.85-2-.72-1.25-1.08-3.26-1.08-6Z"/><path class="cls-2" d="M237.22,693.1a10.58,10.58,0,0,1,14.75,0,10.59,10.59,0,0,1,1.54,13.28,10.29,10.29,0,0,1-4,3.66,10.87,10.87,0,0,1-4.92,1.18,10.58,10.58,0,0,1-4.93-1.25,11,11,0,0,1-4-3.7,9.72,9.72,0,0,1-1.64-5.53A10,10,0,0,1,237.22,693.1ZM242,703.49a4.09,4.09,0,0,0,2.51.94,4.22,4.22,0,0,0,2.54-1,3.88,3.88,0,0,0,.08-5.67,4.19,4.19,0,0,0-2.59-.92,4.05,4.05,0,0,0-2.58,1,3.45,3.45,0,0,0-1.19,2.83A3.33,3.33,0,0,0,242,703.49Z"/><path class="cls-2" d="M267.42,686c0-.59,0-1,.05-1.33a3,3,0,0,1,.37-1c.36-.7,1.36-1,3-1,1.8,0,2.87.47,3.2,1.42a7.69,7.69,0,0,1,.19,2v21.41a11.18,11.18,0,0,1-.05,1.35,3,3,0,0,1-.37,1c-.36.7-1.36,1-3,1-1.8,0-2.85-.48-3.16-1.46a5.93,5.93,0,0,1-.23-2Z"/><path class="cls-2" d="M290.18,708.32a5.47,5.47,0,0,1-4.66,1.93,8.23,8.23,0,0,1-6-3,9.86,9.86,0,0,1,0-13.77,8.37,8.37,0,0,1,6.16-3,5.8,5.8,0,0,1,2.39.48,5.36,5.36,0,0,1,1.48.89,4.94,4.94,0,0,1,.64.75A2.38,2.38,0,0,1,291,691a3.42,3.42,0,0,1,2.18-.55,7.31,7.31,0,0,1,2.19.23,1.58,1.58,0,0,1,1,.79,3,3,0,0,1,.35,1,10.27,10.27,0,0,1,.06,1.31v15.94a9.08,9.08,0,0,1-3.08,7.15,10.24,10.24,0,0,1-6.94,2.72,11.64,11.64,0,0,1-5.58-1.43c-1.77-.95-2.66-1.81-2.66-2.58a3.66,3.66,0,0,1,1.15-2.66,9.06,9.06,0,0,1,1.14-1.11,1.51,1.51,0,0,1,.95-.31,1.79,1.79,0,0,1,1.11.46,6.43,6.43,0,0,0,4,1.42,2.93,2.93,0,0,0,2.39-1.15,4.34,4.34,0,0,0,.92-2.77Zm-6.86-7.88a3.14,3.14,0,0,0,1,2.26,3.23,3.23,0,0,0,2.38,1,3,3,0,0,0,2.34-1,3.3,3.3,0,0,0,.92-2.24,3.49,3.49,0,0,0-.89-2.27,2.93,2.93,0,0,0-2.38-1.06,3.1,3.1,0,0,0-2.43,1A3.36,3.36,0,0,0,283.32,700.44Z"/><path class="cls-2" d="M299.85,684.4a10.86,10.86,0,0,1,.06-1.33,3.56,3.56,0,0,1,.32-1c.36-.69,1.37-1,3-1s2.54.35,2.93,1a3.15,3.15,0,0,1,.36,1,11.35,11.35,0,0,1,.06,1.35v17.83a4.15,4.15,0,0,0,.23,1.76,1.16,1.16,0,0,0,1,.36,5.93,5.93,0,0,1,1.06.06,2,2,0,0,1,.66.33c.51.33.77,1.24.77,2.73s-.26,2.61-.77,3c-.67.46-2.26.54-4.78.23-2-.26-3.26-.91-3.85-2-.72-1.25-1.08-3.26-1.08-6Z"/><path class="cls-2" d="M331.63,698.29a4.7,4.7,0,0,1-1.18,3.5,3.65,3.65,0,0,1-2.6,1.14h-9.13a2.12,2.12,0,0,0,1.27,1.81,5.06,5.06,0,0,0,2.55.73A10.54,10.54,0,0,0,326,705l.43-.16a3.84,3.84,0,0,1,1.54-.42c.82,0,1.52.58,2.11,1.73a4.24,4.24,0,0,1,.51,1.77q0,3.44-8.21,3.43a12.25,12.25,0,0,1-5.06-1,8.52,8.52,0,0,1-3.45-2.6,11.06,11.06,0,0,1-2.43-7,10.07,10.07,0,0,1,3.14-7.76,11.09,11.09,0,0,1,7.84-2.91q5.35,0,7.86,3.77A7.89,7.89,0,0,1,331.63,698.29Zm-8.13,1.13c1,0,1.46-.41,1.46-1.23a1.74,1.74,0,0,0-.67-1.43,3.08,3.08,0,0,0-1.93-.54,3.91,3.91,0,0,0-2.48,1,2.86,2.86,0,0,0-1.23,2.17Z"/><path class="cls-2" d="M334.28,709.05a1.61,1.61,0,0,1-.73-1.46,6.3,6.3,0,0,1,1.47-3,1.49,1.49,0,0,1,1.36-.66,5.62,5.62,0,0,1,2.57.94,5.9,5.9,0,0,0,2.92.95c1.57,0,2.35-.31,2.35-.93s-.86-.84-2.58-1.08a12.48,12.48,0,0,1-4.81-1.81,5.09,5.09,0,0,1-1.85-2.17,7.89,7.89,0,0,1-.73-3.53q0-6.07,8.36-6.08a13.48,13.48,0,0,1,5.62,1.31c.9.41,1.35.92,1.35,1.54a4.62,4.62,0,0,1-.85,2.27c-.57.9-1.14,1.35-1.73,1.35a5.16,5.16,0,0,1-1.72-.58,6.46,6.46,0,0,0-2.71-.58c-1.52,0-2.28.29-2.28.85,0,.77.88,1.27,2.62,1.5a14.22,14.22,0,0,1,4.93,1.47,4.35,4.35,0,0,1,1.87,1.86,6.74,6.74,0,0,1,.75,3.34,7.19,7.19,0,0,1-.75,3.41,5,5,0,0,1-2.1,2.1,14.21,14.21,0,0,1-6.18,1.19A13.24,13.24,0,0,1,334.28,709.05Z"/><path class="cls-2" d="M359.3,686.81a1.65,1.65,0,0,1-1,.79,6.76,6.76,0,0,1-1.94.23,6.84,6.84,0,0,1-1.95-.23,1.64,1.64,0,0,1-1-.81,3.53,3.53,0,0,1-.35-1c0-.3,0-.74,0-1.33s0-1,0-1.33a3.14,3.14,0,0,1,.33-1c.36-.7,1.36-1,3-1s2.59.34,2.92,1a3,3,0,0,1,.37,1,10.75,10.75,0,0,1,.06,1.33,10.56,10.56,0,0,1-.06,1.32A3,3,0,0,1,359.3,686.81ZM353,694c0-.59,0-1,0-1.33a3.73,3.73,0,0,1,.33-1c.36-.67,1.36-1,3-1a4.07,4.07,0,0,1,2.62.66,2.15,2.15,0,0,1,.69,1.65c0,.26,0,.63,0,1.12v13.48a10.75,10.75,0,0,1-.06,1.33,3,3,0,0,1-.37,1c-.33.67-1.32,1-3,1s-2.61-.34-3-1a3.62,3.62,0,0,1-.33-1c0-.28,0-.73,0-1.35Z"/><path class="cls-2" d="M376,692.72c.16-1.44,1.17-2.16,3.05-2.16a8.13,8.13,0,0,1,2.23.23,1.64,1.64,0,0,1,1,.81,3.53,3.53,0,0,1,.35,1,11.31,11.31,0,0,1,.05,1.33v13.48a11.21,11.21,0,0,1-.05,1.33,3.52,3.52,0,0,1-.33,1c-.36.67-1.24,1-2.64,1a5.24,5.24,0,0,1-2.81-.52,2.09,2.09,0,0,1-.83-1.53c-.95,1.37-2.53,2-4.76,2a8.4,8.4,0,0,1-6.18-3,10.14,10.14,0,0,1,0-14.12,8.58,8.58,0,0,1,6.3-3,6.17,6.17,0,0,1,2.39.46,5.26,5.26,0,0,1,1.5.87A5.33,5.33,0,0,1,376,692.72Zm-7,8a3.22,3.22,0,0,0,1,2.29,3.3,3.3,0,0,0,2.43,1,3.05,3.05,0,0,0,2.37-1,3.31,3.31,0,0,0,.94-2.29,3.58,3.58,0,0,0-.9-2.33,3,3,0,0,0-2.43-1.08,3.11,3.11,0,0,0-2.46,1.08A3.5,3.5,0,0,0,369,700.73Z"/><path class="cls-2" d="M385.9,709.05a1.59,1.59,0,0,1-.73-1.46,6.35,6.35,0,0,1,1.46-3,1.5,1.5,0,0,1,1.37-.66,5.59,5.59,0,0,1,2.56.94,6,6,0,0,0,2.93.95c1.56,0,2.35-.31,2.35-.93s-.86-.84-2.58-1.08a12.58,12.58,0,0,1-4.82-1.81,5.16,5.16,0,0,1-1.85-2.17,8,8,0,0,1-.73-3.53q0-6.07,8.36-6.08a13.44,13.44,0,0,1,5.62,1.31c.9.41,1.35.92,1.35,1.54a4.59,4.59,0,0,1-.84,2.27q-.86,1.35-1.74,1.35a5.06,5.06,0,0,1-1.71-.58,6.51,6.51,0,0,0-2.72-.58c-1.51,0-2.27.29-2.27.85,0,.77.87,1.27,2.62,1.5a14.28,14.28,0,0,1,4.93,1.47,4.4,4.4,0,0,1,1.87,1.86,6.74,6.74,0,0,1,.75,3.34,7.19,7.19,0,0,1-.75,3.41,5,5,0,0,1-2.1,2.1,14.27,14.27,0,0,1-6.18,1.19A13.24,13.24,0,0,1,385.9,709.05Z"/><path class="cls-2" d="M414.75,706.89a3.67,3.67,0,0,1-1-2.21c0-.65.55-1.52,1.66-2.6a2.89,2.89,0,0,1,2-.92q1.08,0,3,1.92a5.76,5.76,0,0,0,1.54,1.25,3.68,3.68,0,0,0,1.85.6q3.59,0,3.58-2.93a1.72,1.72,0,0,0-1-1.48,7.14,7.14,0,0,0-2.44-.87,21.89,21.89,0,0,1-3.16-.86,20.7,20.7,0,0,1-3.16-1.41,6.39,6.39,0,0,1-2.45-2.56,8.55,8.55,0,0,1-1-4.22,8.09,8.09,0,0,1,2.52-5.91,9.33,9.33,0,0,1,6.88-2.53,14,14,0,0,1,4.22.6,8.17,8.17,0,0,1,2.64,1.22l1,.73a3,3,0,0,1,1.19,1.88,4.16,4.16,0,0,1-.92,2.12c-.87,1.29-1.77,1.93-2.7,1.93a4,4,0,0,1-2-.77,3.21,3.21,0,0,1-.44-.39,7.19,7.19,0,0,0-.6-.5,3.9,3.9,0,0,0-2.06-.5,3.44,3.44,0,0,0-2.08.6,1.94,1.94,0,0,0-.83,1.66,2,2,0,0,0,1,1.71,6.13,6.13,0,0,0,2.45.89,28.64,28.64,0,0,1,3.2.71,19.92,19.92,0,0,1,3.19,1.17,5.72,5.72,0,0,1,2.45,2.41,8.42,8.42,0,0,1,1,4.22,9.31,9.31,0,0,1-1,4.41,7.7,7.7,0,0,1-2.62,3,12,12,0,0,1-6.66,2,12.74,12.74,0,0,1-3.43-.45,10.84,10.84,0,0,1-5.47-3.48Z"/><path class="cls-2" d="M456.35,698.29a4.7,4.7,0,0,1-1.17,3.5,3.67,3.67,0,0,1-2.6,1.14h-9.13a2.11,2.11,0,0,0,1.27,1.81,5,5,0,0,0,2.54.73,10.6,10.6,0,0,0,3.51-.46l.42-.16a3.93,3.93,0,0,1,1.54-.42c.82,0,1.53.58,2.12,1.73a4.36,4.36,0,0,1,.5,1.77q0,3.44-8.2,3.43a12.33,12.33,0,0,1-5.07-1,8.52,8.52,0,0,1-3.45-2.6,11,11,0,0,1-2.42-7,10,10,0,0,1,3.14-7.76,11.07,11.07,0,0,1,7.83-2.91q5.35,0,7.86,3.77A7.81,7.81,0,0,1,456.35,698.29Zm-8.13,1.13q1.47,0,1.47-1.23a1.75,1.75,0,0,0-.68-1.43,3.07,3.07,0,0,0-1.92-.54,3.91,3.91,0,0,0-2.49,1,2.86,2.86,0,0,0-1.23,2.17Z"/><path class="cls-2" d="M472.65,690.79a2.69,2.69,0,0,1,1.21.79,2.74,2.74,0,0,1,.48,1.79,6.06,6.06,0,0,1-.73,2.7,2.29,2.29,0,0,1-2.12,1.46,3.08,3.08,0,0,1-1.33-.3,3.77,3.77,0,0,0-1.67-.31,3,3,0,0,0-1.95.73,2.22,2.22,0,0,0-.9,1.77v8.09a10.75,10.75,0,0,1-.06,1.33,3,3,0,0,1-.37,1c-.38.67-1.39,1-3,1a4.29,4.29,0,0,1-2.66-.65,2.31,2.31,0,0,1-.69-1.66V693.91c0-.59,0-1,.05-1.32a3.19,3.19,0,0,1,.33-1c.36-.69,1.36-1,3-1s2.5.3,2.89.89a2.22,2.22,0,0,1,.42,1.27,6.2,6.2,0,0,1,.56-.66,7.31,7.31,0,0,1,1.56-1,4.53,4.53,0,0,1,2.1-.65,8.72,8.72,0,0,1,2.87.42Z"/><path class="cls-2" d="M490.25,690.79a2.64,2.64,0,0,1,1.21.79,2.74,2.74,0,0,1,.48,1.79,6.06,6.06,0,0,1-.73,2.7,2.28,2.28,0,0,1-2.12,1.46,3.11,3.11,0,0,1-1.33-.3,3.77,3.77,0,0,0-1.67-.31,3,3,0,0,0-1.95.73,2.22,2.22,0,0,0-.9,1.77v8.09a10.75,10.75,0,0,1-.06,1.33,3,3,0,0,1-.37,1c-.38.67-1.38,1-3,1a4.31,4.31,0,0,1-2.66-.65,2.31,2.31,0,0,1-.69-1.66V693.91a10.56,10.56,0,0,1,.06-1.32,2.91,2.91,0,0,1,.32-1c.36-.69,1.36-1,3-1s2.5.3,2.89.89a2.22,2.22,0,0,1,.42,1.27,6.2,6.2,0,0,1,.56-.66,7.31,7.31,0,0,1,1.56-1,4.53,4.53,0,0,1,2.1-.65,8.72,8.72,0,0,1,2.87.42Z"/><path class="cls-2" d="M506.08,692.72c.15-1.44,1.17-2.16,3-2.16a8.21,8.21,0,0,1,2.24.23,1.69,1.69,0,0,1,1,.81,3.47,3.47,0,0,1,.34,1,10.86,10.86,0,0,1,.06,1.33v13.48a10.75,10.75,0,0,1-.06,1.33,3.47,3.47,0,0,1-.32,1c-.36.67-1.24,1-2.64,1a5.24,5.24,0,0,1-2.81-.52,2.06,2.06,0,0,1-.83-1.53q-1.42,2.06-4.76,2a8.4,8.4,0,0,1-6.18-3,10,10,0,0,1-2.85-7.07,9.91,9.91,0,0,1,2.87-7,8.58,8.58,0,0,1,6.3-3,6.12,6.12,0,0,1,2.38.46,5.5,5.5,0,0,1,1.51.87A5.33,5.33,0,0,1,506.08,692.72Zm-7,8a3.18,3.18,0,0,0,1,2.29,3.3,3.3,0,0,0,2.43,1,3.05,3.05,0,0,0,2.37-1,3.31,3.31,0,0,0,.94-2.29,3.54,3.54,0,0,0-.91-2.33,3,3,0,0,0-2.42-1.08,3.12,3.12,0,0,0-2.47,1.08A3.49,3.49,0,0,0,499.07,700.73Z"/><path class="cls-2" d="M527.15,690.56a8.14,8.14,0,0,1,6.41,3,10.56,10.56,0,0,1,2.57,7.18v6.78a10.75,10.75,0,0,1-.06,1.33,3.14,3.14,0,0,1-.33,1c-.36.7-1.36,1-3,1-1.82,0-2.87-.47-3.15-1.42a6.13,6.13,0,0,1-.23-2v-6.78A3.11,3.11,0,0,0,526,697.3a3.36,3.36,0,0,0-2.46.93,3.22,3.22,0,0,0-.95,2.42v6.82a11.21,11.21,0,0,1-.05,1.33,2.66,2.66,0,0,1-.37,1c-.33.7-1.32,1-3,1s-2.61-.34-3-1a3.52,3.52,0,0,1-.33-1,10.75,10.75,0,0,1-.06-1.33V693.8a10.23,10.23,0,0,1,.06-1.29,2.66,2.66,0,0,1,.37-1c.36-.65,1.35-1,3-1s2.53.3,2.89.89a3,3,0,0,1,.39,1.58,3.67,3.67,0,0,1,.69-.77,6.29,6.29,0,0,1,1-.81A5.06,5.06,0,0,1,527.15,690.56Z"/><path class="cls-2" d="M541.86,693.1a10.59,10.59,0,0,1,14.76,0,10.63,10.63,0,0,1,1.54,13.28,10.38,10.38,0,0,1-4,3.66,10.86,10.86,0,0,1-4.91,1.18,10.55,10.55,0,0,1-4.93-1.25,11.09,11.09,0,0,1-4-3.7,9.71,9.71,0,0,1-1.63-5.53A10,10,0,0,1,541.86,693.1Zm4.82,10.39a4.06,4.06,0,0,0,2.5.94,4.18,4.18,0,0,0,2.54-1,3.86,3.86,0,0,0,.08-5.67,4.18,4.18,0,0,0-2.58-.92,4.05,4.05,0,0,0-2.58,1,3.43,3.43,0,0,0-1.2,2.83A3.34,3.34,0,0,0,546.68,703.49Z"/><path class="cls-3" d="M67.56,678.83a7.05,7.05,0,0,1,2.21.25,1.72,1.72,0,0,1,1,.83,5.61,5.61,0,0,1,.43,2.39v14.9a10.12,10.12,0,0,1-2.93,7.15,9.81,9.81,0,0,1-7.47,3.1,8.9,8.9,0,0,1-4.51-1.12,9.87,9.87,0,0,1-2.47-1.73l-.3-.31a3.94,3.94,0,0,1-1.35-2.45,3.8,3.8,0,0,1,1.35-2.4,3.64,3.64,0,0,1,2.38-1.39,3.47,3.47,0,0,1,2.31,1.27A3.85,3.85,0,0,0,61,700.59a3.22,3.22,0,0,0,2.44-1,3.64,3.64,0,0,0,1-2.66v-14.4c0-1.54.25-2.53.77-3A3.63,3.63,0,0,1,67.56,678.83Z"/><path class="cls-3" d="M77,689.31a10.58,10.58,0,0,1,14.76,0,10.61,10.61,0,0,1,1.54,13.29,10.54,10.54,0,0,1-4,3.66,10.94,10.94,0,0,1-4.91,1.17,10.55,10.55,0,0,1-4.93-1.25,11,11,0,0,1-4-3.7,9.64,9.64,0,0,1-1.64-5.53A10,10,0,0,1,77,689.31Zm4.82,10.38a4.08,4.08,0,0,0,2.5.94,4.23,4.23,0,0,0,2.55-1,3.37,3.37,0,0,0,1.27-2.85,3.31,3.31,0,0,0-1.2-2.81,4.09,4.09,0,0,0-2.58-.93,4,4,0,0,0-2.58,1,3.4,3.4,0,0,0-1.19,2.83A3.33,3.33,0,0,0,81.77,699.69Z"/><path class="cls-3" d="M97.56,705.25a1.58,1.58,0,0,1-.73-1.46,6.35,6.35,0,0,1,1.46-3,1.52,1.52,0,0,1,1.37-.66,5.6,5.6,0,0,1,2.56.95,5.94,5.94,0,0,0,2.93.94c1.57,0,2.35-.31,2.35-.92s-.86-.85-2.58-1.08a12.91,12.91,0,0,1-4.82-1.81A5.16,5.16,0,0,1,98.26,696a7.84,7.84,0,0,1-.74-3.52q0-6.09,8.36-6.09a13.64,13.64,0,0,1,5.63,1.31c.9.41,1.34.92,1.34,1.54a4.55,4.55,0,0,1-.84,2.27q-.86,1.35-1.74,1.35a5.13,5.13,0,0,1-1.71-.58,6.47,6.47,0,0,0-2.72-.58c-1.51,0-2.27.29-2.27.85,0,.77.87,1.27,2.62,1.51a14,14,0,0,1,4.93,1.46,4.32,4.32,0,0,1,1.87,1.87,6.67,6.67,0,0,1,.75,3.33,7.19,7.19,0,0,1-.75,3.41,4.89,4.89,0,0,1-2.1,2.1,14.21,14.21,0,0,1-6.18,1.19A13.24,13.24,0,0,1,97.56,705.25Z"/><path class="cls-3" d="M135.81,694.49a4.66,4.66,0,0,1-1.17,3.5,3.67,3.67,0,0,1-2.6,1.14h-9.13a2.11,2.11,0,0,0,1.27,1.81,5,5,0,0,0,2.54.73,10.6,10.6,0,0,0,3.51-.46l.42-.15a3.8,3.8,0,0,1,1.54-.43c.82,0,1.53.58,2.12,1.73a4.36,4.36,0,0,1,.5,1.78q0,3.42-8.2,3.42a12.33,12.33,0,0,1-5.07-1,8.52,8.52,0,0,1-3.45-2.6,11.11,11.11,0,0,1-2.42-7,10,10,0,0,1,3.14-7.76,11.07,11.07,0,0,1,7.83-2.91q5.36,0,7.86,3.78A7.76,7.76,0,0,1,135.81,694.49Zm-11.24-9.61a2.6,2.6,0,0,1-1.16.27q-1.16,0-1.89-2.28a5.27,5.27,0,0,1-.31-1.58,1.61,1.61,0,0,1,.27-1,2.58,2.58,0,0,1,1.39-.81l6.36-2a8.49,8.49,0,0,1,1.15-.27c.77,0,1.39.76,1.85,2.27a5,5,0,0,1,.31,1.56,1.55,1.55,0,0,1-.27,1,2.42,2.42,0,0,1-1.39.81Zm3.12,10.74c1,0,1.46-.41,1.46-1.23a1.73,1.73,0,0,0-.68-1.42,3,3,0,0,0-1.92-.54,3.91,3.91,0,0,0-2.49,1,2.86,2.86,0,0,0-1.23,2.17Z"/><path class="cls-3" d="M168.9,684.53a10.16,10.16,0,0,1,1,4.55,10,10,0,0,1-1,4.52,9,9,0,0,1-2.58,3.22,10.74,10.74,0,0,1-6.63,2.46h-4.81v4.36a10.56,10.56,0,0,1-.06,1.32,3.26,3.26,0,0,1-.36,1c-.36.69-1.37,1-3,1-1.8,0-2.85-.48-3.16-1.43a6.56,6.56,0,0,1-.23-2V682.22a10.86,10.86,0,0,1,.06-1.33,3,3,0,0,1,.37-1c.35-.69,1.36-1,3-1h8.24a10.7,10.7,0,0,1,6.59,2.46A9,9,0,0,1,168.9,684.53ZM162,691.62a3,3,0,0,0,1.11-2.54,3.07,3.07,0,0,0-1.11-2.57,3.79,3.79,0,0,0-2.32-.86h-4.81v6.82h4.85A3.8,3.8,0,0,0,162,691.62Z"/><path class="cls-3" d="M185.58,688.92c.15-1.44,1.17-2.16,3-2.16a7.76,7.76,0,0,1,2.24.24,1.65,1.65,0,0,1,1,.8,3.43,3.43,0,0,1,.34,1,10.56,10.56,0,0,1,.06,1.32v13.49a10.56,10.56,0,0,1-.06,1.32,3.62,3.62,0,0,1-.32,1c-.36.66-1.24,1-2.64,1a5.24,5.24,0,0,1-2.81-.52,2.06,2.06,0,0,1-.83-1.52q-1.43,2-4.76,2a8.4,8.4,0,0,1-6.18-3,10,10,0,0,1-2.85-7.06,9.87,9.87,0,0,1,2.87-7,8.55,8.55,0,0,1,6.3-3,6.12,6.12,0,0,1,2.38.46,5.5,5.5,0,0,1,1.51.87A5.33,5.33,0,0,1,185.58,688.92Zm-7,8a3.2,3.2,0,0,0,1,2.3,3.29,3.29,0,0,0,2.43,1,3.08,3.08,0,0,0,2.37-1,3.4,3.4,0,0,0,.94-2.3,3.54,3.54,0,0,0-.91-2.33A3,3,0,0,0,182,693.5a3.12,3.12,0,0,0-2.47,1.08A3.51,3.51,0,0,0,178.57,696.93Z"/><path class="cls-3" d="M206.49,686.8a8.54,8.54,0,0,1,6.3,3.05,10.13,10.13,0,0,1,0,14.11,8.36,8.36,0,0,1-6.12,3q-3.28,0-4.66-1.85c-.21,1.26-1.31,1.89-3.32,1.89-1.61,0-2.6-.35-3-1a3.67,3.67,0,0,1-.33-1,10.56,10.56,0,0,1-.06-1.32v-23a10.86,10.86,0,0,1,.06-1.33,3.23,3.23,0,0,1,.33-1c.36-.7,1.36-1,3-1s2.6.34,2.93,1a3.18,3.18,0,0,1,.37,1c0,.3,0,.74,0,1.33v8A5.34,5.34,0,0,1,206.49,686.8Zm-3.37,12.44a3.05,3.05,0,0,0,2.37,1,3.51,3.51,0,0,0,3.43-3.36,3.51,3.51,0,0,0-.92-2.33,3.14,3.14,0,0,0-2.47-1.06,3,3,0,0,0-2.44,1.08,3.54,3.54,0,0,0-.91,2.33A3.31,3.31,0,0,0,203.12,699.24Z"/><path class="cls-3" d="M218.17,680.6c0-.59,0-1,.05-1.33a3.73,3.73,0,0,1,.33-1c.36-.69,1.36-1,3-1s2.54.35,2.92,1a3,3,0,0,1,.37,1,11.35,11.35,0,0,1,.06,1.35v17.83a4,4,0,0,0,.23,1.76q.23.36,1,.36a5.93,5.93,0,0,1,1.06.06,1.89,1.89,0,0,1,.65.33c.52.33.77,1.24.77,2.73s-.25,2.61-.77,3-2.26.54-4.77.23c-2-.26-3.26-.91-3.86-2a12.8,12.8,0,0,1-1.07-6Z"/><path class="cls-3" d="M233.42,689.31a10.57,10.57,0,0,1,14.75,0,10.61,10.61,0,0,1,1.54,13.29,10.44,10.44,0,0,1-4,3.66,11,11,0,0,1-4.91,1.17,10.52,10.52,0,0,1-4.93-1.25,10.93,10.93,0,0,1-4-3.7,9.72,9.72,0,0,1-1.64-5.53A9.93,9.93,0,0,1,233.42,689.31Zm4.81,10.38a4.11,4.11,0,0,0,2.51.94,4.2,4.2,0,0,0,2.54-1,3.87,3.87,0,0,0,.08-5.66,4.13,4.13,0,0,0-2.58-.93,4,4,0,0,0-2.58,1,3.4,3.4,0,0,0-1.2,2.83A3.33,3.33,0,0,0,238.23,699.69Z"/><path class="cls-3" d="M263.62,682.22a10.86,10.86,0,0,1,.06-1.33,2.92,2.92,0,0,1,.36-1c.36-.69,1.36-1,3-1s2.86.48,3.19,1.42a7.6,7.6,0,0,1,.2,2v21.41a10.68,10.68,0,0,1-.06,1.35,3,3,0,0,1-.37,1c-.36.7-1.36,1-3,1-1.8,0-2.85-.48-3.16-1.46a6.18,6.18,0,0,1-.23-2Z"/><path class="cls-3" d="M286.38,704.52a5.46,5.46,0,0,1-4.66,1.93,8.2,8.2,0,0,1-6-3,9.86,9.86,0,0,1,0-13.77,8.39,8.39,0,0,1,6.16-3,5.64,5.64,0,0,1,2.39.49,5.24,5.24,0,0,1,1.49.88,4.81,4.81,0,0,1,.63.75,2.33,2.33,0,0,1,.79-1.63,3.37,3.37,0,0,1,2.18-.56,7.31,7.31,0,0,1,2.19.23,1.63,1.63,0,0,1,1,.79,3.19,3.19,0,0,1,.34,1A10.27,10.27,0,0,1,293,690v16a9.07,9.07,0,0,1-3.08,7.14,10.24,10.24,0,0,1-6.94,2.72,11.64,11.64,0,0,1-5.58-1.43c-1.77-1-2.66-1.81-2.66-2.58a3.67,3.67,0,0,1,1.16-2.66A8.49,8.49,0,0,1,277,708a1.51,1.51,0,0,1,.95-.31,1.77,1.77,0,0,1,1.11.46,6.46,6.46,0,0,0,4,1.43,2.93,2.93,0,0,0,2.39-1.16,4.32,4.32,0,0,0,.92-2.77Zm-6.85-7.88a3.13,3.13,0,0,0,1,2.26,3.2,3.2,0,0,0,2.39,1,3,3,0,0,0,2.33-1,3.3,3.3,0,0,0,.92-2.24,3.5,3.5,0,0,0-.88-2.27,3,3,0,0,0-2.39-1.06,3.12,3.12,0,0,0-2.43,1A3.37,3.37,0,0,0,279.53,696.64Z"/><path class="cls-3" d="M296.05,680.6a10.86,10.86,0,0,1,.06-1.33,3.73,3.73,0,0,1,.33-1c.36-.69,1.36-1,3-1s2.54.35,2.93,1a3,3,0,0,1,.36,1,11.35,11.35,0,0,1,.06,1.35v17.83a4.15,4.15,0,0,0,.23,1.76,1.16,1.16,0,0,0,1,.36,5.93,5.93,0,0,1,1.06.06,2,2,0,0,1,.66.33c.51.33.77,1.24.77,2.73s-.26,2.61-.77,3c-.67.46-2.26.54-4.78.23-2-.26-3.26-.91-3.85-2a12.66,12.66,0,0,1-1.08-6Z"/><path class="cls-3" d="M327.83,694.49a4.63,4.63,0,0,1-1.18,3.5,3.65,3.65,0,0,1-2.6,1.14h-9.13a2.12,2.12,0,0,0,1.28,1.81,5,5,0,0,0,2.54.73,10.5,10.5,0,0,0,3.5-.46l.43-.15a3.76,3.76,0,0,1,1.54-.43c.82,0,1.53.58,2.12,1.73a4.36,4.36,0,0,1,.5,1.78q0,3.42-8.21,3.42a12.25,12.25,0,0,1-5.06-1,8.52,8.52,0,0,1-3.45-2.6,11.06,11.06,0,0,1-2.43-7,10.07,10.07,0,0,1,3.14-7.76,11.11,11.11,0,0,1,7.84-2.91q5.35,0,7.86,3.78A7.83,7.83,0,0,1,327.83,694.49Zm-8.13,1.13c1,0,1.46-.41,1.46-1.23a1.72,1.72,0,0,0-.67-1.42,3,3,0,0,0-1.92-.54,3.89,3.89,0,0,0-2.49,1,2.86,2.86,0,0,0-1.23,2.17Z"/><path class="cls-3" d="M330.49,705.25a1.59,1.59,0,0,1-.74-1.46,6.3,6.3,0,0,1,1.47-3,1.5,1.5,0,0,1,1.37-.66,5.63,5.63,0,0,1,2.56.95,5.91,5.91,0,0,0,2.93.94c1.56,0,2.34-.31,2.34-.92s-.86-.85-2.58-1.08a12.87,12.87,0,0,1-4.81-1.81,5.18,5.18,0,0,1-1.85-2.18,7.84,7.84,0,0,1-.73-3.52q0-6.09,8.36-6.09a13.6,13.6,0,0,1,5.62,1.31c.9.41,1.35.92,1.35,1.54a4.49,4.49,0,0,1-.85,2.27c-.56.9-1.14,1.35-1.73,1.35a5.16,5.16,0,0,1-1.72-.58,6.46,6.46,0,0,0-2.71-.58c-1.52,0-2.27.29-2.27.85,0,.77.87,1.27,2.62,1.51a14.11,14.11,0,0,1,4.93,1.46,4.35,4.35,0,0,1,1.86,1.87,6.67,6.67,0,0,1,.75,3.33,7.19,7.19,0,0,1-.75,3.41,4.89,4.89,0,0,1-2.1,2.1,14.21,14.21,0,0,1-6.18,1.19A13.18,13.18,0,0,1,330.49,705.25Z"/><path class="cls-3" d="M355.51,683a1.7,1.7,0,0,1-1,.79,6.71,6.71,0,0,1-1.94.23,6.84,6.84,0,0,1-2-.23,1.69,1.69,0,0,1-1-.81,3.2,3.2,0,0,1-.34-1,14.77,14.77,0,0,1,0-2.66,2.93,2.93,0,0,1,.32-1c.36-.7,1.37-1,3-1s2.59.34,2.93,1a3.14,3.14,0,0,1,.36,1,14.77,14.77,0,0,1,0,2.66A3.2,3.2,0,0,1,355.51,683Zm-6.34,7.14a10.56,10.56,0,0,1,.06-1.32,3.32,3.32,0,0,1,.32-1c.36-.66,1.37-1,3-1a4.07,4.07,0,0,1,2.62.66,2.12,2.12,0,0,1,.69,1.65,10.71,10.71,0,0,1,0,1.12v13.48a10.75,10.75,0,0,1-.06,1.33,3.14,3.14,0,0,1-.36,1c-.34.67-1.33,1-3,1s-2.61-.34-3-1a3.18,3.18,0,0,1-.32-1,10.68,10.68,0,0,1-.06-1.35Z"/><path class="cls-3" d="M372.16,688.92c.16-1.44,1.17-2.16,3-2.16a7.68,7.68,0,0,1,2.23.24,1.59,1.59,0,0,1,1,.8,3.21,3.21,0,0,1,.35,1,10.56,10.56,0,0,1,.06,1.32v13.49a10.56,10.56,0,0,1-.06,1.32,3.67,3.67,0,0,1-.33,1c-.36.66-1.24,1-2.64,1a5.26,5.26,0,0,1-2.81-.52,2.13,2.13,0,0,1-.83-1.52q-1.43,2-4.75,2a8.42,8.42,0,0,1-6.19-3,10.13,10.13,0,0,1,0-14.11,8.59,8.59,0,0,1,6.3-3,6.17,6.17,0,0,1,2.39.46,5.26,5.26,0,0,1,1.5.87A5.33,5.33,0,0,1,372.16,688.92Zm-7,8a3.21,3.21,0,0,0,1,2.3,3.25,3.25,0,0,0,2.42,1,3.08,3.08,0,0,0,2.37-1,3.36,3.36,0,0,0,.95-2.3,3.59,3.59,0,0,0-.91-2.33,3,3,0,0,0-2.43-1.08,3.11,3.11,0,0,0-2.46,1.08A3.52,3.52,0,0,0,365.15,696.93Z"/><path class="cls-3" d="M382.1,705.25a1.58,1.58,0,0,1-.73-1.46,6.35,6.35,0,0,1,1.46-3,1.52,1.52,0,0,1,1.37-.66,5.63,5.63,0,0,1,2.56.95,5.94,5.94,0,0,0,2.93.94c1.57,0,2.35-.31,2.35-.92s-.86-.85-2.58-1.08a12.91,12.91,0,0,1-4.82-1.81A5.16,5.16,0,0,1,382.8,696a7.84,7.84,0,0,1-.74-3.52q0-6.09,8.36-6.09a13.64,13.64,0,0,1,5.63,1.31c.9.41,1.34.92,1.34,1.54a4.55,4.55,0,0,1-.84,2.27q-.85,1.35-1.74,1.35a5.13,5.13,0,0,1-1.71-.58,6.51,6.51,0,0,0-2.72-.58c-1.51,0-2.27.29-2.27.85,0,.77.87,1.27,2.62,1.51a14,14,0,0,1,4.93,1.46,4.32,4.32,0,0,1,1.87,1.87,6.67,6.67,0,0,1,.75,3.33,7.19,7.19,0,0,1-.75,3.41,4.89,4.89,0,0,1-2.1,2.1,14.21,14.21,0,0,1-6.18,1.19A13.24,13.24,0,0,1,382.1,705.25Z"/><path class="cls-3" d="M411,703.1a3.73,3.73,0,0,1-1-2.22c0-.65.55-1.52,1.66-2.6a2.94,2.94,0,0,1,2-.92q1.08,0,3,1.92a5.76,5.76,0,0,0,1.54,1.25,3.68,3.68,0,0,0,1.85.6c2.39,0,3.59-1,3.59-2.93a1.73,1.73,0,0,0-1-1.48,6.93,6.93,0,0,0-2.44-.86A20.77,20.77,0,0,1,417,695a21.15,21.15,0,0,1-3.16-1.41,6.39,6.39,0,0,1-2.45-2.56,8.55,8.55,0,0,1-1-4.22,8.06,8.06,0,0,1,2.53-5.91,9.28,9.28,0,0,1,6.87-2.52,14.35,14.35,0,0,1,4.22.59,8.17,8.17,0,0,1,2.64,1.22l1,.73a3,3,0,0,1,1.19,1.89,4.22,4.22,0,0,1-.92,2.12q-1.31,1.92-2.7,1.92a4,4,0,0,1-2-.77,4.77,4.77,0,0,1-.44-.38,4.65,4.65,0,0,0-.6-.5,3.81,3.81,0,0,0-2.06-.51,3.46,3.46,0,0,0-2.08.6,1.94,1.94,0,0,0-.83,1.66,2,2,0,0,0,1,1.71,6.13,6.13,0,0,0,2.45.89,28.16,28.16,0,0,1,3.2.71,19,19,0,0,1,3.19,1.18,5.59,5.59,0,0,1,2.45,2.4,8.34,8.34,0,0,1,1,4.22,9.31,9.31,0,0,1-1,4.41,7.62,7.62,0,0,1-2.62,2.95,12,12,0,0,1-6.66,2,13.16,13.16,0,0,1-3.43-.44,11,11,0,0,1-5.47-3.49Z"/><path class="cls-3" d="M452.55,694.49a4.66,4.66,0,0,1-1.17,3.5,3.65,3.65,0,0,1-2.6,1.14h-9.13a2.11,2.11,0,0,0,1.27,1.81,5.05,5.05,0,0,0,2.54.73,10.6,10.6,0,0,0,3.51-.46l.42-.15a3.8,3.8,0,0,1,1.54-.43c.82,0,1.53.58,2.12,1.73a4.2,4.2,0,0,1,.5,1.78q0,3.42-8.2,3.42a12.33,12.33,0,0,1-5.07-1,8.49,8.49,0,0,1-3.44-2.6,11.06,11.06,0,0,1-2.43-7,10,10,0,0,1,3.14-7.76,11.07,11.07,0,0,1,7.84-2.91c3.57,0,6.18,1.26,7.85,3.78A7.76,7.76,0,0,1,452.55,694.49Zm-8.12,1.13c1,0,1.46-.41,1.46-1.23a1.75,1.75,0,0,0-.67-1.42,3,3,0,0,0-1.93-.54,3.89,3.89,0,0,0-2.48,1,2.84,2.84,0,0,0-1.24,2.17Z"/><path class="cls-3" d="M468.85,687a2.54,2.54,0,0,1,1.21.79,2.7,2.7,0,0,1,.48,1.79,6,6,0,0,1-.73,2.69,2.29,2.29,0,0,1-2.12,1.47,3.12,3.12,0,0,1-1.33-.31,3.77,3.77,0,0,0-1.67-.31,3,3,0,0,0-1.95.73,2.22,2.22,0,0,0-.9,1.77v8.09a10.75,10.75,0,0,1-.06,1.33,3,3,0,0,1-.37,1c-.38.67-1.38,1-3,1a4.24,4.24,0,0,1-2.66-.65,2.31,2.31,0,0,1-.69-1.66V690.12a10.75,10.75,0,0,1,.06-1.33,2.91,2.91,0,0,1,.32-1c.36-.69,1.36-1,3-1s2.5.3,2.89.89a2.24,2.24,0,0,1,.42,1.27,5.36,5.36,0,0,1,.56-.65,6.61,6.61,0,0,1,1.56-1,4.44,4.44,0,0,1,2.1-.66,9.33,9.33,0,0,1,1.52.1A8.23,8.23,0,0,1,468.85,687Z"/><path class="cls-3" d="M486.45,687a2.49,2.49,0,0,1,1.21.79,2.7,2.7,0,0,1,.49,1.79,6,6,0,0,1-.74,2.69,2.29,2.29,0,0,1-2.12,1.47,3.12,3.12,0,0,1-1.33-.31,3.77,3.77,0,0,0-1.67-.31,3.06,3.06,0,0,0-2,.73,2.22,2.22,0,0,0-.9,1.77v8.09a10.75,10.75,0,0,1-.06,1.33,3.14,3.14,0,0,1-.36,1c-.39.67-1.39,1-3,1a4.24,4.24,0,0,1-2.66-.65,2.31,2.31,0,0,1-.69-1.66V690.12a10.75,10.75,0,0,1,.06-1.33,3,3,0,0,1,.33-1c.35-.69,1.36-1,3-1s2.5.3,2.89.89a2.24,2.24,0,0,1,.42,1.27,6.45,6.45,0,0,1,.56-.65,6.61,6.61,0,0,1,1.56-1,4.5,4.5,0,0,1,2.1-.66,9.33,9.33,0,0,1,1.52.1A8.23,8.23,0,0,1,486.45,687Z"/><path class="cls-3" d="M502.28,688.92c.16-1.44,1.17-2.16,3-2.16a7.71,7.71,0,0,1,2.24.24,1.59,1.59,0,0,1,1,.8,3.48,3.48,0,0,1,.35,1c0,.29.05.73.05,1.32v13.49c0,.59,0,1-.05,1.32a3.67,3.67,0,0,1-.33,1c-.36.66-1.24,1-2.64,1a5.24,5.24,0,0,1-2.81-.52,2.09,2.09,0,0,1-.83-1.52q-1.43,2-4.76,2a8.4,8.4,0,0,1-6.18-3,10.13,10.13,0,0,1,0-14.11,8.55,8.55,0,0,1,6.3-3,6.08,6.08,0,0,1,2.38.46,4.25,4.25,0,0,1,2.2,1.66Zm-7,8a3.2,3.2,0,0,0,1,2.3,3.29,3.29,0,0,0,2.43,1,3.08,3.08,0,0,0,2.37-1,3.35,3.35,0,0,0,.94-2.3,3.58,3.58,0,0,0-.9-2.33,3,3,0,0,0-2.43-1.08,3.14,3.14,0,0,0-2.47,1.08A3.51,3.51,0,0,0,495.27,696.93Z"/><path class="cls-3" d="M523.35,686.76a8.18,8.18,0,0,1,6.42,3,10.62,10.62,0,0,1,2.56,7.19v6.77a10.64,10.64,0,0,1-.06,1.33,3.19,3.19,0,0,1-.33,1c-.36.69-1.36,1-3,1-1.83,0-2.88-.48-3.16-1.43a6.1,6.1,0,0,1-.23-2v-6.78a3.11,3.11,0,0,0-3.33-3.36,3.36,3.36,0,0,0-2.47.93,3.25,3.25,0,0,0-.94,2.43v6.81a10.64,10.64,0,0,1-.06,1.33,2.7,2.7,0,0,1-.37,1c-.33.69-1.32,1-3,1s-2.61-.35-3-1a3.67,3.67,0,0,1-.33-1c0-.29,0-.73,0-1.32V690c0-.56,0-1,0-1.29a2.66,2.66,0,0,1,.37-1c.36-.64,1.35-1,3-1s2.52.3,2.88.89a3,3,0,0,1,.39,1.58,3.67,3.67,0,0,1,.69-.77,7.59,7.59,0,0,1,1-.81A5.08,5.08,0,0,1,523.35,686.76Z"/><path class="cls-3" d="M538.06,689.31a10.58,10.58,0,0,1,14.76,0,10.64,10.64,0,0,1,1.54,13.29,10.54,10.54,0,0,1-4,3.66,10.94,10.94,0,0,1-4.91,1.17,10.55,10.55,0,0,1-4.93-1.25,11,11,0,0,1-4-3.7,9.64,9.64,0,0,1-1.64-5.53A10,10,0,0,1,538.06,689.31Zm4.82,10.38a4.08,4.08,0,0,0,2.5.94,4.23,4.23,0,0,0,2.55-1,3.37,3.37,0,0,0,1.27-2.85A3.31,3.31,0,0,0,548,694a4.09,4.09,0,0,0-2.58-.93,4,4,0,0,0-2.58,1,3.4,3.4,0,0,0-1.19,2.83A3.33,3.33,0,0,0,542.88,699.69Z"/><path class="cls-2" d="M455.25,492H156.75v-157a18,18,0,0,1,18-18H437.24a18,18,0,0,1,18,18V492Z"/><path class="cls-4" d="M367.76,595H244.24a20.59,20.59,0,0,1,20.59-20.59h82.34A20.59,20.59,0,0,1,367.76,595"/><polygon class="cls-5" points="342.03 574.37 269.97 574.37 280.27 533.2 331.73 533.2 342.03 574.37"/><path class="cls-4" d="M437.24,533.2H174.76a18,18,0,0,1-18-18V492h298.5v23.16a18,18,0,0,1-18,18"/><path class="cls-1" d="M326.59,476.59a5.15,5.15,0,0,1-5.15-5.15V456a5.15,5.15,0,1,1,10.29,0v15.44a5.15,5.15,0,0,1-5.14,5.15"/><path class="cls-1" d="M347.17,476.59a5.15,5.15,0,0,1-5.14-5.15v-36a5.15,5.15,0,0,1,10.29,0v36a5.15,5.15,0,0,1-5.15,5.15"/><path class="cls-1" d="M367.76,476.59a5.15,5.15,0,0,1-5.15-5.15V445.71a5.15,5.15,0,0,1,10.3,0v25.73a5.16,5.16,0,0,1-5.15,5.15"/><path class="cls-1" d="M388.34,476.59a5.15,5.15,0,0,1-5.14-5.15V409.68a5.15,5.15,0,1,1,10.29,0v61.76a5.15,5.15,0,0,1-5.15,5.15"/><path class="cls-1" d="M408.93,476.59a5.15,5.15,0,0,1-5.15-5.15V430.27a5.15,5.15,0,0,1,10.3,0v41.17a5.15,5.15,0,0,1-5.15,5.15"/><path class="cls-6" d="M295.71,402a54,54,0,1,1-54-54,54,54,0,0,1,54,54"/><path class="cls-7" d="M239.16,348l-.07.07v56.29a.19.19,0,0,0,.19.19h56.3l.07-.07A54,54,0,0,0,239.16,348"/><path class="cls-6" d="M383.2,373.66H342a5.15,5.15,0,1,1,0-10.3H383.2a5.15,5.15,0,1,1,0,10.3"/><path class="cls-6" d="M408.93,373.66a5.37,5.37,0,0,1-3.65-1.5,6.15,6.15,0,0,1-.62-.77,3.65,3.65,0,0,1-.46-.93,2.94,2.94,0,0,1-.31-.92,4.88,4.88,0,0,1,0-2.06,3.09,3.09,0,0,1,.31-.93,3.6,3.6,0,0,1,.46-.92,7,7,0,0,1,.62-.78,5.39,5.39,0,0,1,7.3,0,5.16,5.16,0,0,1-3.65,8.81"/><path class="cls-6" d="M408.93,347.92H393.49a5.15,5.15,0,1,1,0-10.29h15.44a5.15,5.15,0,1,1,0,10.29"/><path class="cls-6" d="M352.32,347.92H342a5.15,5.15,0,1,1,0-10.29h10.29a5.15,5.15,0,1,1,0,10.29"/><path class="cls-6" d="M372.91,347.92a5.17,5.17,0,0,1-3.66-8.8A5.47,5.47,0,0,1,371,338a5.15,5.15,0,0,1,5.61,1.08,5.15,5.15,0,0,1-3.65,8.8"/><g id="_Grupo_" data-name="&lt;Grupo&gt;"><path id="_Trazado_" data-name="&lt;Trazado&gt;" class="cls-8" d="M110.29,327.87c-19.36,9-43.41-1.6-53.71-23.72s-3-47.37,16.38-56.39,43.4,1.6,53.71,23.72,3,47.37-16.38,56.39"/><path id="_Trazado_2" data-name="&lt;Trazado&gt;" class="cls-9" d="M56.58,304.15c-9.54-20.46-4-43.58,12.23-54.08a33.59,33.59,0,0,0-4.43,1.69C45,260.78,37.69,286,48,308.14s34.36,32.75,53.71,23.73a34.75,34.75,0,0,0,4.15-2.31c-18.46,5.65-39.74-5-49.27-25.41"/><path id="_Trazado_compuesto_" data-name="&lt;Trazado compuesto&gt;" class="cls-9" d="M106.76,320l-.13.06a28.76,28.76,0,0,1-3.07,1.21,1.57,1.57,0,1,1-1-3,25.45,25.45,0,0,0,2.73-1.09,1.65,1.65,0,0,1,2.16.74,1.52,1.52,0,0,1-.7,2.07m7.6-5.42a1.58,1.58,0,0,1-1.8-2.53,27.52,27.52,0,0,0,1.94-2.22,1.58,1.58,0,0,1,2.49,1.93,28.88,28.88,0,0,1-2.17,2.49,1.62,1.62,0,0,1-.46.33m-19.87,7.93a1.61,1.61,0,0,1-.72.15,30.46,30.46,0,0,1-3.29-.3,1.58,1.58,0,0,1,.45-3.12,26.74,26.74,0,0,0,2.94.26,1.58,1.58,0,0,1,.62,3M120.88,304a1.55,1.55,0,0,1-1.2.05,1.58,1.58,0,0,1-1-2,28.37,28.37,0,0,0,.86-2.84,1.58,1.58,0,0,1,3.07.77,31.77,31.77,0,0,1-1,3.14,1.58,1.58,0,0,1-.82.9M82.44,319.46a1.59,1.59,0,0,1-1.35,0c-1-.47-1.94-1-2.88-1.55a1.58,1.58,0,0,1,1.62-2.71c.86.51,1.74,1,2.63,1.42a1.58,1.58,0,0,1,.74,2.1,1.62,1.62,0,0,1-.76.75m40.37-27.76a1.62,1.62,0,0,1-.63.15,1.59,1.59,0,0,1-1.62-1.54c0-1-.09-2-.2-3a1.58,1.58,0,1,1,3.14-.35c.12,1.08.19,2.17.22,3.25a1.58,1.58,0,0,1-.91,1.47M72.38,312.12a1.57,1.57,0,0,1-1.8-.34c-.75-.78-1.47-1.6-2.16-2.44a1.58,1.58,0,0,1,2.46-2c.62.78,1.29,1.53,2,2.25a1.58,1.58,0,0,1,0,2.23,1.55,1.55,0,0,1-.43.29m48-32.64-.11,0a1.57,1.57,0,0,1-2-.93c-.34-.89-.72-1.79-1.13-2.67a1.62,1.62,0,0,1,.74-2.14,1.54,1.54,0,0,1,2.08.71l0,.1c.45.95.86,1.92,1.22,2.9a1.58,1.58,0,0,1-.81,2M65.35,301.82a1.56,1.56,0,0,1-2.08-.75l0,0c-.45-1-.87-2-1.24-3A1.57,1.57,0,1,1,65,297c.35.91.73,1.83,1.15,2.73a1.6,1.6,0,0,1-.76,2.12m48.87-33.15a1.59,1.59,0,0,1-1.89-.44c-.63-.78-1.3-1.53-2-2.24a1.58,1.58,0,1,1,2.28-2.19c.74.77,1.47,1.59,2.16,2.44a1.58,1.58,0,0,1-.23,2.22,1.85,1.85,0,0,1-.33.21M62,289.84a1.61,1.61,0,0,1-.5.14,1.59,1.59,0,0,1-1.74-1.4c-.11-1.07-.19-2.17-.21-3.25a1.58,1.58,0,1,1,3.15-.08c0,1,.09,2,.2,3a1.58,1.58,0,0,1-.9,1.6m42.85-29.36a1.56,1.56,0,0,1-1.48-.07c-.85-.51-1.73-1-2.62-1.41a1.58,1.58,0,0,1,1.36-2.85c1,.47,2,1,2.89,1.55a1.59,1.59,0,0,1,.54,2.17,1.5,1.5,0,0,1-.69.61m-42,16.94a1.57,1.57,0,0,1-2.19-1.82,32.62,32.62,0,0,1,1-3.14,1.58,1.58,0,0,1,3,1.07,29.42,29.42,0,0,0-.87,2.85,1.55,1.55,0,0,1-.87,1m30.33-21.15a1.46,1.46,0,0,1-.88.13,26.68,26.68,0,0,0-3-.25,1.58,1.58,0,0,1,.11-3.16,30.26,30.26,0,0,1,3.28.29,1.58,1.58,0,0,1,.44,3m-24.92,10a1.58,1.58,0,0,1-1.91-2.4,28.77,28.77,0,0,1,2.18-2.49,1.58,1.58,0,0,1,2.25,2.22,25.66,25.66,0,0,0-2,2.21,1.4,1.4,0,0,1-.57.46m12.57-8.9a.85.85,0,0,1-.17.06,25.63,25.63,0,0,0-2.67,1.07,1.62,1.62,0,0,1-2.13-.75,1.57,1.57,0,0,1,.74-2.09l.06,0a27,27,0,0,1,3-1.2,1.58,1.58,0,0,1,1.16,2.93"/><path id="_Trazado_3" data-name="&lt;Trazado&gt;" class="cls-10" d="M57.24,305.58l-8.58,4c.48.94,1,1.87,1.5,2.78l8.59-4c-.53-.91-1-1.83-1.51-2.78"/><path id="_Trazado_4" data-name="&lt;Trazado&gt;" class="cls-10" d="M54.23,298.27l-8.57,4c.32,1,.68,2,1.07,3l8.58-4c-.39-1-.76-2-1.08-3"/><path id="_Trazado_5" data-name="&lt;Trazado&gt;" class="cls-10" d="M61.36,312.36l-8.59,4c.64.88,1.3,1.74,2,2.56l8.58-4c-.68-.82-1.33-1.68-2-2.56"/><path id="_Trazado_6" data-name="&lt;Trazado&gt;" class="cls-10" d="M66.69,318.58l-8.59,4c.82.8,1.67,1.56,2.54,2.3l8.58-4c-.86-.73-1.71-1.5-2.53-2.31"/><path id="_Trazado_7" data-name="&lt;Trazado&gt;" class="cls-10" d="M52.4,290.42l-8.58,4c.16,1.07.35,2.14.58,3.21l8.59-4c-.23-1.07-.43-2.14-.59-3.21"/><path id="_Trazado_8" data-name="&lt;Trazado&gt;" class="cls-10" d="M51.91,281.94l-8.58,4c0,1.15,0,2.31,0,3.48l8.59-4c0-1.17,0-2.33,0-3.48"/><path id="_Trazado_9" data-name="&lt;Trazado&gt;" class="cls-10" d="M53.75,270.64l-8.59,4c-.39,1.29-.72,2.61-1,3.95l8.59-4c.27-1.34.6-2.65,1-3.94"/><path id="_Trazado_10" data-name="&lt;Trazado&gt;" class="cls-10" d="M59.17,259.41l-8.61,4a38.71,38.71,0,0,0-2.86,4.82l8.59-4a39.59,39.59,0,0,1,2.88-4.82"/><path id="_Trazado_11" data-name="&lt;Trazado&gt;" class="cls-10" d="M75.09,325.12l-8.59,4c1.13.68,2.27,1.31,3.44,1.88l8.59-4c-1.17-.57-2.32-1.2-3.44-1.88"/><path id="_Trazado_12" data-name="&lt;Trazado&gt;" class="cls-10" d="M76,333.4A40.7,40.7,0,0,0,81,334.57l8.6-4a37.15,37.15,0,0,1-5-1.16Z"/></g><g id="_Grupo_2" data-name="&lt;Grupo&gt;"><path id="_Trazado_13" data-name="&lt;Trazado&gt;" class="cls-8" d="M573.11,472.32c8.39,10.62,5.35,27-6.79,36.58s-28.77,8.74-37.15-1.87-5.35-27,6.78-36.59,28.78-8.74,37.16,1.88"/><path id="_Trazado_14" data-name="&lt;Trazado&gt;" class="cls-9" d="M566.32,508.9c-11.22,8.86-26.29,8.81-35.13.35a22.61,22.61,0,0,0,1.69,2.48c8.39,10.62,25,11.46,37.16,1.88s15.18-26,6.79-36.58a20.49,20.49,0,0,0-2-2.22c6.18,10.55,2.75,25.22-8.48,34.09"/><path id="_Trazado_compuesto_2" data-name="&lt;Trazado compuesto&gt;" class="cls-9" d="M568.76,475.64l0,.07a18.38,18.38,0,0,1,1.21,1.72,1,1,0,0,1-1.71,1.05,16,16,0,0,0-1.06-1.53,1,1,0,0,1,.13-1.44,1,1,0,0,1,1.38.13m-4.45-3.89a1,1,0,0,1,.07,1.13,1,1,0,0,1-1.37.35,14.41,14.41,0,0,0-1.65-.87,1,1,0,0,1-.49-1.33,1,1,0,0,1,1.32-.49,19.06,19.06,0,0,1,1.85,1,1.05,1.05,0,0,1,.27.24m7.79,11.09a1.06,1.06,0,0,1,.2.43c.13.67.23,1.37.3,2.07a1,1,0,0,1-2,.17,16.47,16.47,0,0,0-.26-1.85,1,1,0,0,1,.78-1.18,1,1,0,0,1,1,.36m-15.25-13.57a1,1,0,0,1,.2.73,1,1,0,0,1-1.1.88c-.62-.07-1.25-.11-1.88-.12a1,1,0,1,1,0-2c.7,0,1.39.06,2.07.13a1.06,1.06,0,0,1,.68.38M572,490.72a1,1,0,0,1,.19.83,17.93,17.93,0,0,1-.54,2,1,1,0,0,1-1.25.65,1,1,0,0,1-.65-1.26c.19-.6.36-1.21.49-1.82a1,1,0,0,1,1.76-.4m-23-20.85a1,1,0,0,1-.53,1.59c-.6.16-1.21.35-1.81.56a1,1,0,0,1-1.27-.6,1,1,0,0,1,.6-1.28c.65-.23,1.31-.44,2-.61a1,1,0,0,1,1,.34m20,28.12a1,1,0,0,1,0,1.16c-.37.57-.77,1.14-1.19,1.69a1,1,0,1,1-1.59-1.23c.39-.5.76-1,1.1-1.55a1,1,0,0,1,1.38-.29.88.88,0,0,1,.25.22M541.8,473.14l.05.07a1,1,0,0,1-.28,1.38c-.5.34-1,.71-1.48,1.09a1,1,0,0,1-1.43-.15,1,1,0,0,1,.13-1.38l.06,0c.52-.41,1.06-.81,1.61-1.18a1,1,0,0,1,1.34.21m21.81,30.69a1,1,0,0,1-.16,1.39l0,0c-.53.42-1.09.82-1.65,1.2a1,1,0,0,1-1.11-1.67c.52-.34,1-.71,1.52-1.1a1,1,0,0,1,1.42.16M536,478.54a1,1,0,0,1,0,1.22c-.39.51-.75,1-1.09,1.56a1,1,0,0,1-1.39.29,1,1,0,0,1-.3-1.38c.37-.57.77-1.14,1.19-1.69a1,1,0,0,1,1.41-.18,1,1,0,0,1,.17.18m20.68,29.11a1,1,0,0,1,.16.29,1,1,0,0,1-.6,1.28c-.65.23-1.32.43-2,.61a1,1,0,0,1-.51-1.94c.61-.16,1.22-.35,1.81-.56a1,1,0,0,1,1.12.32m-24.35-22.13a1,1,0,0,1,.17.92c-.19.6-.36,1.21-.49,1.82a1,1,0,0,1-1.19.77,1,1,0,0,1-.76-1.19c.14-.67.32-1.34.53-2a1,1,0,0,1,1.26-.65,1,1,0,0,1,.48.34M548.94,509a1.07,1.07,0,0,1,.21.64,1,1,0,0,1-1,1,20.36,20.36,0,0,1-2.07-.14,1,1,0,1,1,.23-2c.61.07,1.24.11,1.88.12a1,1,0,0,1,.77.38m-17.47-15.62a1.08,1.08,0,0,1,.21.53,16.16,16.16,0,0,0,.27,1.85,1,1,0,0,1-2,.4,17.79,17.79,0,0,1-.3-2.07,1,1,0,0,1,.9-1.08,1,1,0,0,1,.88.37m9.78,13.92a1,1,0,0,1,.12,1,1,1,0,0,1-1.33.49,19.26,19.26,0,0,1-1.85-1,1,1,0,0,1-.33-1.38,1,1,0,0,1,1.37-.33,16.18,16.18,0,0,0,1.65.87,1.06,1.06,0,0,1,.37.29m-7.33-6.46.07.1a15.82,15.82,0,0,0,1,1.49,1,1,0,0,1-.15,1.42,1,1,0,0,1-1.39-.14l0,0a16.26,16.26,0,0,1-1.17-1.68,1,1,0,0,1,1.63-1.15"/><path id="_Trazado_15" data-name="&lt;Trazado&gt;" class="cls-10" d="M567.11,508.28l3.72,4.71c.51-.44,1-.88,1.49-1.34l-3.72-4.71c-.48.46-1,.91-1.49,1.34"/><path id="_Trazado_16" data-name="&lt;Trazado&gt;" class="cls-10" d="M563,511.2l3.72,4.7c.57-.34,1.13-.71,1.68-1.09l-3.71-4.71c-.56.39-1.12.76-1.69,1.1"/><path id="_Trazado_17" data-name="&lt;Trazado&gt;" class="cls-10" d="M570.69,504.75l3.72,4.71q.68-.78,1.29-1.59L572,503.16q-.62.81-1.29,1.59"/><path id="_Trazado_18" data-name="&lt;Trazado&gt;" class="cls-10" d="M573.75,500.55l3.72,4.71c.38-.62.72-1.25,1-1.89l-3.72-4.71q-.48,1-1,1.89"/><path id="_Trazado_19" data-name="&lt;Trazado&gt;" class="cls-10" d="M558.47,513.48l3.72,4.7c.63-.25,1.27-.52,1.89-.82l-3.72-4.72q-.93.45-1.89.84"/><path id="_Trazado_20" data-name="&lt;Trazado&gt;" class="cls-10" d="M553.31,515l3.72,4.71c.72-.14,1.43-.31,2.15-.51l-3.73-4.71c-.71.2-1.42.37-2.14.51"/><path id="_Trazado_21" data-name="&lt;Trazado&gt;" class="cls-10" d="M546.08,515.53l3.72,4.71a24.45,24.45,0,0,0,2.57,0l-3.72-4.72c-.86,0-1.72,0-2.57,0"/><path id="_Trazado_22" data-name="&lt;Trazado&gt;" class="cls-10" d="M538.36,513.83l3.73,4.72a23.38,23.38,0,0,0,3.39,1.06l-3.73-4.71a24.72,24.72,0,0,1-3.39-1.07"/><path id="_Trazado_23" data-name="&lt;Trazado&gt;" class="cls-10" d="M576.55,494.42l3.72,4.71c.26-.79.48-1.59.66-2.39L577.21,492c-.18.8-.4,1.6-.66,2.39"/><path id="_Trazado_24" data-name="&lt;Trazado&gt;" class="cls-10" d="M581.52,492.65a24.72,24.72,0,0,0,0-3.22l-3.73-4.72a24.86,24.86,0,0,1,0,3.23Z"/></g><g id="_Grupo_3" data-name="&lt;Grupo&gt;"><path id="_Trazado_25" data-name="&lt;Trazado&gt;" class="cls-8" d="M119.92,601.11c-4.77,12.66-20.37,18.5-34.84,13S62.74,594,67.52,581.36s20.37-18.51,34.84-13.05,22.33,20.14,17.56,32.8"/><path id="_Trazado_26" data-name="&lt;Trazado&gt;" class="cls-9" d="M85.08,614.16c-13.39-5-21.11-18-18.42-29.92A21.18,21.18,0,0,0,65.4,587c-4.77,12.67,3.09,27.35,17.56,32.8s30.07-.39,34.84-13a21.56,21.56,0,0,0,.86-2.88c-5.86,10.74-20.2,15.36-33.58,10.32"/><path id="_Trazado_compuesto_3" data-name="&lt;Trazado compuesto&gt;" class="cls-9" d="M114.82,599.1l0,.08a16.32,16.32,0,0,1-.85,1.91,1,1,0,0,1-1.35.43,1,1,0,0,1-.43-1.35,14.42,14.42,0,0,0,.76-1.7,1,1,0,0,1,1.3-.62,1,1,0,0,1,.6,1.25m1.05-5.82a1,1,0,0,1-.94.64,1,1,0,0,1-1-1,16.71,16.71,0,0,0-.11-1.86,1,1,0,1,1,2-.23,18.44,18.44,0,0,1,.12,2.09,1,1,0,0,1-.06.36m-5.49,12.39a1.11,1.11,0,0,1-.26.39,20.71,20.71,0,0,1-1.62,1.32,1,1,0,0,1-1.4-.22,1,1,0,0,1,.22-1.4,16.24,16.24,0,0,0,1.45-1.18,1,1,0,0,1,1.61,1.09m3.76-20.07a1,1,0,0,1-.52.56,1,1,0,0,1-1.32-.5c-.26-.56-.55-1.12-.87-1.67a1,1,0,0,1,.36-1.37,1,1,0,0,1,1.37.37,20,20,0,0,1,1,1.84,1,1,0,0,1,0,.77m-10.56,24a1,1,0,0,1-.62.59c-.65.22-1.32.41-2,.57a1,1,0,1,1-.46-1.94c.61-.15,1.22-.32,1.81-.52a1,1,0,0,1,1.26,1.3m6-30.46a1,1,0,0,1-.22.34,1,1,0,0,1-1.42,0c-.45-.43-.92-.86-1.41-1.26a1,1,0,0,1,1.26-1.55c.54.44,1.06.9,1.55,1.38a1,1,0,0,1,.24,1.07m-13.8,31.59a1,1,0,0,1-1,.65c-.68,0-1.37-.08-2.06-.16a1,1,0,0,1,.23-2c.63.07,1.27.12,1.9.14a1,1,0,0,1,1,1,.87.87,0,0,1-.06.32m7.29-36.06,0,.07a1,1,0,0,1-1.33.48c-.55-.26-1.12-.5-1.69-.71a1,1,0,0,1-.62-1.3,1,1,0,0,1,1.26-.6l.06,0c.62.23,1.24.49,1.84.77a1,1,0,0,1,.51,1.26m-15,34.5a1,1,0,0,1-1.28.59h0c-.64-.24-1.27-.5-1.88-.79a1,1,0,0,1,.85-1.81c.57.26,1.15.51,1.74.73a1,1,0,0,1,.59,1.29m7.45-36.66a1,1,0,0,1-1,.64c-.63-.07-1.27-.12-1.9-.14a1,1,0,0,1,.07-2c.68,0,1.37.07,2,.15a1,1,0,0,1,.88,1.11.69.69,0,0,1,0,.24M81.19,605.29a1.17,1.17,0,0,1-.17.28,1,1,0,0,1-1.4.14c-.54-.44-1.05-.9-1.55-1.38a1,1,0,0,1,1.4-1.44c.45.45.93.87,1.41,1.27a1,1,0,0,1,.31,1.13M87.59,573a1,1,0,0,1-.7.62c-.62.15-1.23.32-1.82.52a1,1,0,0,1-1.27-.62,1,1,0,0,1,.63-1.27c.65-.22,1.32-.41,2-.57a1,1,0,0,1,1.21.74,1,1,0,0,1,0,.58M76.06,599.3a1,1,0,0,1-.44.51,1,1,0,0,1-1.37-.37c-.34-.6-.67-1.22-1-1.84a1,1,0,1,1,1.82-.83c.26.56.55,1.12.87,1.67a1,1,0,0,1,.07.86m4.36-23a1,1,0,0,1-.34.45,16.54,16.54,0,0,0-1.44,1.19,1,1,0,0,1-1.42-.07,1,1,0,0,1,.06-1.41,18.65,18.65,0,0,1,1.62-1.32,1,1,0,0,1,1.4.21,1,1,0,0,1,.12.95m-6.87,15.55a1,1,0,0,1-1.93-.24,18.44,18.44,0,0,1-.12-2.09,1,1,0,0,1,1-1,1,1,0,0,1,1,1,16.74,16.74,0,0,0,.1,1.87,1,1,0,0,1,0,.46m1.75-9.61a1.17,1.17,0,0,1,0,.11,14.62,14.62,0,0,0-.74,1.67,1,1,0,0,1-1.3.6,1,1,0,0,1-.59-1.27l0,0a18.5,18.5,0,0,1,.83-1.88,1,1,0,0,1,1.83.81"/><path id="_Trazado_27" data-name="&lt;Trazado&gt;" class="cls-10" d="M86,614.51l-2.11,5.62c.63.22,1.27.42,1.91.59l2.12-5.62c-.64-.17-1.28-.37-1.92-.59"/><path id="_Trazado_28" data-name="&lt;Trazado&gt;" class="cls-10" d="M81.41,612.54l-2.11,5.61c.59.31,1.19.6,1.81.87l2.11-5.61c-.61-.28-1.22-.56-1.81-.87"/><path id="_Trazado_29" data-name="&lt;Trazado&gt;" class="cls-10" d="M90.88,615.76l-2.11,5.62c.68.12,1.35.21,2,.28l2.11-5.61c-.67-.07-1.35-.17-2-.29"/><path id="_Trazado_30" data-name="&lt;Trazado&gt;" class="cls-10" d="M96.06,616.22l-2.12,5.62c.73,0,1.45,0,2.17-.08l2.11-5.62c-.71.05-1.44.08-2.16.08"/><path id="_Trazado_31" data-name="&lt;Trazado&gt;" class="cls-10" d="M77.1,609.8,75,615.4c.55.42,1.1.82,1.68,1.2L78.79,611c-.58-.38-1.14-.77-1.69-1.18"/><path id="_Trazado_32" data-name="&lt;Trazado&gt;" class="cls-10" d="M73.13,606.17,71,611.78c.49.54,1,1.07,1.55,1.57l2.11-5.61c-.53-.51-1-1-1.54-1.57"/><path id="_Trazado_33" data-name="&lt;Trazado&gt;" class="cls-10" d="M69,600.23l-2.12,5.62c.4.76.83,1.5,1.3,2.23l2.12-5.62c-.47-.73-.9-1.47-1.3-2.23"/><path id="_Trazado_34" data-name="&lt;Trazado&gt;" class="cls-10" d="M66.43,592.75l-2.12,5.62a24.52,24.52,0,0,0,.83,3.46l2.12-5.63a24.39,24.39,0,0,1-.83-3.45"/><path id="_Trazado_35" data-name="&lt;Trazado&gt;" class="cls-10" d="M102.75,615.46l-2.11,5.62c.81-.19,1.61-.42,2.39-.68l2.12-5.62c-.79.26-1.58.49-2.4.68"/><path id="_Trazado_36" data-name="&lt;Trazado&gt;" class="cls-10" d="M106.84,618.8a25.54,25.54,0,0,0,2.76-1.66l2.12-5.62a24.82,24.82,0,0,1-2.77,1.67Z"/></g><g id="_Grupo_4" data-name="&lt;Grupo&gt;"><path id="_Trazado_37" data-name="&lt;Trazado&gt;" class="cls-8" d="M471.06,4.43c3.6-13,18.6-20.28,33.51-16.16s24.07,18,20.47,31.07S506.43,39.61,491.53,35.5s-24.07-18-20.47-31.07"/><path id="_Trazado_38" data-name="&lt;Trazado&gt;" class="cls-9" d="M504.57-11.73c13.79,3.8,22.65,16,21.06,28.12a22.73,22.73,0,0,0,1-2.84c3.61-13-5.56-26.95-20.46-31.07S476.26-14.4,472.66-1.35a20.17,20.17,0,0,0-.6,2.94c4.86-11.22,18.72-17.13,32.51-13.32"/><path id="_Trazado_compuesto_4" data-name="&lt;Trazado compuesto&gt;" class="cls-9" d="M476.31,6l0-.08a16.61,16.61,0,0,1,.67-2,1,1,0,0,1,1.86.76,15.24,15.24,0,0,0-.61,1.76,1,1,0,0,1-1.24.74A1,1,0,0,1,476.31,6m-.51,5.89a1,1,0,0,1,.88-.73,1,1,0,0,1,1.08.91,16.7,16.7,0,0,0,.28,1.84,1,1,0,0,1-2,.41c-.14-.69-.24-1.38-.31-2.07a1.05,1.05,0,0,1,0-.36M480.14-1a1,1,0,0,1,.23-.41,17.14,17.14,0,0,1,1.49-1.46,1,1,0,0,1,1.41.09,1,1,0,0,1-.09,1.41A15,15,0,0,0,481.85,0a1,1,0,0,1-1.42.06,1,1,0,0,1-.29-1m-1.92,20.33a1,1,0,0,1,.47-.6,1,1,0,0,1,1.36.37c.31.53.65,1.07,1,1.58a1,1,0,0,1-.24,1.4,1,1,0,0,1-1.39-.24,20.65,20.65,0,0,1-1.12-1.75,1,1,0,0,1-.1-.76m8.34-24.9a1,1,0,0,1,.55-.65c.63-.27,1.28-.53,1.94-.75a1,1,0,0,1,1.27.63A1,1,0,0,1,489.69-5c-.6.2-1.2.43-1.76.68a1,1,0,0,1-1.32-.51,1,1,0,0,1-.05-.67m-3.2,30.88a1,1,0,0,1,.18-.36,1,1,0,0,1,1.41-.15c.49.39,1,.77,1.53,1.12a1,1,0,0,1,.26,1.39,1,1,0,0,1-1.38.27c-.57-.38-1.13-.8-1.67-1.23a1,1,0,0,1-.33-1M494.23-7.39a1,1,0,0,1,.9-.73c.68,0,1.38-.05,2.07,0a1,1,0,0,1,1,1,1,1,0,0,1-1,1c-.63,0-1.27,0-1.9,0a1,1,0,0,1-1.06-.94,1.24,1.24,0,0,1,0-.33m-4,36.58,0-.08a1,1,0,0,1,1.28-.6c.57.21,1.16.4,1.75.56a1,1,0,0,1,.73,1.24,1,1,0,0,1-1.2.71l-.06,0c-.64-.18-1.28-.38-1.9-.6a1,1,0,0,1-.63-1.21M502.09-6.54a1,1,0,0,1,1.22-.7h0c.65.19,1.31.39,1.94.62a1,1,0,0,1,.6,1.28,1,1,0,0,1-1.28.6c-.59-.21-1.19-.4-1.79-.57a1,1,0,0,1-.71-1.23M498,30.65a1,1,0,0,1,1-.73c.63,0,1.27,0,1.9,0a1,1,0,0,1,.12,2c-.68,0-1.38.05-2.07,0a1,1,0,0,1-1-1,1,1,0,0,1,0-.24m11.25-33.9a1,1,0,0,1,.14-.3,1,1,0,0,1,1.39-.26c.56.38,1.12.8,1.66,1.23a1,1,0,0,1,.14,1.41,1,1,0,0,1-1.4.15c-.49-.4-1-.78-1.53-1.14a1,1,0,0,1-.4-1.09M505.8,29.48a1,1,0,0,1,.65-.68c.6-.2,1.19-.43,1.76-.68a1,1,0,1,1,.81,1.82,20.36,20.36,0,0,1-1.93.76,1,1,0,0,1-1.27-.63,1,1,0,0,1,0-.59m9.1-27.23a1,1,0,0,1,.39-.55,1,1,0,0,1,1.39.24,20.65,20.65,0,0,1,1.12,1.75,1,1,0,1,1-1.74,1,18.36,18.36,0,0,0-1-1.59,1,1,0,0,1-.15-.84m-2.26,23.32a1,1,0,0,1,.3-.48,18.43,18.43,0,0,0,1.34-1.31,1,1,0,0,1,1.48,1.34,20.67,20.67,0,0,1-1.49,1.47,1,1,0,0,1-1.63-1m5.44-16.11a1,1,0,0,1,.76-.72,1,1,0,0,1,1.18.78,18.47,18.47,0,0,1,.31,2.07,1,1,0,0,1-2,.18,14.47,14.47,0,0,0-.27-1.85,1,1,0,0,1,0-.46m-.87,9.72a.49.49,0,0,1,0-.11,16.72,16.72,0,0,0,.58-1.73,1,1,0,0,1,1.24-.71,1,1,0,0,1,.7,1.21v0a17,17,0,0,1-.66,1.94,1,1,0,0,1-1.3.55,1,1,0,0,1-.59-1.19"/><path id="_Trazado_39" data-name="&lt;Trazado&gt;" class="cls-10" d="M521.89.67l1.6-5.79c-.46-.72-1-1.42-1.49-2.1l-1.6,5.79c.53.68,1,1.38,1.49,2.1"/><path id="_Trazado_40" data-name="&lt;Trazado&gt;" class="cls-10" d="M525.08,7.9l1.61-5.8a24.22,24.22,0,0,0-1.15-3.36l-1.6,5.79a22.65,22.65,0,0,1,1.14,3.37"/></g><g id="_Grupo_5" data-name="&lt;Grupo&gt;"><path id="_Trazado_41" data-name="&lt;Trazado&gt;" class="cls-8" d="M496.3,301c9.1-3.55,19.75,2,23.8,12.4s0,21.69-9.13,25.23-19.75-2-23.8-12.4,0-21.69,9.13-25.23"/><path id="_Trazado_42" data-name="&lt;Trazado&gt;" class="cls-9" d="M520.1,313.4c3.75,9.61.53,20-7.17,24.3a14.12,14.12,0,0,0,2.07-.64c9.09-3.54,13.18-14.84,9.13-25.23s-14.7-15.95-23.79-12.4a14.11,14.11,0,0,0-2,.93c8.58-2,18,3.43,21.72,13"/><path id="_Trazado_compuesto_5" data-name="&lt;Trazado compuesto&gt;" class="cls-9" d="M497.68,304.7l.06,0a12.11,12.11,0,0,1,1.44-.47.72.72,0,0,1,.88.52.73.73,0,0,1-.52.88,11.89,11.89,0,0,0-1.28.41.74.74,0,0,1-1-.4.69.69,0,0,1,.38-.92M494.05,307a.72.72,0,0,1,.75,1.2,12.3,12.3,0,0,0-.95,1,.72.72,0,0,1-1,.06.73.73,0,0,1-.06-1,13.5,13.5,0,0,1,1.07-1.07.67.67,0,0,1,.21-.13m9.3-3a.73.73,0,0,1,.33,0,12.47,12.47,0,0,1,1.49.23.72.72,0,0,1-.29,1.41c-.45-.09-.9-.16-1.34-.21a.71.71,0,0,1-.64-.78.73.73,0,0,1,.45-.61m-12.58,7.66a.75.75,0,0,1,.55,0,.73.73,0,0,1,.37.95c-.18.41-.34.84-.48,1.27a.72.72,0,1,1-1.37-.44,13,13,0,0,1,.53-1.4.73.73,0,0,1,.4-.39m18-5.92a.77.77,0,0,1,.61,0c.43.25.86.51,1.27.8a.71.71,0,0,1,.18,1,.72.72,0,0,1-1,.19c-.38-.26-.76-.51-1.16-.73a.72.72,0,0,1,.1-1.3m-19.23,11.47a.93.93,0,0,1,.29-.05.72.72,0,0,1,.69.75,12.54,12.54,0,0,0,0,1.37.73.73,0,0,1-1.45.07c0-.5,0-1,0-1.49a.72.72,0,0,1,.46-.65m23.6-7.83a.73.73,0,0,1,.81.21c.32.38.62.78.91,1.18a.72.72,0,1,1-1.18.83c-.26-.37-.54-.73-.83-1.08a.71.71,0,0,1,.08-1,.67.67,0,0,1,.21-.13m-22.87,13.48.06,0a.72.72,0,0,1,.9.48c.12.42.27.84.43,1.25a.74.74,0,0,1-.4,1,.71.71,0,0,1-.93-.39v0c-.18-.45-.33-.91-.47-1.36a.72.72,0,0,1,.42-.88M516,314.2a.71.71,0,0,1,.93.41h0c.17.46.34.93.48,1.39a.73.73,0,0,1-1.39.42,13.09,13.09,0,0,0-.44-1.29.74.74,0,0,1,.41-.94m-23.26,13.68a.73.73,0,0,1,.85.26q.39.56.84,1.08a.72.72,0,0,1-1.11.93c-.31-.38-.62-.77-.91-1.18a.72.72,0,0,1,.17-1,.51.51,0,0,1,.16-.09m24.45-8.12a.78.78,0,0,1,.23-.05.73.73,0,0,1,.75.69c0,.5,0,1,0,1.49a.72.72,0,1,1-1.44-.05c0-.46,0-.92,0-1.37a.72.72,0,0,1,.46-.71m-20.41,12.13a.74.74,0,0,1,.67.08c.37.26.76.5,1.15.72a.71.71,0,0,1,.28,1,.72.72,0,0,1-1,.28c-.43-.24-.86-.51-1.27-.79a.73.73,0,0,1-.19-1,.78.78,0,0,1,.34-.26m19.66-6.49a.82.82,0,0,1,.49,0,.71.71,0,0,1,.46.91,13,13,0,0,1-.53,1.4.71.71,0,0,1-.95.37.72.72,0,0,1-.37-.95,11.92,11.92,0,0,0,.48-1.27.75.75,0,0,1,.42-.45M502,334.16a.7.7,0,0,1,.41,0c.44.09.89.16,1.33.21a.71.71,0,0,1,.65.78.72.72,0,0,1-.79.65,12.47,12.47,0,0,1-1.49-.23.72.72,0,0,1-.56-.85.7.7,0,0,1,.45-.52m11.66-3.81a.7.7,0,0,1,.74.13.73.73,0,0,1,.06,1,12,12,0,0,1-1.07,1.07.72.72,0,0,1-1-1.08,10.65,10.65,0,0,0,.95-.95.73.73,0,0,1,.28-.19m-6,3.69.08,0a11.34,11.34,0,0,0,1.25-.4.73.73,0,0,1,.95.4.72.72,0,0,1-.4.93h0a14.49,14.49,0,0,1-1.41.46.72.72,0,0,1-.88-.52.71.71,0,0,1,.43-.85"/><path id="_Trazado_43" data-name="&lt;Trazado&gt;" class="cls-10" d="M519.84,312.73l4-1.58c-.19-.44-.39-.88-.6-1.31l-4,1.57c.22.43.42.87.61,1.32"/><path id="_Trazado_44" data-name="&lt;Trazado&gt;" class="cls-10" d="M521,316.15l4-1.57c-.12-.47-.26-.93-.4-1.4l-4,1.57c.15.47.29.93.41,1.4"/><path id="_Trazado_45" data-name="&lt;Trazado&gt;" class="cls-10" d="M518.16,309.51l4-1.57c-.27-.42-.54-.83-.83-1.23l-4,1.57c.28.4.56.81.82,1.23"/><path id="_Trazado_46" data-name="&lt;Trazado&gt;" class="cls-10" d="M515.91,306.52l4-1.58c-.35-.39-.72-.76-1.09-1.12l-4,1.57c.37.36.73.73,1.08,1.13"/><path id="_Trazado_47" data-name="&lt;Trazado&gt;" class="cls-10" d="M521.6,319.78l4-1.57c0-.49-.09-1-.17-1.48l-4,1.57c.07.49.13,1,.17,1.48"/><path id="_Trazado_48" data-name="&lt;Trazado&gt;" class="cls-10" d="M521.57,323.66l4-1.57q.07-.78.09-1.59l-4,1.58c0,.53,0,1.06-.1,1.58"/><path id="_Trazado_49" data-name="&lt;Trazado&gt;" class="cls-10" d="M520.4,328.76l4-1.57c.22-.58.4-1.17.57-1.77L521,327a16.63,16.63,0,0,1-.57,1.77"/><path id="_Trazado_50" data-name="&lt;Trazado&gt;" class="cls-10" d="M517.6,333.72l4-1.57a16.09,16.09,0,0,0,1.45-2.11l-4,1.57a16.09,16.09,0,0,1-1.45,2.11"/><path id="_Trazado_51" data-name="&lt;Trazado&gt;" class="cls-10" d="M512.28,303.29l4-1.57a17.4,17.4,0,0,0-1.51-1l-4,1.57a17.55,17.55,0,0,1,1.52,1"/><path id="_Trazado_52" data-name="&lt;Trazado&gt;" class="cls-10" d="M512.1,299.49a17.78,17.78,0,0,0-2.22-.69l-4,1.58a16.34,16.34,0,0,1,2.23.68Z"/></g><g id="_Grupo_6" data-name="&lt;Grupo&gt;"><path id="_Trazado_53" data-name="&lt;Trazado&gt;" class="cls-8" d="M67.43,91.86c-6.09-7.64-4-19.46,4.78-26.41s20.72-6.4,26.8,1.23S103,86.14,94.23,93.09s-20.72,6.4-26.8-1.23"/><path id="_Trazado_54" data-name="&lt;Trazado&gt;" class="cls-9" d="M72.21,65.45C80.27,59,91.14,59,97.54,65.09a15.27,15.27,0,0,0-1.22-1.79c-6.09-7.63-18.09-8.19-26.81-1.24S58.65,80.84,64.73,88.47a17.21,17.21,0,0,0,1.47,1.6c-4.49-7.6-2.06-18.19,6-24.62"/><path id="_Trazado_compuesto_6" data-name="&lt;Trazado compuesto&gt;" class="cls-9" d="M70.55,89.44l0,0a13.13,13.13,0,0,1-.88-1.23.73.73,0,0,1,.24-1,.72.72,0,0,1,1,.24,11.34,11.34,0,0,0,.77,1.09.75.75,0,0,1-.09,1,.7.7,0,0,1-1-.09m3.23,2.8a.71.71,0,0,1-.06-.82.72.72,0,0,1,1-.25,10.32,10.32,0,0,0,1.19.62.72.72,0,1,1-.59,1.31A13,13,0,0,1,74,92.41a.79.79,0,0,1-.19-.17m-5.66-8A.69.69,0,0,1,68,84a12.32,12.32,0,0,1-.22-1.5.72.72,0,0,1,.65-.78.71.71,0,0,1,.78.65c0,.45.11.9.2,1.33a.73.73,0,0,1-.56.86.76.76,0,0,1-.71-.26m11,9.74a.73.73,0,0,1-.15-.52.71.71,0,0,1,.79-.64c.44,0,.9.07,1.36.08a.71.71,0,0,1,.71.72.73.73,0,0,1-.73.72c-.5,0-1,0-1.49-.09a.69.69,0,0,1-.49-.27m-11-15.42A.7.7,0,0,1,68,78c.1-.48.23-1,.38-1.45a.72.72,0,0,1,.9-.47.73.73,0,0,1,.47.91c-.13.43-.25.87-.34,1.31a.73.73,0,0,1-.86.56.71.71,0,0,1-.41-.26m16.66,15a.72.72,0,0,1-.14-.26.74.74,0,0,1,.51-.89A12.4,12.4,0,0,0,86.52,92,.72.72,0,0,1,87,93.34c-.47.17-1,.32-1.42.45a.72.72,0,0,1-.75-.25M70.36,73.33a.7.7,0,0,1,0-.84,14.76,14.76,0,0,1,.85-1.22.71.71,0,0,1,1-.13.72.72,0,0,1,.14,1,12.54,12.54,0,0,0-.79,1.12.73.73,0,0,1-1,.22,1.29,1.29,0,0,1-.17-.16M90,91.16l0,0a.73.73,0,0,1,.19-1c.36-.24.72-.51,1.07-.78a.74.74,0,0,1,1,.1.7.7,0,0,1-.1,1l0,0c-.38.29-.77.58-1.16.85a.73.73,0,0,1-1-.15M74.18,69.1a.73.73,0,0,1,.11-1h0c.38-.31.78-.6,1.18-.87a.72.72,0,0,1,1,.19.73.73,0,0,1-.19,1c-.37.25-.74.52-1.1.8a.73.73,0,0,1-1-.11m20,18.15a.72.72,0,0,1,0-.88c.28-.37.54-.74.79-1.13a.72.72,0,1,1,1.21.78,14.76,14.76,0,0,1-.85,1.22.72.72,0,0,1-1,.14.8.8,0,0,1-.13-.13m-15-20.93a.7.7,0,0,1-.11-.21.72.72,0,0,1,.43-.92c.47-.17,1-.32,1.42-.45a.73.73,0,1,1,.38,1.4c-.44.11-.88.25-1.31.4a.72.72,0,0,1-.81-.22M96.78,82.21a.72.72,0,0,1-.12-.67c.13-.43.25-.88.34-1.32a.73.73,0,0,1,.86-.55.71.71,0,0,1,.55.85A14.72,14.72,0,0,1,98,82a.73.73,0,0,1-.9.48.79.79,0,0,1-.35-.24m-12-16.86a.76.76,0,0,1-.16-.46.72.72,0,0,1,.73-.71c.5,0,1,0,1.5.09a.73.73,0,0,1,.64.8.72.72,0,0,1-.8.63c-.44,0-.9-.07-1.36-.08a.72.72,0,0,1-.55-.27M97.4,76.56a.76.76,0,0,1-.16-.38,12,12,0,0,0-.2-1.34.72.72,0,0,1,1.41-.29A12.47,12.47,0,0,1,98.68,76a.72.72,0,0,1-.65.79.73.73,0,0,1-.63-.27m-7.1-10a.72.72,0,0,1-.09-.75.71.71,0,0,1,1-.35,11.37,11.37,0,0,1,1.34.7.73.73,0,0,1,.25,1,.72.72,0,0,1-1,.24,10.46,10.46,0,0,0-1.2-.62.75.75,0,0,1-.26-.21m5.3,4.63,0-.06A12.23,12.23,0,0,0,94.8,70a.73.73,0,0,1,.1-1,.72.72,0,0,1,1,.1l0,0a14.59,14.59,0,0,1,.85,1.21.72.72,0,0,1-1.18.83"/><path id="_Trazado_55" data-name="&lt;Trazado&gt;" class="cls-10" d="M71.64,65.9,69,62.51c-.37.32-.73.64-1.08,1l2.7,3.39c.34-.34.7-.66,1.07-1"/><path id="_Trazado_56" data-name="&lt;Trazado&gt;" class="cls-10" d="M74.57,63.78l-2.7-3.38c-.41.25-.81.51-1.21.79l2.7,3.39c.39-.28.8-.55,1.21-.8"/><path id="_Trazado_57" data-name="&lt;Trazado&gt;" class="cls-10" d="M69.07,68.46l-2.7-3.39c-.32.38-.63.76-.92,1.15l2.69,3.39c.3-.39.61-.78.93-1.15"/><path id="_Trazado_58" data-name="&lt;Trazado&gt;" class="cls-10" d="M66.88,71.49l-2.7-3.38c-.27.45-.52.9-.75,1.37l2.69,3.38c.24-.46.49-.92.76-1.37"/><path id="_Trazado_59" data-name="&lt;Trazado&gt;" class="cls-10" d="M77.86,62.12l-2.7-3.38c-.46.19-.91.38-1.36.6l2.7,3.39c.45-.22.9-.42,1.36-.61"/><path id="_Trazado_60" data-name="&lt;Trazado&gt;" class="cls-10" d="M81.57,61l-2.7-3.39c-.51.11-1,.23-1.54.38L80,61.38c.51-.15,1-.28,1.54-.38"/><path id="_Trazado_61" data-name="&lt;Trazado&gt;" class="cls-10" d="M86.79,60.6l-2.7-3.39c-.61,0-1.23,0-1.86,0l2.7,3.38c.63,0,1.25,0,1.86,0"/><path id="_Trazado_62" data-name="&lt;Trazado&gt;" class="cls-10" d="M92.36,61.8l-2.7-3.39a18.78,18.78,0,0,0-2.45-.76L89.91,61a18.32,18.32,0,0,1,2.45.76"/><path id="_Trazado_63" data-name="&lt;Trazado&gt;" class="cls-10" d="M64.87,75.92l-2.69-3.38a17.71,17.71,0,0,0-.47,1.73l2.7,3.38c.13-.58.28-1.15.46-1.73"/><path id="_Trazado_64" data-name="&lt;Trazado&gt;" class="cls-10" d="M61.3,77.22a18,18,0,0,0,0,2.32L64,82.93a18.1,18.1,0,0,1,0-2.33Z"/></g><path class="cls-2" d="M92.54,106h14.72a13.37,13.37,0,0,1,1.65.07,3.8,3.8,0,0,1,1.27.46c.86.44,1.29,1.69,1.29,3.73,0,2.23-.59,3.54-1.77,3.92a8,8,0,0,1-2.48.29H88.28c-2.23,0-3.54-.61-3.92-1.82a7.53,7.53,0,0,1-.29-2.44V83.57c0-1.63.3-2.73.91-3.32s1.75-.89,3.44-.89h18.84a13.37,13.37,0,0,1,1.65.07,3.8,3.8,0,0,1,1.27.46c.86.44,1.29,1.69,1.29,3.73,0,2.23-.59,3.54-1.77,3.92a8,8,0,0,1-2.48.29H92.54v4.83H102a13.37,13.37,0,0,1,1.65.07,3.75,3.75,0,0,1,1.27.45c.86.45,1.29,1.69,1.29,3.73,0,2.23-.6,3.54-1.81,3.92a8.1,8.1,0,0,1-2.49.29H92.54Z"/><path class="cls-2" d="M114.58,81.56a13.59,13.59,0,0,1,.07-1.65,4.63,4.63,0,0,1,.41-1.27c.45-.86,1.69-1.29,3.73-1.29s3.16.43,3.63,1.29a3.81,3.81,0,0,1,.46,1.29,14.38,14.38,0,0,1,.07,1.68v22.14a5,5,0,0,0,.29,2.18q.29.45,1.26.45a7.48,7.48,0,0,1,1.32.07,2.55,2.55,0,0,1,.81.41c.64.41,1,1.55,1,3.39q0,3-1,3.69c-.83.57-2.8.67-5.93.28-2.45-.31-4-1.13-4.78-2.44-.89-1.56-1.34-4-1.34-7.46Z"/><path class="cls-2" d="M168.19,86.44a12.62,12.62,0,0,1,1.24,5.64,12.47,12.47,0,0,1-1.24,5.62,11.06,11.06,0,0,1-3.2,4,13.34,13.34,0,0,1-8.23,3.06h-6v5.41a13.59,13.59,0,0,1-.07,1.65,4,4,0,0,1-.45,1.27c-.45.86-1.69,1.29-3.73,1.29-2.24,0-3.54-.59-3.92-1.77a7.72,7.72,0,0,1-.29-2.49V83.57a13.59,13.59,0,0,1,.07-1.65,4,4,0,0,1,.45-1.27c.45-.86,1.69-1.29,3.73-1.29h10.24A13.29,13.29,0,0,1,165,82.42,11.09,11.09,0,0,1,168.19,86.44Zm-8.56,8.8A3.72,3.72,0,0,0,161,92.08a3.8,3.8,0,0,0-1.39-3.18,4.6,4.6,0,0,0-2.87-1.07h-6v8.46h6A4.62,4.62,0,0,0,159.63,95.24Z"/><path class="cls-2" d="M195.4,98.8a5.77,5.77,0,0,1-1.46,4.35,4.55,4.55,0,0,1-3.23,1.41H179.38a2.62,2.62,0,0,0,1.58,2.25,6.22,6.22,0,0,0,3.16.91,13.26,13.26,0,0,0,4.35-.57l.52-.2a4.86,4.86,0,0,1,1.92-.52c1,0,1.89.72,2.63,2.15a5.32,5.32,0,0,1,.62,2.2q0,4.26-10.19,4.26a15.44,15.44,0,0,1-6.29-1.22,10.76,10.76,0,0,1-4.28-3.23,13.74,13.74,0,0,1-3-8.66,12.49,12.49,0,0,1,3.9-9.63A13.76,13.76,0,0,1,184,88.69q6.64,0,9.76,4.68A9.76,9.76,0,0,1,195.4,98.8Zm-10.09,1.41c1.21,0,1.82-.51,1.82-1.53a2.16,2.16,0,0,0-.84-1.77,3.78,3.78,0,0,0-2.39-.67,4.79,4.79,0,0,0-3.08,1.27,3.53,3.53,0,0,0-1.53,2.7Z"/><path class="cls-2" d="M214.39,91.75q.29-2.53,3.73-2.54a9.22,9.22,0,0,1,2.68.29,2,2,0,0,1,1.22,1,4.18,4.18,0,0,1,.43,1.22,15.08,15.08,0,0,1,.07,1.62v27.93a15.16,15.16,0,0,1-.07,1.63,4,4,0,0,1-.43,1.2,2.07,2.07,0,0,1-1.25,1,8,8,0,0,1-2.37.29,7.73,7.73,0,0,1-2.34-.29,2,2,0,0,1-1.22-1,3.9,3.9,0,0,1-.43-1.22,12.82,12.82,0,0,1-.07-1.62v-9.66a6.81,6.81,0,0,1-5.4,2.2,10.33,10.33,0,0,1-7.7-3.69,12.29,12.29,0,0,1,0-17.12q3.5-3.68,7.39-3.68T214.39,91.75Zm-7.2,12.62a4,4,0,0,0,2.94,1.25,3.72,3.72,0,0,0,2.87-1.27,4,4,0,0,0,1.15-2.78,4.35,4.35,0,0,0-1.1-2.82,3.67,3.67,0,0,0-2.94-1.31,3.82,3.82,0,0,0-3,1.27,4.1,4.1,0,0,0-1.15,2.84A3.94,3.94,0,0,0,207.19,104.37Z"/><path class="cls-2" d="M237.53,114.32a10.16,10.16,0,0,1-8-3.66,13.12,13.12,0,0,1-3.18-8.92V93.37a15.76,15.76,0,0,1,.07-1.67,4.58,4.58,0,0,1,.41-1.24c.45-.87,1.69-1.3,3.73-1.3,2.23,0,3.54.61,3.92,1.82a7.53,7.53,0,0,1,.29,2.44v8.37a4.07,4.07,0,0,0,1.12,3.06,4.67,4.67,0,0,0,6.08,0,4,4,0,0,0,1.17-3V93.32a13.29,13.29,0,0,1,.07-1.64,4,4,0,0,1,.45-1.27c.42-.83,1.65-1.25,3.69-1.25s3.23.43,3.68,1.3a4.57,4.57,0,0,1,.41,1.26,16,16,0,0,1,.07,1.65V110.3a15.22,15.22,0,0,1-.07,1.6,3.31,3.31,0,0,1-.46,1.22c-.48.83-1.7,1.25-3.68,1.25s-3.14-.39-3.59-1.15a3.8,3.8,0,0,1-.48-2,4.72,4.72,0,0,1-.86,1,11.46,11.46,0,0,1-1.29,1A6.38,6.38,0,0,1,237.53,114.32Z"/><path class="cls-2" d="M279.62,98.8a5.81,5.81,0,0,1-1.46,4.35,4.55,4.55,0,0,1-3.23,1.41H263.6a2.6,2.6,0,0,0,1.57,2.25,6.28,6.28,0,0,0,3.16.91,13.22,13.22,0,0,0,4.35-.57l.53-.2a4.78,4.78,0,0,1,1.91-.52c1,0,1.9.72,2.63,2.15a5.17,5.17,0,0,1,.62,2.2q0,4.26-10.18,4.26a15.41,15.41,0,0,1-6.29-1.22,10.69,10.69,0,0,1-4.28-3.23,13.74,13.74,0,0,1-3-8.66,12.48,12.48,0,0,1,3.89-9.63,13.78,13.78,0,0,1,9.74-3.61q6.64,0,9.75,4.68A9.77,9.77,0,0,1,279.62,98.8Zm-10.09,1.41c1.21,0,1.81-.51,1.81-1.53a2.18,2.18,0,0,0-.83-1.77,3.8,3.8,0,0,0-2.39-.67A4.82,4.82,0,0,0,265,97.51a3.56,3.56,0,0,0-1.53,2.7Z"/><path class="cls-2" d="M296.74,89.21a10.1,10.1,0,0,1,8,3.66,13.12,13.12,0,0,1,3.18,8.92v8.42a13.59,13.59,0,0,1-.07,1.65,3.89,3.89,0,0,1-.41,1.22c-.44.86-1.69,1.29-3.73,1.29-2.26,0-3.57-.59-3.92-1.77a7.83,7.83,0,0,1-.29-2.44v-8.42a4.07,4.07,0,0,0-1.12-3.06,4.66,4.66,0,0,0-6.07,0,4,4,0,0,0-1.18,3v8.47a13.59,13.59,0,0,1-.07,1.65,3.4,3.4,0,0,1-.45,1.22c-.42.86-1.64,1.29-3.68,1.29s-3.24-.43-3.69-1.29a4.57,4.57,0,0,1-.4-1.27,13.59,13.59,0,0,1-.07-1.65V93.23a12.87,12.87,0,0,1,.07-1.6,3.46,3.46,0,0,1,.45-1.22c.45-.8,1.68-1.2,3.68-1.2s3.14.37,3.59,1.1a3.8,3.8,0,0,1,.48,2,4.8,4.8,0,0,1,.86-1,8.82,8.82,0,0,1,1.29-1A6.28,6.28,0,0,1,296.74,89.21Zm6.55-11c1.15.8,1.72,1.57,1.72,2.3a2.45,2.45,0,0,1-.38,1.29c-.26.42-.43.71-.53.89a8.7,8.7,0,0,1-.67.93,7.05,7.05,0,0,1-1.19,1.19,6.12,6.12,0,0,1-3.68,1.34,5.86,5.86,0,0,1-2.95-.62,11.28,11.28,0,0,1-1.77-1.24,1.89,1.89,0,0,0-1.12-.62,1.72,1.72,0,0,0-1.24.57c-.74,1.28-1.41,1.91-2,1.91A3.74,3.74,0,0,1,287.2,85q-1.32-1.15-1.32-1.89a2.62,2.62,0,0,1,.38-1.37c.26-.41.43-.71.53-.88a7.33,7.33,0,0,1,.69-.91,9,9,0,0,1,1.22-1.17,6.18,6.18,0,0,1,3.69-1.29,6,6,0,0,1,3,.6,9.32,9.32,0,0,1,1.72,1.19,1.91,1.91,0,0,0,1.1.6,1.54,1.54,0,0,0,1.25-.58c.67-1.21,1.38-1.81,2.15-1.81A3.19,3.19,0,0,1,303.29,78.16Z"/><path class="cls-2" d="M315,92.37a13.14,13.14,0,0,1,18.31,0,13.2,13.2,0,0,1,1.92,16.5,13,13,0,0,1-5,4.55,13.62,13.62,0,0,1-6.1,1.46,13,13,0,0,1-6.12-1.56,13.49,13.49,0,0,1-5-4.59,12.08,12.08,0,0,1-2-6.86A12.36,12.36,0,0,1,315,92.37Zm6,12.89a5.09,5.09,0,0,0,3.11,1.17,5.21,5.21,0,0,0,3.16-1.2,4.79,4.79,0,0,0,.09-7,5.12,5.12,0,0,0-3.2-1.14,5,5,0,0,0-3.2,1.19,4.26,4.26,0,0,0-1.49,3.52A4.13,4.13,0,0,0,321,105.26Z"/><path class="cls-2" d="M361,107.34h13a5.46,5.46,0,0,1,2.3.36,1.8,1.8,0,0,1,1,1.12,8.71,8.71,0,0,1,0,4.06,1.64,1.64,0,0,1-.81,1.06,5.38,5.38,0,0,1-2.49.48H356.71c-2.23,0-3.54-.61-3.92-1.82a7.26,7.26,0,0,1-.29-2.44V83.57a13.59,13.59,0,0,1,.07-1.65,4,4,0,0,1,.45-1.27c.45-.86,1.69-1.29,3.74-1.29q3.35,0,4,1.77a9.47,9.47,0,0,1,.24,2.49Z"/><path class="cls-2" d="M388.44,84.55a2,2,0,0,1-1.27,1,10.2,10.2,0,0,1-4.83,0,2,2,0,0,1-1.27-1,4.13,4.13,0,0,1-.43-1.27,19.48,19.48,0,0,1,0-3.3,4.07,4.07,0,0,1,.41-1.22c.44-.86,1.69-1.29,3.73-1.29s3.22.43,3.63,1.29a3.8,3.8,0,0,1,.46,1.27,13.37,13.37,0,0,1,.07,1.65,13.59,13.59,0,0,1-.07,1.65A3.91,3.91,0,0,1,388.44,84.55Zm-7.87,8.87a13.59,13.59,0,0,1,.07-1.65,4.63,4.63,0,0,1,.41-1.27c.44-.83,1.69-1.24,3.73-1.24a5.07,5.07,0,0,1,3.25.81,2.64,2.64,0,0,1,.86,2.06c0,.32.05.78.05,1.39v16.73a13.37,13.37,0,0,1-.07,1.65,3.8,3.8,0,0,1-.46,1.27c-.41.83-1.64,1.25-3.68,1.25s-3.24-.44-3.68-1.3a4.58,4.58,0,0,1-.41-1.24,13.42,13.42,0,0,1-.07-1.67Z"/><path class="cls-2" d="M406.59,89.26A10.6,10.6,0,0,1,414.4,93a12.58,12.58,0,0,1,0,17.53q-3.54,3.75-7.61,3.75c-2.71,0-4.63-.77-5.78-2.3q-.39,2.36-4.11,2.35-3,0-3.69-1.29a4.25,4.25,0,0,1-.4-1.27,13.16,13.16,0,0,1-.08-1.65V81.61a13,13,0,0,1,.08-1.65,3.77,3.77,0,0,1,.4-1.22c.45-.86,1.69-1.29,3.73-1.29s3.22.43,3.64,1.29a4,4,0,0,1,.45,1.27,13.37,13.37,0,0,1,.07,1.65V91.6A6.66,6.66,0,0,1,406.59,89.26Zm-4.19,15.45a3.8,3.8,0,0,0,2.94,1.29,4.32,4.32,0,0,0,4.26-4.16,4.31,4.31,0,0,0-1.15-2.9,3.88,3.88,0,0,0-3.06-1.31,3.77,3.77,0,0,0-3,1.34,4.41,4.41,0,0,0-1.12,2.89A4.15,4.15,0,0,0,402.4,104.71Z"/><path class="cls-2" d="M438.2,89.5a3.25,3.25,0,0,1,1.5,1,3.35,3.35,0,0,1,.6,2.22,7.52,7.52,0,0,1-.91,3.35,2.85,2.85,0,0,1-2.63,1.82,3.83,3.83,0,0,1-1.65-.38A4.7,4.7,0,0,0,433,97.1a3.79,3.79,0,0,0-2.41.91,2.75,2.75,0,0,0-1.13,2.2v10a13.37,13.37,0,0,1-.07,1.65,4,4,0,0,1-.45,1.27c-.48.83-1.72,1.25-3.73,1.25a5.29,5.29,0,0,1-3.3-.82,2.83,2.83,0,0,1-.86-2V93.37a13.59,13.59,0,0,1,.07-1.65,4.11,4.11,0,0,1,.4-1.22c.45-.86,1.69-1.29,3.73-1.29s3.11.37,3.59,1.1a2.77,2.77,0,0,1,.53,1.58,8.93,8.93,0,0,1,.69-.81A8.68,8.68,0,0,1,432,89.79a5.5,5.5,0,0,1,2.6-.82,12.49,12.49,0,0,1,1.89.12A12,12,0,0,1,438.2,89.5Z"/><path class="cls-2" d="M444.8,92.37a13.14,13.14,0,0,1,18.31,0,13.2,13.2,0,0,1,1.92,16.5,13,13,0,0,1-5,4.55,13.62,13.62,0,0,1-6.1,1.46,13,13,0,0,1-6.12-1.56,13.49,13.49,0,0,1-5-4.59,12.08,12.08,0,0,1-2-6.86A12.36,12.36,0,0,1,444.8,92.37Zm6,12.89a5.09,5.09,0,0,0,3.11,1.17,5.21,5.21,0,0,0,3.16-1.2,4.79,4.79,0,0,0,.09-7,5.12,5.12,0,0,0-3.2-1.14,5,5,0,0,0-3.2,1.19,4.26,4.26,0,0,0-1.49,3.52A4.13,4.13,0,0,0,450.77,105.26Z"/><path class="cls-2" d="M170,119.8a3,3,0,0,1,1.85-1.43,14.92,14.92,0,0,1,7,0,3,3,0,0,1,1.85,1.46,6.26,6.26,0,0,1,.62,1.85,19.78,19.78,0,0,1,.11,2.4v41.56a19.78,19.78,0,0,1-.11,2.4,5,5,0,0,1-.66,1.78q-1,1.88-5.88,1.88t-5.4-3.41a10.24,10.24,0,0,1-8.14,3.34q-6.27,0-11.42-5.47a18.32,18.32,0,0,1,0-25.51q5.17-5.51,11.38-5.5a9.77,9.77,0,0,1,8,3.48V124a19.78,19.78,0,0,1,.11-2.4A5.81,5.81,0,0,1,170,119.8Zm-11.31,37.84a5.88,5.88,0,0,0,4.39,1.88,5.56,5.56,0,0,0,4.28-1.88,6,6,0,0,0,1.7-4.15,6.44,6.44,0,0,0-1.63-4.21,5.48,5.48,0,0,0-4.42-1.95,5.62,5.62,0,0,0-4.46,1.92,6.27,6.27,0,0,0-1.67,4.21A5.9,5.9,0,0,0,158.67,157.64Z"/><path class="cls-2" d="M222.37,149c0,2.85-.71,5-2.12,6.33a6.63,6.63,0,0,1-4.7,2.06h-16.5c0,1.3.77,2.39,2.3,3.27a9.14,9.14,0,0,0,4.59,1.32,19.45,19.45,0,0,0,6.34-.83l.76-.28a7.06,7.06,0,0,1,2.79-.77c1.48,0,2.76,1.05,3.83,3.13a7.78,7.78,0,0,1,.9,3.21q0,6.2-14.83,6.19a22.43,22.43,0,0,1-9.15-1.77,15.55,15.55,0,0,1-6.23-4.7A20,20,0,0,1,186,153.6q0-8.78,5.67-14a20.09,20.09,0,0,1,14.17-5.26q9.67,0,14.2,6.83A14.11,14.11,0,0,1,222.37,149Zm-14.69,2.05c1.77,0,2.65-.74,2.65-2.23a3.14,3.14,0,0,0-1.22-2.57,5.44,5.44,0,0,0-3.48-1,7,7,0,0,0-4.49,1.85,5.16,5.16,0,0,0-2.23,3.93Z"/><path class="cls-2" d="M268.31,122.86a3.27,3.27,0,0,1,2-1.63,11,11,0,0,1,3.3-.42,11.61,11.61,0,0,1,3.2.35,5.17,5.17,0,0,1,1.82.83,2.92,2.92,0,0,1,.87,1.46,11.29,11.29,0,0,1,.41,3.55v38.64a20.23,20.23,0,0,1-.1,2.44,5.68,5.68,0,0,1-.66,1.81q-1,1.88-5.43,1.88a11.39,11.39,0,0,1-3.76-.42,4.05,4.05,0,0,1-1.74-1.32q-15.67-20.88-20.61-27.29v22.9a20.23,20.23,0,0,1-.1,2.44,5.68,5.68,0,0,1-.66,1.81q-1,1.88-5.44,1.88c-2.87,0-4.64-.63-5.29-1.88a5.59,5.59,0,0,1-.66-1.88,21.37,21.37,0,0,1-.1-2.44V126.73a8.54,8.54,0,0,1,.66-3.87,3.28,3.28,0,0,1,2-1.63,14.32,14.32,0,0,1,6.72,0,4.47,4.47,0,0,1,1.71.87,18.53,18.53,0,0,1,1.6,1.81q14.68,20,19.63,26.39V126.73A8.54,8.54,0,0,1,268.31,122.86Z"/><path class="cls-2" d="M320.84,149c0,2.85-.71,5-2.13,6.33a6.61,6.61,0,0,1-4.7,2.06H297.52c0,1.3.76,2.39,2.29,3.27a9.17,9.17,0,0,0,4.6,1.32,19.34,19.34,0,0,0,6.33-.83l.77-.28a7,7,0,0,1,2.78-.77c1.49,0,2.76,1.05,3.83,3.13a7.82,7.82,0,0,1,.91,3.21q0,6.2-14.83,6.19A22.44,22.44,0,0,1,295,170.9a15.62,15.62,0,0,1-6.23-4.7,20,20,0,0,1-4.38-12.6q0-8.78,5.67-14a20.06,20.06,0,0,1,14.17-5.26q9.68,0,14.2,6.83A14.11,14.11,0,0,1,320.84,149Zm-14.69,2.05c1.76,0,2.64-.74,2.64-2.23a3.13,3.13,0,0,0-1.21-2.57,5.49,5.49,0,0,0-3.49-1,7,7,0,0,0-4.49,1.85,5.18,5.18,0,0,0-2.22,3.93Z"/><path class="cls-2" d="M348.61,167.17q-2.64,3.48-8.42,3.48t-10.83-5.32a17.83,17.83,0,0,1,0-24.89q5.09-5.35,11.14-5.36a10.4,10.4,0,0,1,4.31.87,9.46,9.46,0,0,1,2.69,1.6,9.66,9.66,0,0,1,1.14,1.36,4.26,4.26,0,0,1,1.43-3,6.15,6.15,0,0,1,3.93-1,13.56,13.56,0,0,1,4,.42,2.92,2.92,0,0,1,1.78,1.43,5.53,5.53,0,0,1,.62,1.77,19,19,0,0,1,.11,2.37v28.82A16.38,16.38,0,0,1,355,182.66a18.42,18.42,0,0,1-12.53,4.91,21.18,21.18,0,0,1-10.1-2.57q-4.8-2.58-4.8-4.67a6.6,6.6,0,0,1,2.09-4.8,16.62,16.62,0,0,1,2.05-2,2.76,2.76,0,0,1,1.71-.56,3.27,3.27,0,0,1,2,.84,11.64,11.64,0,0,0,7.24,2.57,5.24,5.24,0,0,0,4.31-2.09,7.73,7.73,0,0,0,1.67-5Zm-12.39-14.23A5.66,5.66,0,0,0,338,157a5.79,5.79,0,0,0,4.31,1.81,5.43,5.43,0,0,0,4.22-1.85,5.88,5.88,0,0,0,1.67-4,6.31,6.31,0,0,0-1.61-4.11,5.3,5.3,0,0,0-4.31-1.91,5.61,5.61,0,0,0-4.39,1.87A6.14,6.14,0,0,0,336.22,152.94Z"/><path class="cls-2" d="M370.89,139.67a19.09,19.09,0,0,1,13.37-5.43,18.89,18.89,0,0,1,13.29,5.4,18,18,0,0,1,5.78,13.75,18.15,18.15,0,0,1-3,10.27,18.75,18.75,0,0,1-7.28,6.61,19.67,19.67,0,0,1-8.87,2.13,18.91,18.91,0,0,1-8.91-2.27,19.63,19.63,0,0,1-7.28-6.68,17.59,17.59,0,0,1-3-10A18,18,0,0,1,370.89,139.67Zm8.7,18.77a7.46,7.46,0,0,0,4.53,1.7,7.58,7.58,0,0,0,4.59-1.74,7,7,0,0,0,.14-10.23,7.42,7.42,0,0,0-4.66-1.67,7.31,7.31,0,0,0-4.67,1.74,6.16,6.16,0,0,0-2.15,5.11A6,6,0,0,0,379.59,158.44Z"/><path class="cls-2" d="M419.34,153.42a5.67,5.67,0,0,0,2,4.6,6.36,6.36,0,0,0,4.15,1.64,7.18,7.18,0,0,0,4.1-1.29,6.13,6.13,0,0,1,3.1-1.29c1.39,0,3.09,1.23,5.08,3.69a6.1,6.1,0,0,1,1.6,3.62c0,1.76-1.27,3.41-3.83,4.94a16.49,16.49,0,0,1-9.74,2.79,20,20,0,0,1-12.46-4.67,16.53,16.53,0,0,1-4.67-5.95,18.61,18.61,0,0,1-1.81-8.21,18.2,18.2,0,0,1,1.81-8.15,16.61,16.61,0,0,1,4.67-5.88,19.43,19.43,0,0,1,12.32-4.6,18.58,18.58,0,0,1,5.15.73,17.61,17.61,0,0,1,3.69,1.43l1.11.7c.84.55,1.49,1,1.95,1.32a4,4,0,0,1,1.81,3.17,7.46,7.46,0,0,1-1.46,4q-2.5,3.83-4.8,3.83a8.06,8.06,0,0,1-3.76-1.53,5,5,0,0,0-3.59-1.19,6.73,6.73,0,0,0-4.35,1.67A5.71,5.71,0,0,0,419.34,153.42Z"/><path class="cls-2" d="M455.3,128.29a2.94,2.94,0,0,1-1.84,1.43,15,15,0,0,1-7,0,2.94,2.94,0,0,1-1.84-1.46,6,6,0,0,1-.63-1.85,28.85,28.85,0,0,1,0-4.8,5.66,5.66,0,0,1,.6-1.78q1-1.87,5.43-1.88t5.29,1.88a5.69,5.69,0,0,1,.66,1.85,28.85,28.85,0,0,1,0,4.8A5.53,5.53,0,0,1,455.3,128.29Zm-11.45,12.92a20.55,20.55,0,0,1,.1-2.41,6.4,6.4,0,0,1,.6-1.84q1-1.82,5.43-1.81c2.22,0,3.8.39,4.73,1.18a3.82,3.82,0,0,1,1.25,3c.05.46.07,1.13.07,2v24.36a20.24,20.24,0,0,1-.1,2.4,5.61,5.61,0,0,1-.66,1.85c-.61,1.21-2.39,1.81-5.36,1.81s-4.72-.63-5.36-1.88a6.45,6.45,0,0,1-.6-1.81,20.23,20.23,0,0,1-.1-2.44Z"/><path class="cls-2" d="M466.4,139.67a19.13,19.13,0,0,1,26.67,0,19.18,19.18,0,0,1,2.78,24,18.72,18.72,0,0,1-7.27,6.61,19.74,19.74,0,0,1-8.88,2.13,19,19,0,0,1-8.91-2.27,19.61,19.61,0,0,1-7.27-6.68,17.51,17.51,0,0,1-3-10A18,18,0,0,1,466.4,139.67Zm8.71,18.77a7.41,7.41,0,0,0,4.52,1.7,7.63,7.63,0,0,0,4.6-1.74,7,7,0,0,0,.14-10.23,7.45,7.45,0,0,0-4.67-1.67,7.28,7.28,0,0,0-4.66,1.74,6.17,6.17,0,0,0-2.16,5.11A6,6,0,0,0,475.11,158.44Z"/><path class="cls-2" d="M503.65,168.5a2.91,2.91,0,0,1-1.32-2.65c0-1.2.88-3,2.64-5.5a2.71,2.71,0,0,1,2.47-1.18,10.21,10.21,0,0,1,4.63,1.7,10.73,10.73,0,0,0,5.29,1.71c2.83,0,4.25-.56,4.25-1.67,0-.88-1.56-1.53-4.66-1.95a22.89,22.89,0,0,1-8.71-3.27,9.36,9.36,0,0,1-3.34-3.94,14.26,14.26,0,0,1-1.32-6.37q0-11,15.11-11a24.5,24.5,0,0,1,10.16,2.37c1.62.74,2.44,1.67,2.44,2.79a8.13,8.13,0,0,1-1.54,4.1c-1,1.63-2.06,2.44-3.13,2.44a9.61,9.61,0,0,1-3.1-1,11.46,11.46,0,0,0-4.9-1q-4.11,0-4.11,1.53c0,1.4,1.58,2.3,4.73,2.72a25.88,25.88,0,0,1,8.91,2.64,7.86,7.86,0,0,1,3.38,3.38,12,12,0,0,1,1.36,6,12.83,12.83,0,0,1-1.36,6.16,8.8,8.8,0,0,1-3.79,3.8,25.58,25.58,0,0,1-11.18,2.16A23.88,23.88,0,0,1,503.65,168.5Z"/><path class="cls-2" d="M233.68,205.26v-23.7a11.47,11.47,0,0,1,.06-1.38,3.16,3.16,0,0,1,.34-1c.38-.73,1.29-1.1,2.72-1.1a5.25,5.25,0,0,1,2.9.55,2.22,2.22,0,0,1,.88,1.6,5.57,5.57,0,0,1,4.84-2.11q3.32,0,6.27,3.13a10.38,10.38,0,0,1,0,14.52,8.57,8.57,0,0,1-6.26,3.13q-3.33,0-4.83-1.87v8.2a11.47,11.47,0,0,1-.06,1.38,3.6,3.6,0,0,1-.37,1,1.71,1.71,0,0,1-1,.83,6.31,6.31,0,0,1-2,.25,6.44,6.44,0,0,1-2-.25,1.75,1.75,0,0,1-1.06-.81,3.09,3.09,0,0,1-.36-1A11.47,11.47,0,0,1,233.68,205.26Zm8-19.11a3.6,3.6,0,0,0-.93,2.39,3.49,3.49,0,0,0,.95,2.37,3.12,3.12,0,0,0,2.44,1.08,3.37,3.37,0,0,0,2.51-1.06,3.33,3.33,0,0,0,1-2.39,3.49,3.49,0,0,0-1-2.41,3.25,3.25,0,0,0-2.53-1.08A3.13,3.13,0,0,0,241.71,186.15Z"/><path class="cls-2" d="M271.17,180.34c.17-1.51,1.23-2.27,3.21-2.27a8.49,8.49,0,0,1,2.35.24,1.74,1.74,0,0,1,1.08.86,3.45,3.45,0,0,1,.36,1.07,12,12,0,0,1,.06,1.4v14.2a11.85,11.85,0,0,1-.06,1.4,3.68,3.68,0,0,1-.34,1.08c-.38.7-1.31,1.05-2.78,1.05a5.52,5.52,0,0,1-3-.54,2.18,2.18,0,0,1-.88-1.61c-1,1.44-2.67,2.15-5,2.15a8.83,8.83,0,0,1-6.51-3.2,10.57,10.57,0,0,1-3-7.45,10.42,10.42,0,0,1,3-7.42,9,9,0,0,1,6.63-3.19,6.26,6.26,0,0,1,2.52.49,5.56,5.56,0,0,1,1.58.91A5.36,5.36,0,0,1,271.17,180.34Zm-7.38,8.44a3.38,3.38,0,0,0,1,2.42,3.45,3.45,0,0,0,2.56,1.07,3.21,3.21,0,0,0,2.49-1.09,3.5,3.5,0,0,0,1-2.42,3.76,3.76,0,0,0-.95-2.45,3.17,3.17,0,0,0-2.56-1.14,3.28,3.28,0,0,0-2.6,1.14A3.69,3.69,0,0,0,263.79,188.78Z"/><path class="cls-2" d="M296,178.31a2.79,2.79,0,0,1,1.28.84,2.9,2.9,0,0,1,.5,1.88,6.29,6.29,0,0,1-.77,2.84,2.42,2.42,0,0,1-2.23,1.55,3.13,3.13,0,0,1-1.4-.33,4.06,4.06,0,0,0-1.77-.32,3.13,3.13,0,0,0-2,.77,2.3,2.3,0,0,0-1,1.86v8.53a12.09,12.09,0,0,1-.06,1.4,3.38,3.38,0,0,1-.38,1.07c-.41.7-1.47,1.06-3.17,1.06a4.48,4.48,0,0,1-2.8-.69,2.43,2.43,0,0,1-.73-1.75V181.6a12,12,0,0,1,.06-1.4,3.22,3.22,0,0,1,.35-1c.37-.73,1.43-1.1,3.16-1.1s2.64.31,3,.93a2.34,2.34,0,0,1,.45,1.34,6.92,6.92,0,0,1,.59-.69,7.57,7.57,0,0,1,1.64-1.09,4.76,4.76,0,0,1,2.21-.69,10.47,10.47,0,0,1,1.61.1A10.66,10.66,0,0,1,296,178.31Z"/><path class="cls-2" d="M312.68,180.34c.17-1.51,1.24-2.27,3.21-2.27a8.45,8.45,0,0,1,2.35.24,1.71,1.71,0,0,1,1.08.86,3.45,3.45,0,0,1,.36,1.07,9.75,9.75,0,0,1,.07,1.4v14.2a9.66,9.66,0,0,1-.07,1.4,3.68,3.68,0,0,1-.34,1.08c-.38.7-1.31,1.05-2.78,1.05a5.54,5.54,0,0,1-3-.54,2.2,2.2,0,0,1-.87-1.61c-1,1.44-2.68,2.15-5,2.15a8.83,8.83,0,0,1-6.51-3.2,10.57,10.57,0,0,1-3-7.45,10.46,10.46,0,0,1,3-7.42,9,9,0,0,1,6.64-3.19,6.21,6.21,0,0,1,2.51.49,5.41,5.41,0,0,1,1.58.91A4.88,4.88,0,0,1,312.68,180.34Zm-7.38,8.44a3.38,3.38,0,0,0,1.05,2.42,3.45,3.45,0,0,0,2.56,1.07,3.25,3.25,0,0,0,2.5-1.09,3.54,3.54,0,0,0,1-2.42,3.76,3.76,0,0,0-.95-2.45,3.17,3.17,0,0,0-2.56-1.14,3.3,3.3,0,0,0-2.6,1.14A3.69,3.69,0,0,0,305.3,188.78Z"/><path class="cls-2" d="M358.41,196.55a3.33,3.33,0,0,1,2-1.64,11.11,11.11,0,0,1,3.31-.42,12.06,12.06,0,0,1,3.2.35,4.93,4.93,0,0,1,1.81.84,2.87,2.87,0,0,1,.87,1.46,10.9,10.9,0,0,1,.42,3.55v38.64a19.65,19.65,0,0,1-.11,2.43,5.52,5.52,0,0,1-.66,1.81c-.65,1.26-2.46,1.88-5.43,1.88A11.79,11.79,0,0,1,360,245a4.11,4.11,0,0,1-1.74-1.33q-15.66-20.88-20.6-27.29v22.91a19.65,19.65,0,0,1-.11,2.43,5.52,5.52,0,0,1-.66,1.81c-.65,1.26-2.46,1.88-5.43,1.88s-4.64-.62-5.29-1.88a5.52,5.52,0,0,1-.66-1.88,20.59,20.59,0,0,1-.11-2.43V200.41a8.49,8.49,0,0,1,.66-3.86,3.38,3.38,0,0,1,2-1.64,11.51,11.51,0,0,1,3.41-.42,11.29,11.29,0,0,1,3.31.39,4.08,4.08,0,0,1,1.7.87,17.16,17.16,0,0,1,1.6,1.81q14.7,20,19.64,26.38V200.41A8.49,8.49,0,0,1,358.41,196.55Z"/><path class="cls-2" d="M387,202a2.94,2.94,0,0,1-1.85,1.42,14.92,14.92,0,0,1-7,0,2.88,2.88,0,0,1-1.84-1.46,5.91,5.91,0,0,1-.63-1.84,29,29,0,0,1,0-4.81,5.83,5.83,0,0,1,.59-1.77q1-1.87,5.43-1.88t5.29,1.88a5.62,5.62,0,0,1,.67,1.84,29,29,0,0,1,0,4.81A5.6,5.6,0,0,1,387,202Zm-11.45,12.91a20.24,20.24,0,0,1,.1-2.4,6.56,6.56,0,0,1,.59-1.84q1-1.82,5.43-1.81c2.23,0,3.81.39,4.74,1.18a3.85,3.85,0,0,1,1.25,3c.05.47.07,1.14.07,2V239.4a20.24,20.24,0,0,1-.1,2.4,5.62,5.62,0,0,1-.67,1.84q-.9,1.81-5.36,1.81c-2.92,0-4.71-.62-5.36-1.88a6.51,6.51,0,0,1-.59-1.81,20.15,20.15,0,0,1-.1-2.43Z"/><path class="cls-2" d="M413.72,208.77a14.72,14.72,0,0,1,11.59,5.32,19.13,19.13,0,0,1,4.63,13v12.26a19.78,19.78,0,0,1-.11,2.4,5.56,5.56,0,0,1-.59,1.77c-.65,1.26-2.46,1.88-5.43,1.88-3.29,0-5.2-.85-5.71-2.57a11.27,11.27,0,0,1-.42-3.55V227a5.58,5.58,0,0,0-6-6.06,6.09,6.09,0,0,0-4.45,1.67A5.86,5.86,0,0,0,405.5,227v12.32a20.24,20.24,0,0,1-.1,2.4,5,5,0,0,1-.66,1.77c-.61,1.26-2.39,1.88-5.36,1.88s-4.72-.62-5.36-1.88a6.31,6.31,0,0,1-.6-1.84,20.24,20.24,0,0,1-.1-2.4V214.61a19.58,19.58,0,0,1,.1-2.33,5,5,0,0,1,.66-1.77q1-1.74,5.37-1.74t5.22,1.6a5.57,5.57,0,0,1,.69,2.85,7.38,7.38,0,0,1,1.26-1.39,11.57,11.57,0,0,1,1.88-1.46A9.06,9.06,0,0,1,413.72,208.77Zm9.53-16.09c1.68,1.16,2.51,2.28,2.51,3.35a3.57,3.57,0,0,1-.56,1.88c-.37.6-.62,1-.76,1.28a12.25,12.25,0,0,1-1,1.36,10.23,10.23,0,0,1-1.74,1.74,9,9,0,0,1-5.36,2,8.62,8.62,0,0,1-4.28-.9,16.63,16.63,0,0,1-2.58-1.81,2.79,2.79,0,0,0-1.63-.91,2.53,2.53,0,0,0-1.81.84c-1.07,1.85-2.05,2.78-3,2.78a5.48,5.48,0,0,1-3.27-1.67c-1.28-1.11-1.92-2-1.92-2.75a3.7,3.7,0,0,1,.56-2c.37-.61.63-1,.77-1.29a9.26,9.26,0,0,1,1-1.33,12.39,12.39,0,0,1,1.77-1.7,9,9,0,0,1,5.36-1.88,8.83,8.83,0,0,1,4.32.87,14.59,14.59,0,0,1,2.5,1.74,2.77,2.77,0,0,0,1.6.87,2.22,2.22,0,0,0,1.81-.84c1-1.76,2-2.64,3.14-2.64A4.62,4.62,0,0,1,423.25,192.68Z"/><path class="cls-2" d="M440.31,213.36a19.13,19.13,0,0,1,26.66,0,19.2,19.2,0,0,1,2.79,24,18.78,18.78,0,0,1-7.28,6.62,19.79,19.79,0,0,1-8.87,2.12,18.9,18.9,0,0,1-8.91-2.26,19.75,19.75,0,0,1-7.28-6.69,17.54,17.54,0,0,1-3-10A18,18,0,0,1,440.31,213.36Zm8.7,18.76a7.41,7.41,0,0,0,4.53,1.71,7.58,7.58,0,0,0,4.59-1.74,7,7,0,0,0,.14-10.24,7.48,7.48,0,0,0-4.66-1.67,7.31,7.31,0,0,0-4.67,1.74,6.19,6.19,0,0,0-2.16,5.12A6,6,0,0,0,449,232.12Z"/><path class="cls-2" d="M477.55,242.18a2.9,2.9,0,0,1-1.32-2.64q0-1.81,2.65-5.5a2.72,2.72,0,0,1,2.47-1.19,10.17,10.17,0,0,1,4.63,1.71,10.68,10.68,0,0,0,5.29,1.7c2.83,0,4.24-.55,4.24-1.67q0-1.32-4.66-2a22.58,22.58,0,0,1-8.7-3.27,9.2,9.2,0,0,1-3.34-3.93,14.15,14.15,0,0,1-1.33-6.37q0-11,15.11-11a24.55,24.55,0,0,1,10.17,2.37c1.62.74,2.43,1.67,2.43,2.78a8.26,8.26,0,0,1-1.53,4.11c-1,1.62-2.07,2.43-3.13,2.43a9.28,9.28,0,0,1-3.1-1,11.5,11.5,0,0,0-4.91-1q-4.11,0-4.11,1.53c0,1.39,1.58,2.3,4.74,2.71a26,26,0,0,1,8.91,2.65,7.91,7.91,0,0,1,3.38,3.38,12.13,12.13,0,0,1,1.35,6,13,13,0,0,1-1.35,6.16,8.85,8.85,0,0,1-3.8,3.79,25.53,25.53,0,0,1-11.17,2.16A23.91,23.91,0,0,1,477.55,242.18Z"/><path class="cls-3" d="M87.58,101h14.73a16,16,0,0,1,1.65.07,3.75,3.75,0,0,1,1.26.46c.86.45,1.3,1.69,1.3,3.73,0,2.23-.6,3.54-1.77,3.92a8.1,8.1,0,0,1-2.49.29H83.32c-2.23,0-3.54-.61-3.92-1.82a7.53,7.53,0,0,1-.29-2.44V78.61A4.64,4.64,0,0,1,80,75.29c.61-.59,1.75-.89,3.44-.89h18.85a16,16,0,0,1,1.65.07,3.75,3.75,0,0,1,1.26.46c.86.45,1.3,1.69,1.3,3.73,0,2.23-.6,3.54-1.77,3.92a8.1,8.1,0,0,1-2.49.29H87.58V87.7h9.47a13.59,13.59,0,0,1,1.65.07,3.94,3.94,0,0,1,1.26.45c.86.45,1.29,1.69,1.29,3.73,0,2.24-.6,3.54-1.81,3.93a8.12,8.12,0,0,1-2.49.28H87.58Z"/><path class="cls-3" d="M109.62,76.6a16,16,0,0,1,.07-1.65,4.57,4.57,0,0,1,.41-1.26c.45-.87,1.69-1.3,3.73-1.3s3.16.43,3.64,1.3a3.84,3.84,0,0,1,.45,1.29,14.07,14.07,0,0,1,.07,1.67V98.79a5,5,0,0,0,.29,2.18c.19.3.61.45,1.27.45a8.59,8.59,0,0,1,1.31.07,2.45,2.45,0,0,1,.81.41c.64.42,1,1.55,1,3.4,0,2-.32,3.23-1,3.68-.83.57-2.8.67-5.93.29-2.45-.32-4-1.14-4.78-2.44-.89-1.57-1.34-4-1.34-7.46Z"/><path class="cls-3" d="M163.23,81.48a12.62,12.62,0,0,1,1.25,5.64,12.45,12.45,0,0,1-1.25,5.62,11,11,0,0,1-3.2,4,13.34,13.34,0,0,1-8.23,3.06h-6v5.4a13.16,13.16,0,0,1-.08,1.65,3.75,3.75,0,0,1-.45,1.27c-.45.86-1.69,1.29-3.73,1.29-2.23,0-3.54-.59-3.92-1.77a8,8,0,0,1-.29-2.49V78.61a13.59,13.59,0,0,1,.07-1.65,3.8,3.8,0,0,1,.46-1.27c.44-.86,1.69-1.29,3.73-1.29h10.23A13.27,13.27,0,0,1,160,77.46,11,11,0,0,1,163.23,81.48Zm-8.56,8.8a3.7,3.7,0,0,0,1.39-3.16,3.77,3.77,0,0,0-1.39-3.18,4.65,4.65,0,0,0-2.87-1.07h-6v8.46h6A4.62,4.62,0,0,0,154.67,90.28Z"/><path class="cls-3" d="M190.44,93.84A5.77,5.77,0,0,1,189,98.19a4.5,4.5,0,0,1-3.22,1.42H174.42a2.61,2.61,0,0,0,1.58,2.24,6.25,6.25,0,0,0,3.16.91,13.22,13.22,0,0,0,4.35-.57L184,102a4.9,4.9,0,0,1,1.92-.53c1,0,1.89.72,2.63,2.15a5.36,5.36,0,0,1,.62,2.2q0,4.26-10.19,4.26a15.44,15.44,0,0,1-6.29-1.22,10.67,10.67,0,0,1-4.28-3.23,13.79,13.79,0,0,1-3-8.65,12.51,12.51,0,0,1,3.9-9.64,13.76,13.76,0,0,1,9.73-3.61q6.65,0,9.76,4.68A9.76,9.76,0,0,1,190.44,93.84Zm-10.09,1.41c1.21,0,1.82-.51,1.82-1.53a2.16,2.16,0,0,0-.84-1.77,3.76,3.76,0,0,0-2.39-.67,4.87,4.87,0,0,0-3.08,1.27,3.57,3.57,0,0,0-1.53,2.7Z"/><path class="cls-3" d="M209.43,86.79q.28-2.54,3.73-2.54a9.22,9.22,0,0,1,2.68.29,2,2,0,0,1,1.22,1,3.9,3.9,0,0,1,.43,1.22,12.9,12.9,0,0,1,.07,1.63V116.3a12.82,12.82,0,0,1-.07,1.62,3.73,3.73,0,0,1-.43,1.2,2.07,2.07,0,0,1-1.25.95,7.92,7.92,0,0,1-2.36.29,7.76,7.76,0,0,1-2.35-.29,2,2,0,0,1-1.22-1,3.9,3.9,0,0,1-.43-1.22,15.08,15.08,0,0,1-.07-1.62v-9.66a6.79,6.79,0,0,1-5.4,2.2,10.36,10.36,0,0,1-7.7-3.68A12.29,12.29,0,0,1,196.33,88c2.32-2.45,4.79-3.68,7.38-3.68S208.22,85.13,209.43,86.79Zm-7.2,12.62a4,4,0,0,0,2.94,1.25A3.72,3.72,0,0,0,208,99.39a4,4,0,0,0,1.15-2.77,4.36,4.36,0,0,0-1.1-2.83,3.64,3.64,0,0,0-2.94-1.31,3.83,3.83,0,0,0-3,1.27A4.1,4.1,0,0,0,201,96.59,3.92,3.92,0,0,0,202.23,99.41Z"/><path class="cls-3" d="M232.58,109.36a10.17,10.17,0,0,1-8-3.66,13.12,13.12,0,0,1-3.18-8.92V88.41a13,13,0,0,1,.08-1.67,4.29,4.29,0,0,1,.4-1.24c.45-.86,1.69-1.29,3.73-1.29,2.23,0,3.54.6,3.92,1.81a7.3,7.3,0,0,1,.29,2.44v8.37a3.85,3.85,0,0,0,4.14,4.16A4.16,4.16,0,0,0,237,99.84a4,4,0,0,0,1.17-3V88.37a13.37,13.37,0,0,1,.07-1.65,3.8,3.8,0,0,1,.46-1.27c.41-.83,1.64-1.24,3.68-1.24s3.23.43,3.68,1.29a4.68,4.68,0,0,1,.41,1.26,13.59,13.59,0,0,1,.07,1.65v16.93a13.06,13.06,0,0,1-.07,1.61,3.44,3.44,0,0,1-.46,1.22c-.47.83-1.7,1.24-3.68,1.24s-3.14-.38-3.59-1.15a3.87,3.87,0,0,1-.47-2,5.46,5.46,0,0,1-.86,1,12.48,12.48,0,0,1-1.3,1A6.37,6.37,0,0,1,232.58,109.36Z"/><path class="cls-3" d="M274.66,93.84a5.81,5.81,0,0,1-1.46,4.35A4.52,4.52,0,0,1,270,99.61H258.64a2.6,2.6,0,0,0,1.58,2.24,6.22,6.22,0,0,0,3.15.91,13.22,13.22,0,0,0,4.35-.57l.53-.19a4.86,4.86,0,0,1,1.91-.53c1,0,1.9.72,2.63,2.15a5.24,5.24,0,0,1,.63,2.2q0,4.26-10.19,4.26a15.41,15.41,0,0,1-6.29-1.22,10.67,10.67,0,0,1-4.28-3.23,13.74,13.74,0,0,1-3-8.65,12.51,12.51,0,0,1,3.9-9.64,13.74,13.74,0,0,1,9.73-3.61q6.64,0,9.75,4.68A9.69,9.69,0,0,1,274.66,93.84Zm-10.09,1.41c1.21,0,1.82-.51,1.82-1.53a2.16,2.16,0,0,0-.84-1.77,3.8,3.8,0,0,0-2.39-.67,4.87,4.87,0,0,0-3.09,1.27,3.57,3.57,0,0,0-1.53,2.7Z"/><path class="cls-3" d="M291.78,84.25a10.1,10.1,0,0,1,8,3.66,13.12,13.12,0,0,1,3.18,8.92v8.42a13.59,13.59,0,0,1-.07,1.65,3.81,3.81,0,0,1-.41,1.22c-.44.86-1.69,1.29-3.73,1.29-2.26,0-3.57-.59-3.92-1.77a7.84,7.84,0,0,1-.28-2.44V96.78a3.85,3.85,0,0,0-4.14-4.16,4.21,4.21,0,0,0-3.06,1.15,4,4,0,0,0-1.17,3v8.47a13.16,13.16,0,0,1-.08,1.65,3.16,3.16,0,0,1-.45,1.22c-.41.86-1.64,1.29-3.68,1.29s-3.24-.43-3.68-1.29a4.31,4.31,0,0,1-.41-1.27,13.59,13.59,0,0,1-.07-1.65V88.27a13,13,0,0,1,.07-1.6,3.53,3.53,0,0,1,.45-1.22q.68-1.2,3.69-1.2c1.94,0,3.14.37,3.58,1.1a3.82,3.82,0,0,1,.48,2,4.8,4.8,0,0,1,.86-1,8.82,8.82,0,0,1,1.29-1A6.31,6.31,0,0,1,291.78,84.25Zm6.55-11c1.15.79,1.72,1.56,1.72,2.29a2.36,2.36,0,0,1-.38,1.29c-.25.42-.43.71-.53.89a8.15,8.15,0,0,1-.66.93,7.17,7.17,0,0,1-1.2,1.2,6.18,6.18,0,0,1-3.68,1.34,5.78,5.78,0,0,1-2.94-.63,10.41,10.41,0,0,1-1.77-1.24,2,2,0,0,0-1.13-.62,1.74,1.74,0,0,0-1.24.57c-.73,1.28-1.41,1.92-2,1.92A3.78,3.78,0,0,1,282.24,80q-1.32-1.16-1.32-1.89a2.48,2.48,0,0,1,.39-1.36c.25-.42.43-.71.52-.89a7.47,7.47,0,0,1,.7-.91,8,8,0,0,1,1.22-1.17,6.13,6.13,0,0,1,3.68-1.29,6,6,0,0,1,3,.6,9.83,9.83,0,0,1,1.72,1.19,1.91,1.91,0,0,0,1.1.6,1.56,1.56,0,0,0,1.25-.57c.67-1.21,1.38-1.82,2.15-1.82A3.14,3.14,0,0,1,298.33,73.21Z"/><path class="cls-3" d="M310.05,87.41a13.13,13.13,0,0,1,18.31,0,13.2,13.2,0,0,1,1.92,16.5,12.92,12.92,0,0,1-5,4.54,13.59,13.59,0,0,1-6.1,1.46,13,13,0,0,1-6.12-1.56,13.49,13.49,0,0,1-5-4.59,12.08,12.08,0,0,1-2-6.86A12.36,12.36,0,0,1,310.05,87.41Zm6,12.89a5.07,5.07,0,0,0,3.1,1.17,5.19,5.19,0,0,0,3.16-1.2,4.8,4.8,0,0,0,.1-7,5.17,5.17,0,0,0-3.21-1.14,5,5,0,0,0-3.2,1.19,4.25,4.25,0,0,0-1.48,3.52A4.13,4.13,0,0,0,316,100.3Z"/><path class="cls-3" d="M356,102.38h13a5.43,5.43,0,0,1,2.3.36,1.81,1.81,0,0,1,1,1.12,9.12,9.12,0,0,1,0,4.07,1.66,1.66,0,0,1-.82,1,5.33,5.33,0,0,1-2.48.48H351.75c-2.23,0-3.54-.61-3.92-1.82a7.53,7.53,0,0,1-.29-2.44V78.61a13.59,13.59,0,0,1,.07-1.65,3.8,3.8,0,0,1,.46-1.27c.44-.86,1.69-1.29,3.73-1.29,2.23,0,3.55.59,4,1.77a9.47,9.47,0,0,1,.24,2.49Z"/><path class="cls-3" d="M383.48,79.59a2,2,0,0,1-1.27,1,10.2,10.2,0,0,1-4.83,0,2,2,0,0,1-1.27-1,4.42,4.42,0,0,1-.43-1.27,19.48,19.48,0,0,1,0-3.3,4.07,4.07,0,0,1,.41-1.22c.45-.86,1.69-1.29,3.73-1.29s3.22.43,3.64,1.29a4,4,0,0,1,.45,1.27A13.37,13.37,0,0,1,384,76.7a13.59,13.59,0,0,1-.07,1.65A3.91,3.91,0,0,1,383.48,79.59Zm-7.87,8.87a16,16,0,0,1,.07-1.65,4.57,4.57,0,0,1,.41-1.26c.45-.83,1.69-1.25,3.73-1.25a5,5,0,0,1,3.25.82,2.62,2.62,0,0,1,.86,2,12.5,12.5,0,0,1,.05,1.39V105.3a13.59,13.59,0,0,1-.07,1.65,3.94,3.94,0,0,1-.45,1.26c-.42.83-1.65,1.25-3.69,1.25s-3.23-.43-3.68-1.29a4.74,4.74,0,0,1-.41-1.25,15.76,15.76,0,0,1-.07-1.67Z"/><path class="cls-3" d="M401.63,84.3q4.25,0,7.82,3.78a12.6,12.6,0,0,1,0,17.53q-3.54,3.75-7.6,3.75t-5.79-2.29q-.39,2.34-4.11,2.34c-2,0-3.24-.43-3.68-1.29a4.31,4.31,0,0,1-.41-1.27,13.59,13.59,0,0,1-.07-1.65V76.65a13.59,13.59,0,0,1,.07-1.65,3.81,3.81,0,0,1,.41-1.22c.44-.86,1.68-1.29,3.73-1.29s3.21.43,3.63,1.29a3.75,3.75,0,0,1,.45,1.27,12.93,12.93,0,0,1,.08,1.65v10A6.61,6.61,0,0,1,401.63,84.3Zm-4.19,15.45a3.8,3.8,0,0,0,2.94,1.29,4.32,4.32,0,0,0,4.26-4.16A4.27,4.27,0,0,0,403.49,94a3.84,3.84,0,0,0-3.06-1.32,3.75,3.75,0,0,0-3,1.34,4.42,4.42,0,0,0-1.13,2.89A4.15,4.15,0,0,0,397.44,99.75Z"/><path class="cls-3" d="M433.24,84.54a3.28,3.28,0,0,1,1.51,1,3.42,3.42,0,0,1,.59,2.23,7.48,7.48,0,0,1-.91,3.34,2.85,2.85,0,0,1-2.63,1.82,3.83,3.83,0,0,1-1.65-.38,4.71,4.71,0,0,0-2.08-.38,3.78,3.78,0,0,0-2.41.9,2.75,2.75,0,0,0-1.13,2.2v10a13.59,13.59,0,0,1-.07,1.65,3.71,3.71,0,0,1-.45,1.26c-.48.83-1.72,1.25-3.73,1.25a5.22,5.22,0,0,1-3.3-.82,2.83,2.83,0,0,1-.86-2V88.41a13.59,13.59,0,0,1,.07-1.65,3.76,3.76,0,0,1,.41-1.21c.44-.87,1.69-1.3,3.73-1.3s3.1.37,3.58,1.1a2.77,2.77,0,0,1,.53,1.58,6.12,6.12,0,0,1,2.63-2.1,5.65,5.65,0,0,1,2.61-.82,13.9,13.9,0,0,1,1.88.12A12,12,0,0,1,433.24,84.54Z"/><path class="cls-3" d="M439.84,87.41a13.13,13.13,0,0,1,18.31,0,13.2,13.2,0,0,1,1.92,16.5,12.92,12.92,0,0,1-5,4.54,13.59,13.59,0,0,1-6.1,1.46,13,13,0,0,1-6.12-1.56,13.49,13.49,0,0,1-5-4.59,12.08,12.08,0,0,1-2-6.86A12.36,12.36,0,0,1,439.84,87.41Zm6,12.89a5.07,5.07,0,0,0,3.1,1.17,5.19,5.19,0,0,0,3.16-1.2,4.8,4.8,0,0,0,.1-7A5.17,5.17,0,0,0,449,92.1a5,5,0,0,0-3.2,1.19,4.25,4.25,0,0,0-1.48,3.52A4.13,4.13,0,0,0,445.82,100.3Z"/><path class="cls-3" d="M165,114.84a2.94,2.94,0,0,1,1.84-1.43,15.27,15.27,0,0,1,7,0,2.94,2.94,0,0,1,1.85,1.47,5.86,5.86,0,0,1,.62,1.84,19.89,19.89,0,0,1,.11,2.4v41.56a20.09,20.09,0,0,1-.11,2.41,5,5,0,0,1-.66,1.77q-1,1.88-5.88,1.88c-3.23,0-5-1.14-5.39-3.41a10.26,10.26,0,0,1-8.15,3.34q-6.27,0-11.42-5.46a18.33,18.33,0,0,1,0-25.52q5.18-5.49,11.38-5.5a9.8,9.8,0,0,1,8,3.48V119.05a20.36,20.36,0,0,1,.1-2.4A5.6,5.6,0,0,1,165,114.84Zm-11.32,37.84a5.88,5.88,0,0,0,4.39,1.88,5.55,5.55,0,0,0,4.28-1.88,6,6,0,0,0,1.71-4.14,6.46,6.46,0,0,0-1.64-4.22,5.49,5.49,0,0,0-4.42-1.95,5.62,5.62,0,0,0-4.46,1.92,6.29,6.29,0,0,0-1.67,4.21A5.94,5.94,0,0,0,153.71,152.68Z"/><path class="cls-3" d="M217.41,144.08c0,2.85-.7,5-2.12,6.34a6.62,6.62,0,0,1-4.7,2.05h-16.5c0,1.3.77,2.39,2.3,3.27a9.14,9.14,0,0,0,4.59,1.32,19.14,19.14,0,0,0,6.34-.83l.76-.28a7.1,7.1,0,0,1,2.79-.77q2.22,0,3.83,3.14a7.7,7.7,0,0,1,.9,3.2q0,6.19-14.83,6.2a22.43,22.43,0,0,1-9.15-1.78,15.47,15.47,0,0,1-6.23-4.7,20,20,0,0,1-4.39-12.6q0-8.77,5.68-14a20,20,0,0,1,14.16-5.25q9.67,0,14.21,6.82A14.21,14.21,0,0,1,217.41,144.08Zm-14.69,2c1.77,0,2.65-.74,2.65-2.22a3.15,3.15,0,0,0-1.22-2.58,5.44,5.44,0,0,0-3.48-1,7,7,0,0,0-4.49,1.84,5.16,5.16,0,0,0-2.23,3.93Z"/><path class="cls-3" d="M263.35,117.9a3.33,3.33,0,0,1,2-1.63,11.07,11.07,0,0,1,3.31-.42,12.11,12.11,0,0,1,3.2.35,5.2,5.2,0,0,1,1.81.83,3,3,0,0,1,.87,1.47,10.85,10.85,0,0,1,.42,3.55v38.63a19.73,19.73,0,0,1-.11,2.44,5.68,5.68,0,0,1-.66,1.81q-1,1.88-5.43,1.88a11.43,11.43,0,0,1-3.76-.42,4.05,4.05,0,0,1-1.74-1.32q-15.66-20.88-20.61-27.29v22.9a20.23,20.23,0,0,1-.1,2.44,5.68,5.68,0,0,1-.66,1.81q-1,1.88-5.43,1.88t-5.29-1.88a5.42,5.42,0,0,1-.67-1.88,24,24,0,0,1-.1-2.44V121.77a8.54,8.54,0,0,1,.66-3.87,3.3,3.3,0,0,1,2-1.63,14.28,14.28,0,0,1,6.71,0,4.39,4.39,0,0,1,1.71.87,20,20,0,0,1,1.6,1.81q14.69,20,19.63,26.39V121.77A8.54,8.54,0,0,1,263.35,117.9Z"/><path class="cls-3" d="M315.88,144.08c0,2.85-.71,5-2.12,6.34a6.64,6.64,0,0,1-4.7,2.05h-16.5c0,1.3.76,2.39,2.29,3.27a9.2,9.2,0,0,0,4.6,1.32,19.07,19.07,0,0,0,6.33-.83l.77-.28a7,7,0,0,1,2.78-.77q2.24,0,3.83,3.14a7.59,7.59,0,0,1,.91,3.2q0,6.19-14.83,6.2a22.39,22.39,0,0,1-9.15-1.78,15.57,15.57,0,0,1-6.24-4.7,20,20,0,0,1-4.38-12.6q0-8.77,5.67-14a20.08,20.08,0,0,1,14.17-5.25q9.68,0,14.2,6.82A14.14,14.14,0,0,1,315.88,144.08Zm-14.69,2c1.76,0,2.65-.74,2.65-2.22a3.15,3.15,0,0,0-1.22-2.58,5.48,5.48,0,0,0-3.48-1,7,7,0,0,0-4.49,1.84,5.16,5.16,0,0,0-2.23,3.93Z"/><path class="cls-3" d="M343.66,162.22q-2.66,3.48-8.43,3.48t-10.82-5.33a17.82,17.82,0,0,1,0-24.89q5.08-5.35,11.14-5.36a10.49,10.49,0,0,1,4.32.87,9.61,9.61,0,0,1,2.68,1.6,9.8,9.8,0,0,1,1.15,1.36,4.27,4.27,0,0,1,1.42-3,6.19,6.19,0,0,1,3.94-1,13.48,13.48,0,0,1,4,.42,3,3,0,0,1,1.78,1.43,5.59,5.59,0,0,1,.63,1.77,19.45,19.45,0,0,1,.1,2.37v28.82A16.41,16.41,0,0,1,350,177.71a18.46,18.46,0,0,1-12.53,4.9A21.11,21.11,0,0,1,327.37,180c-3.21-1.72-4.81-3.27-4.81-4.67a6.6,6.6,0,0,1,2.09-4.8,18.22,18.22,0,0,1,2.05-2,2.76,2.76,0,0,1,1.71-.56,3.27,3.27,0,0,1,2,.84,11.61,11.61,0,0,0,7.24,2.58,5.3,5.3,0,0,0,4.32-2.09,7.83,7.83,0,0,0,1.67-5ZM331.26,148a5.69,5.69,0,0,0,1.78,4.07,5.8,5.8,0,0,0,4.32,1.81,5.45,5.45,0,0,0,4.21-1.84,5.92,5.92,0,0,0,1.67-4,6.35,6.35,0,0,0-1.6-4.11,5.36,5.36,0,0,0-4.32-1.91,5.58,5.58,0,0,0-4.39,1.88A6.1,6.1,0,0,0,331.26,148Z"/><path class="cls-3" d="M365.93,134.72a19.14,19.14,0,0,1,26.67,0,19.21,19.21,0,0,1,2.78,24,18.79,18.79,0,0,1-7.27,6.61,19.74,19.74,0,0,1-8.88,2.13,19,19,0,0,1-8.91-2.27,19.71,19.71,0,0,1-7.28-6.68,17.56,17.56,0,0,1-3-10A18,18,0,0,1,365.93,134.72Zm8.7,18.76a7.4,7.4,0,0,0,4.53,1.7,7.52,7.52,0,0,0,4.59-1.74,7,7,0,0,0,.14-10.23,7.48,7.48,0,0,0-4.66-1.67,7.26,7.26,0,0,0-4.66,1.74,6.19,6.19,0,0,0-2.16,5.12A6,6,0,0,0,374.63,153.48Z"/><path class="cls-3" d="M414.39,148.47a5.63,5.63,0,0,0,1.95,4.59,6.33,6.33,0,0,0,4.14,1.64,7.24,7.24,0,0,0,4.11-1.29,6.08,6.08,0,0,1,3.09-1.29c1.4,0,3.09,1.23,5.09,3.69a6.16,6.16,0,0,1,1.6,3.62c0,1.77-1.28,3.41-3.83,4.94a16.55,16.55,0,0,1-9.75,2.79,20,20,0,0,1-12.46-4.67,16.55,16.55,0,0,1-4.67-6,18.61,18.61,0,0,1-1.81-8.21,18.2,18.2,0,0,1,1.81-8.15,16.81,16.81,0,0,1,4.67-5.88,19.48,19.48,0,0,1,12.32-4.6,18.22,18.22,0,0,1,5.15.74,17.15,17.15,0,0,1,3.69,1.42l1.12.7,1.95,1.32a4,4,0,0,1,1.81,3.17,7.48,7.48,0,0,1-1.47,4c-1.67,2.56-3.27,3.83-4.8,3.83a8.1,8.1,0,0,1-3.76-1.53,5,5,0,0,0-3.58-1.18,6.69,6.69,0,0,0-4.36,1.67A5.68,5.68,0,0,0,414.39,148.47Z"/><path class="cls-3" d="M450.34,123.33a2.94,2.94,0,0,1-1.84,1.43,14.92,14.92,0,0,1-7,0,2.9,2.9,0,0,1-1.85-1.46,6,6,0,0,1-.63-1.85,28.85,28.85,0,0,1,0-4.8,5.61,5.61,0,0,1,.6-1.77c.65-1.26,2.46-1.88,5.43-1.88s4.68.62,5.29,1.88a5.57,5.57,0,0,1,.66,1.84,28.85,28.85,0,0,1,0,4.8A5.53,5.53,0,0,1,450.34,123.33Zm-11.45,12.92a22.69,22.69,0,0,1,.1-2.4,6.36,6.36,0,0,1,.6-1.85c.65-1.2,2.46-1.81,5.43-1.81,2.23,0,3.8.4,4.73,1.19a3.8,3.8,0,0,1,1.25,3c.05.46.07,1.14.07,2v24.36a20.55,20.55,0,0,1-.1,2.41,5.65,5.65,0,0,1-.66,1.84c-.61,1.21-2.39,1.81-5.36,1.81s-4.71-.63-5.36-1.88a6.45,6.45,0,0,1-.6-1.81,22.61,22.61,0,0,1-.1-2.44Z"/><path class="cls-3" d="M461.45,134.72a19.13,19.13,0,0,1,26.66,0,19.18,19.18,0,0,1,2.78,24,18.72,18.72,0,0,1-7.27,6.61,19.68,19.68,0,0,1-8.88,2.13,19,19,0,0,1-8.91-2.27,19.61,19.61,0,0,1-7.27-6.68,17.49,17.49,0,0,1-3-10A18,18,0,0,1,461.45,134.72Zm8.7,18.76a7.35,7.35,0,0,0,4.52,1.7,7.52,7.52,0,0,0,4.6-1.74,7,7,0,0,0,.14-10.23,7.51,7.51,0,0,0-4.67-1.67,7.28,7.28,0,0,0-4.66,1.74,6.19,6.19,0,0,0-2.16,5.12A6,6,0,0,0,470.15,153.48Z"/><path class="cls-3" d="M498.69,163.54a2.91,2.91,0,0,1-1.32-2.65c0-1.2.88-3,2.64-5.5a2.75,2.75,0,0,1,2.47-1.18,10.14,10.14,0,0,1,4.63,1.71,10.81,10.81,0,0,0,5.3,1.7c2.83,0,4.24-.56,4.24-1.67q0-1.32-4.66-1.95a22.79,22.79,0,0,1-8.7-3.27,9.34,9.34,0,0,1-3.35-3.93,14.29,14.29,0,0,1-1.32-6.37q0-11,15.11-11a24.64,24.64,0,0,1,10.16,2.36c1.63.75,2.44,1.67,2.44,2.79a8.2,8.2,0,0,1-1.53,4.1c-1,1.63-2.07,2.44-3.14,2.44a9.5,9.5,0,0,1-3.09-1,11.54,11.54,0,0,0-4.91-1.05q-4.11,0-4.11,1.53c0,1.4,1.58,2.3,4.74,2.72a26,26,0,0,1,8.91,2.65,7.86,7.86,0,0,1,3.37,3.37,12,12,0,0,1,1.36,6,12.83,12.83,0,0,1-1.36,6.16,8.8,8.8,0,0,1-3.79,3.8,25.58,25.58,0,0,1-11.18,2.16A23.88,23.88,0,0,1,498.69,163.54Z"/><path class="cls-3" d="M228.72,200.3V176.6a11.47,11.47,0,0,1,.06-1.38,3.53,3.53,0,0,1,.34-1c.38-.73,1.29-1.1,2.72-1.1a5.25,5.25,0,0,1,2.9.55,2.15,2.15,0,0,1,.88,1.6,5.62,5.62,0,0,1,4.85-2.11q3.3,0,6.27,3.13a10.41,10.41,0,0,1,0,14.52,8.59,8.59,0,0,1-6.27,3.13q-3.33,0-4.83-1.87v8.2a11.47,11.47,0,0,1-.06,1.38,3.08,3.08,0,0,1-.37,1,1.72,1.72,0,0,1-1,.84,6.61,6.61,0,0,1-2,.24,6.8,6.8,0,0,1-2-.24,1.8,1.8,0,0,1-1.06-.82,3,3,0,0,1-.36-1A11.47,11.47,0,0,1,228.72,200.3Zm8-19.11a3.62,3.62,0,0,0-.93,2.39,3.53,3.53,0,0,0,1,2.38,3.14,3.14,0,0,0,2.44,1.07,3.57,3.57,0,0,0,3.55-3.45,3.48,3.48,0,0,0-1-2.41,3.27,3.27,0,0,0-2.54-1.08A3.14,3.14,0,0,0,236.75,181.19Z"/><path class="cls-3" d="M266.21,175.38c.17-1.51,1.24-2.27,3.21-2.27a8,8,0,0,1,2.35.25,1.67,1.67,0,0,1,1.08.85,3.45,3.45,0,0,1,.36,1.07,9.75,9.75,0,0,1,.07,1.4v14.21a9.75,9.75,0,0,1-.07,1.4,3.63,3.63,0,0,1-.34,1.07c-.38.71-1.31,1.06-2.78,1.06a5.52,5.52,0,0,1-3-.55,2.2,2.2,0,0,1-.87-1.6q-1.51,2.14-5,2.15a8.84,8.84,0,0,1-6.51-3.21,10.57,10.57,0,0,1-3-7.45,10.42,10.42,0,0,1,3-7.42,9,9,0,0,1,6.64-3.19,6.24,6.24,0,0,1,2.51.49,5.41,5.41,0,0,1,1.58.91A5.86,5.86,0,0,1,266.21,175.38Zm-7.38,8.45a3.38,3.38,0,0,0,1.05,2.41,3.45,3.45,0,0,0,2.56,1.07,3.25,3.25,0,0,0,2.5-1.09,3.54,3.54,0,0,0,1-2.42,3.78,3.78,0,0,0-.95-2.45,3.17,3.17,0,0,0-2.56-1.14,3.3,3.3,0,0,0-2.6,1.14A3.7,3.7,0,0,0,258.83,183.83Z"/><path class="cls-3" d="M291.05,173.36a2.77,2.77,0,0,1,1.28.83,2.84,2.84,0,0,1,.5,1.88,6.29,6.29,0,0,1-.77,2.84,2.41,2.41,0,0,1-2.23,1.55,3.13,3.13,0,0,1-1.4-.33,4.13,4.13,0,0,0-1.76-.32,3.21,3.21,0,0,0-2.05.77,2.31,2.31,0,0,0-1,1.87V191a12,12,0,0,1-.06,1.4,3.3,3.3,0,0,1-.38,1.07c-.41.71-1.46,1.06-3.17,1.06a4.48,4.48,0,0,1-2.8-.69,2.47,2.47,0,0,1-.73-1.75V176.64a12,12,0,0,1,.06-1.4,3.3,3.3,0,0,1,.35-1c.38-.73,1.43-1.1,3.16-1.1s2.64.31,3.05.94a2.35,2.35,0,0,1,.44,1.33c.14-.18.33-.41.59-.69a7.85,7.85,0,0,1,1.64-1.09,4.76,4.76,0,0,1,2.22-.69,10.33,10.33,0,0,1,1.6.1A9.42,9.42,0,0,1,291.05,173.36Z"/><path class="cls-3" d="M307.73,175.38c.16-1.51,1.23-2.27,3.2-2.27a8.13,8.13,0,0,1,2.36.25,1.67,1.67,0,0,1,1.07.85,3.5,3.5,0,0,1,.37,1.07,12,12,0,0,1,.06,1.4v14.21a12,12,0,0,1-.06,1.4,3.68,3.68,0,0,1-.35,1.07c-.38.71-1.3,1.06-2.78,1.06a5.52,5.52,0,0,1-3-.55,2.2,2.2,0,0,1-.87-1.6q-1.5,2.14-5,2.15a8.86,8.86,0,0,1-6.52-3.21,10.57,10.57,0,0,1-3-7.45,10.46,10.46,0,0,1,3-7.42,9,9,0,0,1,6.64-3.19,6.18,6.18,0,0,1,2.51.49,5.64,5.64,0,0,1,1.59.91A6.57,6.57,0,0,1,307.73,175.38Zm-7.39,8.45a3.35,3.35,0,0,0,1.06,2.41,3.41,3.41,0,0,0,2.55,1.07,3.23,3.23,0,0,0,2.5-1.09,3.54,3.54,0,0,0,1-2.42,3.78,3.78,0,0,0-.95-2.45,3.17,3.17,0,0,0-2.56-1.14,3.26,3.26,0,0,0-2.59,1.14A3.66,3.66,0,0,0,300.34,183.83Z"/><path class="cls-3" d="M353.45,191.59a3.33,3.33,0,0,1,2-1.64,11.48,11.48,0,0,1,3.31-.41,12.11,12.11,0,0,1,3.2.34,5.1,5.1,0,0,1,1.81.84,2.74,2.74,0,0,1,.87,1.46,10.9,10.9,0,0,1,.42,3.55v38.64a20.35,20.35,0,0,1-.1,2.44,5.5,5.5,0,0,1-.67,1.81q-1,1.88-5.43,1.88a11.43,11.43,0,0,1-3.76-.42,4.17,4.17,0,0,1-1.74-1.32q-15.66-20.89-20.6-27.29v22.9a19.84,19.84,0,0,1-.11,2.44,5.68,5.68,0,0,1-.66,1.81q-1,1.88-5.43,1.88t-5.29-1.88a5.67,5.67,0,0,1-.66-1.88,21.37,21.37,0,0,1-.1-2.44V195.45a8.49,8.49,0,0,1,.66-3.86,3.33,3.33,0,0,1,2-1.64,11.89,11.89,0,0,1,3.41-.41,11.29,11.29,0,0,1,3.31.38,4.08,4.08,0,0,1,1.7.87,17.94,17.94,0,0,1,1.61,1.81q14.68,20,19.63,26.38V195.45A8.49,8.49,0,0,1,353.45,191.59Z"/><path class="cls-3" d="M382.06,197a3,3,0,0,1-1.84,1.43,15.32,15.32,0,0,1-7,0,2.92,2.92,0,0,1-1.84-1.47,5.91,5.91,0,0,1-.63-1.84,28.85,28.85,0,0,1,0-4.8,5.79,5.79,0,0,1,.59-1.78q1-1.87,5.43-1.88c2.93,0,4.69.63,5.3,1.88a5.61,5.61,0,0,1,.66,1.85,28.85,28.85,0,0,1,0,4.8A5.6,5.6,0,0,1,382.06,197Zm-11.45,12.91a20.47,20.47,0,0,1,.1-2.4,6.56,6.56,0,0,1,.59-1.84q1-1.81,5.43-1.81c2.23,0,3.81.39,4.74,1.18a3.85,3.85,0,0,1,1.25,3c0,.47.07,1.14.07,2v24.37a20.24,20.24,0,0,1-.1,2.4,5.69,5.69,0,0,1-.66,1.85c-.61,1.2-2.4,1.81-5.37,1.81s-4.71-.63-5.36-1.88a6.72,6.72,0,0,1-.59-1.81,20.35,20.35,0,0,1-.1-2.44Z"/><path class="cls-3" d="M408.76,203.81a14.72,14.72,0,0,1,11.59,5.32,19.09,19.09,0,0,1,4.63,13v12.25a19.78,19.78,0,0,1-.11,2.4,5.61,5.61,0,0,1-.59,1.78q-1,1.88-5.43,1.88-4.94,0-5.71-2.58a11.64,11.64,0,0,1-.41-3.55V222.05a5.6,5.6,0,0,0-6-6.06,6.11,6.11,0,0,0-4.46,1.67,5.86,5.86,0,0,0-1.71,4.39v12.32a20.24,20.24,0,0,1-.1,2.4,5,5,0,0,1-.66,1.78c-.61,1.25-2.39,1.88-5.36,1.88s-4.71-.63-5.36-1.88a6.36,6.36,0,0,1-.6-1.85,22.69,22.69,0,0,1-.1-2.4V209.65a22.14,22.14,0,0,1,.1-2.33,4.83,4.83,0,0,1,.67-1.77c.65-1.16,2.43-1.74,5.36-1.74s4.57.53,5.22,1.6a5.57,5.57,0,0,1,.69,2.85,7.38,7.38,0,0,1,1.26-1.39,12,12,0,0,1,1.88-1.46A9.08,9.08,0,0,1,408.76,203.81Zm9.54-16.08c1.67,1.16,2.5,2.27,2.5,3.34a3.56,3.56,0,0,1-.55,1.88c-.38.6-.63,1-.77,1.29a12,12,0,0,1-1,1.35,10.23,10.23,0,0,1-1.74,1.74,9,9,0,0,1-5.36,1.95,8.62,8.62,0,0,1-4.28-.9,16,16,0,0,1-2.57-1.81,2.84,2.84,0,0,0-1.64-.91,2.53,2.53,0,0,0-1.81.84c-1.07,1.85-2.05,2.78-3,2.78a5.45,5.45,0,0,1-3.27-1.67c-1.28-1.11-1.91-2-1.91-2.75a3.69,3.69,0,0,1,.55-2c.37-.6.63-1,.77-1.29a8.8,8.8,0,0,1,1-1.32,11.93,11.93,0,0,1,1.77-1.71,9,9,0,0,1,5.36-1.88,8.83,8.83,0,0,1,4.32.87,14.71,14.71,0,0,1,2.51,1.74,2.71,2.71,0,0,0,1.6.87,2.27,2.27,0,0,0,1.81-.83c1-1.77,2-2.65,3.13-2.65A4.6,4.6,0,0,1,418.3,187.73Z"/><path class="cls-3" d="M435.35,208.4A19.11,19.11,0,0,1,448.72,203a18.89,18.89,0,0,1,13.29,5.4,18,18,0,0,1,5.78,13.75,18.15,18.15,0,0,1-3,10.27,18.83,18.83,0,0,1-7.28,6.61,19.65,19.65,0,0,1-8.87,2.12,18.93,18.93,0,0,1-8.91-2.26,19.8,19.8,0,0,1-7.28-6.68,17.59,17.59,0,0,1-3-10A18,18,0,0,1,435.35,208.4Zm8.7,18.76a7.41,7.41,0,0,0,4.53,1.71,7.58,7.58,0,0,0,4.59-1.74,7,7,0,0,0,.14-10.23,7.44,7.44,0,0,0-4.66-1.68A7.32,7.32,0,0,0,444,217a6.16,6.16,0,0,0-2.15,5.11A6,6,0,0,0,444.05,227.16Z"/><path class="cls-3" d="M472.6,237.22a2.87,2.87,0,0,1-1.33-2.64q0-1.82,2.65-5.5a2.71,2.71,0,0,1,2.47-1.18,10.09,10.09,0,0,1,4.63,1.7,10.7,10.7,0,0,0,5.29,1.71c2.83,0,4.25-.56,4.25-1.67q0-1.33-4.67-1.95a22.77,22.77,0,0,1-8.7-3.28,9.2,9.2,0,0,1-3.34-3.93,14.29,14.29,0,0,1-1.32-6.37q0-11,15.1-11a24.51,24.51,0,0,1,10.17,2.37c1.62.74,2.43,1.67,2.43,2.78a8.19,8.19,0,0,1-1.53,4.11c-1,1.63-2.06,2.44-3.13,2.44a9.38,9.38,0,0,1-3.1-1.05,11.65,11.65,0,0,0-4.91-1c-2.74,0-4.1.51-4.1,1.53,0,1.39,1.57,2.3,4.73,2.72a25.8,25.8,0,0,1,8.91,2.64,7.91,7.91,0,0,1,3.38,3.38,12.16,12.16,0,0,1,1.35,6,13,13,0,0,1-1.35,6.16,8.8,8.8,0,0,1-3.8,3.79,25.53,25.53,0,0,1-11.17,2.16A23.88,23.88,0,0,1,472.6,237.22Z"/></svg>