<svg xmlns="http://www.w3.org/2000/svg" xmlns:xlink="http://www.w3.org/1999/xlink" viewBox="-757 -125 300 300">
  <defs>
    <style>
      .cls-1 {
        clip-path: url(#clip-QR);
      }

      .cls-2 {
        fill: #50596d;
      }

      .cls-3 {
        fill: #5c6376;
      }

      .cls-4 {
        fill: #4c5568;
      }

      .cls-5 {
        fill: #707784;
      }

      .cls-6 {
        fill: #d1d9e8;
      }

      .cls-7 {
        fill: #e2e9f2;
      }

      .cls-8 {
        fill: #bcc7d8;
      }

      .cls-9 {
        fill: #0666ff;
      }

      .cls-10 {
        fill: #0456d9;
      }

      .cls-11 {
        fill: #1f75ff;
      }

      .cls-12 {
        fill: #fff;
      }
    </style>
    <clipPath id="clip-QR">
      <rect x="-757" y="-125" width="300" height="300"/>
    </clipPath>
  </defs>
  <g id="QR" class="cls-1">
    <rect class="cls-12" x="-757" y="-125" width="300" height="300"/>
    <g id="smartphone_2_" data-name="smartphone (2)" transform="translate(-795.41 -125)">
      <g id="Group_1" data-name="Group 1" transform="translate(93.638 69.718)">
        <path id="Path_1" data-name="Path 1" class="cls-2" d="M104.433,152.29H98.642a4.786,4.786,0,0,1-5-4.532v-9.674a4.785,4.785,0,0,1,5-4.532h5.791Z" transform="translate(-93.638 -125.018)"/>
        <path id="Path_2" data-name="Path 2" class="cls-2" d="M104.433,422.2H98.642a4.786,4.786,0,0,1-5-4.532v-9.674a4.785,4.785,0,0,1,5-4.532h5.791Z" transform="translate(-93.638 -236.776)"/>
        <path id="Path_3" data-name="Path 3" class="cls-2" d="M399.94,118.986h5.791a4.785,4.785,0,0,1,5,4.532V200.4a4.785,4.785,0,0,1-5,4.532H399.94Z" transform="translate(-220.466 -118.986)"/>
      </g>
      <path id="Path_4" data-name="Path 4" class="cls-3" d="M281.271,18.435v263.13A18.431,18.431,0,0,1,262.843,300H127.4a18.43,18.43,0,0,1-18.428-18.435V18.435A18.431,18.431,0,0,1,127.4,0H262.842A18.431,18.431,0,0,1,281.271,18.435Z" transform="translate(-6.35)"/>
      <path id="Path_5" data-name="Path 5" class="cls-4" d="M378.064,18.435v263.13A18.431,18.431,0,0,1,359.636,300h-16.9a18.43,18.43,0,0,0,18.428-18.435V18.435A18.431,18.431,0,0,0,342.734,0h16.9A18.431,18.431,0,0,1,378.064,18.435Z" transform="translate(-103.141)"/>
      <path id="Path_6" data-name="Path 6" class="cls-5" d="M144.3,300H127.4a18.43,18.43,0,0,1-18.428-18.435V18.435A18.43,18.43,0,0,1,127.4,0h16.9a18.43,18.43,0,0,0-18.428,18.435v263.13A18.43,18.43,0,0,0,144.3,300Z" transform="translate(-6.35)"/>
      <rect id="Rectangle_1" data-name="Rectangle 1" class="cls-6" width="172.301" height="239.508" transform="translate(102.622 32.789)"/>
      <rect id="Rectangle_2" data-name="Rectangle 2" class="cls-7" width="16.903" height="239.514" transform="translate(102.622 32.79)"/>
      <rect id="Rectangle_3" data-name="Rectangle 3" class="cls-8" width="16.901" height="239.508" transform="translate(258.018 32.789)"/>
      <rect id="Rectangle_4" data-name="Rectangle 4" class="cls-9" width="172.301" height="22.199" transform="translate(102.622 32.79)"/>
      <path id="Path_33" data-name="Path 33" class="cls-10" d="M0,0H16.9V22.2H0Z" transform="translate(258.024 32.79)"/>
      <path id="Path_34" data-name="Path 34" class="cls-11" d="M0,0H16.9V22.2H0Z" transform="translate(102.622 32.79)"/>
      <path id="Path_7" data-name="Path 7" class="cls-4" d="M255.707,30.178H240.636a4.527,4.527,0,0,1,0-9.054h15.071a4.527,4.527,0,1,1,0,9.054Z" transform="translate(-58.992 -8.747)"/>
      <path id="Path_8" data-name="Path 8" class="cls-4" d="M212.049,30.178h-.611a4.527,4.527,0,0,1,0-9.054h.611a4.527,4.527,0,1,1,0,9.054Z" transform="translate(-46.903 -8.747)"/>
      <path id="Path_9" data-name="Path 9" class="cls-4" d="M255.707,488.3H240.636a4.527,4.527,0,1,1,0-9.054h15.071a4.527,4.527,0,1,1,0,9.054Z" transform="translate(-58.992 -198.439)"/>
      <path id="Union_1" data-name="Union 1" class="cls-4" d="M101.345,150.2a4.526,4.526,0,0,1-4.527-4.527V99.706H53.108a4.526,4.526,0,0,1-4.527-4.527V65.547a4.526,4.526,0,0,1,4.527-4.527h6.7V52.948a4.527,4.527,0,0,1,4.527-4.527h6.909a4.527,4.527,0,0,1,0,9.054H68.861v3.544H78.7V44.706H64.459a4.527,4.527,0,1,1,0-9.054H89.708V28.076H81.785a4.527,4.527,0,0,1-4.527-4.527V15.488a4.527,4.527,0,1,1,9.054,0v3.534h3.4V15.811a4.527,4.527,0,1,1,9.054,0V40.179a4.526,4.526,0,0,1-4.527,4.527H87.759v20.84a4.527,4.527,0,0,1-4.527,4.527H78.185v4.853h12.2a4.527,4.527,0,1,1,0,9.054H73.658a4.527,4.527,0,0,1-4.527-4.527V70.073H57.636V90.652H96.819V65.119a4.526,4.526,0,0,1,4.527-4.527h2.4v-2.51h-2.4a4.527,4.527,0,0,1,0-9.054H115.2a4.527,4.527,0,1,1,0,9.054h-2.4v7.037a4.527,4.527,0,0,1-4.527,4.527h-2.4v71.5h32.073V110.418H115.2a4.527,4.527,0,0,1,0-9.054h27.269A4.528,4.528,0,0,1,147,105.892v39.785a4.526,4.526,0,0,1-4.527,4.527Zm-96.818,0A4.527,4.527,0,0,1,0,145.677V107.633a4.526,4.526,0,0,1,4.527-4.527H42.571a4.527,4.527,0,0,1,4.527,4.527v38.044a4.526,4.526,0,0,1-4.527,4.527Zm4.527-9.054h28.99v-28.99H9.054Zm48.81,9.053a4.527,4.527,0,1,1,0-9.054h27.06v-7.576H79.87a4.526,4.526,0,0,1-4.527-4.527v-9.872a4.527,4.527,0,1,1,9.053,0v5.345h.526V119.5a4.527,4.527,0,0,1,9.055,0v26.179a4.527,4.527,0,0,1-4.527,4.527Zm69.809-15.678v-13.6H111.617a4.527,4.527,0,0,1,0-9.054H132.2a4.527,4.527,0,0,1,4.527,4.527v18.132a4.527,4.527,0,0,1-9.055,0ZM64.334,139a4.527,4.527,0,1,1,0-9.054h.724v-8.169a4.527,4.527,0,0,1,9.055,0v12.7A4.526,4.526,0,0,1,69.585,139Zm-11.226-.946a4.526,4.526,0,0,1-4.527-4.527V119.175a4.527,4.527,0,0,1,4.527-4.527h2.4v-2.965h-2.4a4.527,4.527,0,0,1,0-9.054H66.966a4.527,4.527,0,0,1,0,9.054h-2.4v7.493a4.526,4.526,0,0,1-4.527,4.527h-2.4v9.825a4.526,4.526,0,0,1-4.526,4.527Zm-36.371-.06a4.527,4.527,0,0,1-4.527-4.527V119.844a4.527,4.527,0,0,1,4.527-4.527H30.36a4.526,4.526,0,0,1,4.527,4.527v13.623a4.526,4.526,0,0,1-4.527,4.527Zm4.528-9.053h4.569v-4.569H21.265Zm90.965,6.622a4.526,4.526,0,0,1-4.527-4.527V126.42a4.527,4.527,0,1,1,9.054,0v.09h5.764a4.527,4.527,0,1,1,0,9.053ZM77.012,111.682a4.527,4.527,0,1,1,0-9.054H89.45a4.527,4.527,0,0,1,0,9.054ZM110.887,99.1a4.527,4.527,0,1,1,0-9.054h27.059V88H131a4.527,4.527,0,0,1,0-9.053h6.947V77.1h-7.923a4.526,4.526,0,0,1-4.527-4.527V64.516a4.527,4.527,0,1,1,9.054,0v3.534h3.4V64.839a4.527,4.527,0,0,1,9.054,0V94.575a4.527,4.527,0,0,1-4.527,4.527Zm-95.4-.353a4.527,4.527,0,0,1-4.527-4.527v-2.4H9.054v2.4a4.527,4.527,0,1,1-9.053,0V80.365a4.527,4.527,0,0,1,9.054,0v2.4h6.434a4.527,4.527,0,0,1,4.527,4.527v2.4H40.179a4.527,4.527,0,1,1,0,9.054Zm97.79-11.665a4.527,4.527,0,1,1,0-9.054h1.931V65.306a4.527,4.527,0,1,1,9.054,0V82.558a4.527,4.527,0,0,1-4.527,4.527ZM25.655,82.29V80.359H16.278a4.527,4.527,0,0,1,0-9.054h13.9a4.526,4.526,0,0,1,4.527,4.527V82.29a4.527,4.527,0,1,1-9.054,0Zm10-.023V57.623H28.076v7.923a4.527,4.527,0,0,1-4.527,4.527H15.488a4.527,4.527,0,0,1,0-9.054h3.534v-3.4H15.81a4.527,4.527,0,0,1,0-9.054H40.179A4.527,4.527,0,0,1,44.706,53.1V82.267a4.527,4.527,0,0,1-9.054,0ZM0,70.319V53.1a4.527,4.527,0,0,1,9.054,0V70.319a4.527,4.527,0,1,1-9.054,0ZM125.25,58.082a4.527,4.527,0,0,1,0-9.054h17.223a4.527,4.527,0,1,1,0,9.054ZM48.579,52.948V16.7a4.527,4.527,0,0,1,4.527-4.527h2.4V9.055h-2.4a4.527,4.527,0,1,1,0-9.054H66.965a4.527,4.527,0,0,1,0,9.054h-2.4V16.7a4.526,4.526,0,0,1-4.527,4.527h-2.4V52.948a4.527,4.527,0,1,1-9.054,0Zm56.586-5.85a4.526,4.526,0,0,1-4.527-4.527V4.527A4.526,4.526,0,0,1,105.165,0h38.044a4.527,4.527,0,0,1,4.527,4.527V42.571a4.526,4.526,0,0,1-4.527,4.527Zm4.527-9.054h28.99V9.054h-28.99ZM4.527,47.1A4.527,4.527,0,0,1,0,42.571V4.527A4.526,4.526,0,0,1,4.527,0H42.571A4.527,4.527,0,0,1,47.1,4.527V42.571A4.526,4.526,0,0,1,42.571,47.1Zm4.527-9.054h28.99V9.054H9.054Zm108.321-3.157a4.525,4.525,0,0,1-4.527-4.527V16.737a4.526,4.526,0,0,1,4.527-4.527H131a4.526,4.526,0,0,1,4.527,4.527V30.361A4.526,4.526,0,0,1,131,34.887Zm4.527-9.053h4.569V21.265H121.9ZM16.737,34.887a4.526,4.526,0,0,1-4.527-4.527V16.737a4.526,4.526,0,0,1,4.527-4.527H30.36a4.526,4.526,0,0,1,4.527,4.527V30.361a4.526,4.526,0,0,1-4.527,4.527Zm4.528-9.053h4.569V21.265H21.265Zm43.775,8.874a4.527,4.527,0,1,1,0-9.053h1.931V16.278a4.527,4.527,0,0,1,9.054,0v13.9A4.527,4.527,0,0,1,71.5,34.708ZM77.011,9.054a4.527,4.527,0,1,1,0-9.054H94.233a4.527,4.527,0,0,1,0,9.054Z" transform="translate(114.904 89.511)"/>
    </g>
  </g>
</svg>
